<ttFont>
    <TTGlyph name="A" xMin="-315" yMin="-7" xMax="838" yMax="1382">
      <contour>
        <pt x="838" y="1366" on="1"/>
        <pt x="828" y="1340" on="0"/>
        <pt x="787" y="1220" on="0"/>
        <pt x="731" y="1054" on="0"/>
        <pt x="664" y="853" on="0"/>
        <pt x="592" y="638" on="0"/>
        <pt x="521" y="421" on="0"/>
        <pt x="457" y="223" on="0"/>
        <pt x="403" y="57" on="0"/>
        <pt x="385" y="0" on="1"/>
        <pt x="359" y="-4" on="0"/>
        <pt x="330" y="-5" on="1"/>
        <pt x="305" y="-7" on="0"/>
        <pt x="240" y="-5" on="0"/>
        <pt x="205" y="0" on="1"/>
        <pt x="199" y="10" on="1"/>
        <pt x="208" y="27" on="0"/>
        <pt x="242" y="114" on="0"/>
        <pt x="287" y="238" on="0"/>
        <pt x="342" y="393" on="0"/>
        <pt x="371" y="477" on="1"/>
        <pt x="197" y="471" on="1"/>
        <pt x="103" y="334" on="0"/>
        <pt x="-75" y="96" on="0"/>
        <pt x="-154" y="0" on="1"/>
        <pt x="-174" y="-2" on="0"/>
        <pt x="-199" y="-3" on="1"/>
        <pt x="-220" y="-4" on="0"/>
        <pt x="-279" y="-3" on="0"/>
        <pt x="-315" y="0" on="1"/>
        <pt x="-313" y="14" on="1"/>
        <pt x="-308" y="14" on="0"/>
        <pt x="-285" y="26" on="0"/>
        <pt x="-274" y="37" on="1"/>
        <pt x="-147" y="167" on="0"/>
        <pt x="111" y="474" on="0"/>
        <pt x="349" y="804" on="0"/>
        <pt x="557" y="1143" on="0"/>
        <pt x="635" y="1305" on="1"/>
        <pt x="635" y="1319" on="0"/>
        <pt x="629" y="1325" on="1"/>
        <pt x="602" y="1323" on="0"/>
        <pt x="542" y="1320" on="0"/>
        <pt x="486" y="1314" on="0"/>
        <pt x="437" y="1306" on="0"/>
        <pt x="422" y="1300" on="1"/>
        <pt x="409" y="1295" on="0"/>
        <pt x="379" y="1272" on="0"/>
        <pt x="353" y="1238" on="0"/>
        <pt x="336" y="1197" on="0"/>
        <pt x="336" y="1176" on="1"/>
        <pt x="336" y="1163" on="0"/>
        <pt x="340" y="1124" on="0"/>
        <pt x="346" y="1104" on="1"/>
        <pt x="334" y="1092" on="1"/>
        <pt x="283" y="1129" on="0"/>
        <pt x="223" y="1210" on="0"/>
        <pt x="223" y="1245" on="1"/>
        <pt x="223" y="1265" on="0"/>
        <pt x="250" y="1313" on="0"/>
        <pt x="290" y="1354" on="0"/>
        <pt x="336" y="1382" on="0"/>
        <pt x="354" y="1382" on="1"/>
        <pt x="385" y="1382" on="0"/>
        <pt x="474" y="1379" on="0"/>
        <pt x="573" y="1375" on="0"/>
        <pt x="673" y="1372" on="0"/>
        <pt x="715" y="1372" on="1"/>
        <pt x="733" y="1372" on="0"/>
        <pt x="761" y="1372" on="0"/>
        <pt x="786" y="1373" on="0"/>
        <pt x="813" y="1374" on="0"/>
        <pt x="831" y="1376" on="1"/>
      </contour>
      <contour>
        <pt x="387" y="524" on="1"/>
        <pt x="413" y="602" on="0"/>
        <pt x="467" y="762" on="0"/>
        <pt x="517" y="915" on="0"/>
        <pt x="563" y="1055" on="0"/>
        <pt x="582" y="1114" on="1"/>
        <pt x="503" y="961" on="0"/>
        <pt x="321" y="661" on="0"/>
        <pt x="227" y="518" on="1"/>
      </contour>
    </TTGlyph>
    <TTGlyph name="AE" xMin="-315" yMin="-25" xMax="1100" yMax="1393">
      <contour>
        <pt x="881" y="795" on="1"/>
        <pt x="825" y="754" on="0"/>
        <pt x="725" y="648" on="0"/>
        <pt x="640" y="535" on="0"/>
        <pt x="571" y="419" on="0"/>
        <pt x="524" y="314" on="0"/>
        <pt x="498" y="227" on="0"/>
        <pt x="498" y="199" on="1"/>
        <pt x="498" y="161" on="0"/>
        <pt x="513" y="118" on="0"/>
        <pt x="533" y="96" on="0"/>
        <pt x="554" y="90" on="0"/>
        <pt x="559" y="90" on="1"/>
        <pt x="584" y="90" on="0"/>
        <pt x="638" y="145" on="0"/>
        <pt x="689" y="227" on="0"/>
        <pt x="733" y="321" on="0"/>
        <pt x="748" y="360" on="1"/>
        <pt x="750" y="360" on="1"/>
        <pt x="774" y="338" on="0"/>
        <pt x="821" y="288" on="0"/>
        <pt x="840" y="265" on="1"/>
        <pt x="862" y="239" on="0"/>
        <pt x="881" y="213" on="1"/>
        <pt x="865" y="181" on="0"/>
        <pt x="817" y="115" on="0"/>
        <pt x="760" y="54" on="0"/>
        <pt x="697" y="3" on="0"/>
        <pt x="666" y="-12" on="1"/>
        <pt x="649" y="-20" on="0"/>
        <pt x="632" y="-25" on="0"/>
        <pt x="616" y="-25" on="1"/>
        <pt x="607" y="-25" on="0"/>
        <pt x="586" y="-16" on="0"/>
        <pt x="575" y="-10" on="1"/>
        <pt x="548" y="5" on="0"/>
        <pt x="473" y="61" on="0"/>
        <pt x="403" y="139" on="0"/>
        <pt x="354" y="239" on="0"/>
        <pt x="354" y="299" on="1"/>
        <pt x="354" y="337" on="0"/>
        <pt x="383" y="428" on="0"/>
        <pt x="408" y="477" on="1"/>
        <pt x="199" y="471" on="1"/>
        <pt x="112" y="334" on="0"/>
        <pt x="-56" y="94" on="0"/>
        <pt x="-133" y="0" on="1"/>
        <pt x="-145" y="-1" on="0"/>
        <pt x="-159" y="-2" on="1"/>
        <pt x="-171" y="-3" on="0"/>
        <pt x="-205" y="-4" on="0"/>
        <pt x="-225" y="-4" on="1"/>
        <pt x="-245" y="-4" on="0"/>
        <pt x="-291" y="-2" on="0"/>
        <pt x="-315" y="0" on="1"/>
        <pt x="-313" y="14" on="1"/>
        <pt x="-308" y="14" on="0"/>
        <pt x="-285" y="26" on="0"/>
        <pt x="-274" y="37" on="1"/>
        <pt x="-145" y="168" on="0"/>
        <pt x="98" y="481" on="0"/>
        <pt x="318" y="816" on="0"/>
        <pt x="510" y="1160" on="0"/>
        <pt x="588" y="1323" on="1"/>
        <pt x="563" y="1321" on="0"/>
        <pt x="514" y="1317" on="0"/>
        <pt x="470" y="1311" on="0"/>
        <pt x="434" y="1304" on="0"/>
        <pt x="422" y="1300" on="1"/>
        <pt x="409" y="1295" on="0"/>
        <pt x="379" y="1272" on="0"/>
        <pt x="353" y="1238" on="0"/>
        <pt x="336" y="1197" on="0"/>
        <pt x="336" y="1176" on="1"/>
        <pt x="336" y="1163" on="0"/>
        <pt x="340" y="1124" on="0"/>
        <pt x="346" y="1104" on="1"/>
        <pt x="334" y="1092" on="1"/>
        <pt x="283" y="1129" on="0"/>
        <pt x="223" y="1210" on="0"/>
        <pt x="223" y="1245" on="1"/>
        <pt x="223" y="1265" on="0"/>
        <pt x="250" y="1313" on="0"/>
        <pt x="290" y="1354" on="0"/>
        <pt x="336" y="1382" on="0"/>
        <pt x="354" y="1382" on="1"/>
        <pt x="385" y="1382" on="0"/>
        <pt x="481" y="1379" on="0"/>
        <pt x="587" y="1375" on="0"/>
        <pt x="694" y="1372" on="0"/>
        <pt x="735" y="1372" on="1"/>
        <pt x="753" y="1372" on="0"/>
        <pt x="781" y="1372" on="0"/>
        <pt x="807" y="1373" on="0"/>
        <pt x="834" y="1374" on="0"/>
        <pt x="852" y="1376" on="1"/>
        <pt x="858" y="1366" on="1"/>
        <pt x="852" y="1352" on="0"/>
        <pt x="843" y="1325" on="0"/>
        <pt x="838" y="1313" on="1"/>
        <pt x="860" y="1328" on="0"/>
        <pt x="908" y="1357" on="0"/>
        <pt x="956" y="1380" on="0"/>
        <pt x="1002" y="1393" on="0"/>
        <pt x="1022" y="1393" on="1"/>
        <pt x="1039" y="1393" on="0"/>
        <pt x="1067" y="1378" on="0"/>
        <pt x="1088" y="1341" on="0"/>
        <pt x="1100" y="1276" on="0"/>
        <pt x="1100" y="1225" on="1"/>
        <pt x="1100" y="1202" on="0"/>
        <pt x="1085" y="1159" on="0"/>
        <pt x="1061" y="1118" on="0"/>
        <pt x="1031" y="1081" on="0"/>
        <pt x="1015" y="1065" on="1"/>
        <pt x="977" y="1027" on="0"/>
        <pt x="930" y="995" on="1"/>
        <pt x="920" y="1012" on="1"/>
        <pt x="926" y="1019" on="0"/>
        <pt x="939" y="1050" on="0"/>
        <pt x="951" y="1091" on="0"/>
        <pt x="958" y="1140" on="0"/>
        <pt x="958" y="1165" on="1"/>
        <pt x="958" y="1215" on="0"/>
        <pt x="923" y="1262" on="0"/>
        <pt x="895" y="1262" on="1"/>
        <pt x="875" y="1262" on="0"/>
        <pt x="825" y="1225" on="0"/>
        <pt x="782" y="1162" on="0"/>
        <pt x="752" y="1076" on="0"/>
        <pt x="752" y="1028" on="1"/>
        <pt x="752" y="1009" on="0"/>
        <pt x="762" y="950" on="0"/>
        <pt x="791" y="889" on="0"/>
        <pt x="842" y="833" on="0"/>
        <pt x="883" y="817" on="1"/>
      </contour>
      <contour>
        <pt x="610" y="1108" on="1"/>
        <pt x="621" y="1139" on="0"/>
        <pt x="643" y="1207" on="0"/>
        <pt x="661" y="1268" on="0"/>
        <pt x="674" y="1315" on="0"/>
        <pt x="676" y="1327" on="1"/>
        <pt x="657" y="1327" on="1"/>
        <pt x="569" y="1126" on="0"/>
        <pt x="348" y="710" on="0"/>
        <pt x="227" y="518" on="1"/>
        <pt x="434" y="526" on="1"/>
        <pt x="459" y="568" on="0"/>
        <pt x="517" y="654" on="0"/>
        <pt x="580" y="737" on="0"/>
        <pt x="645" y="813" on="0"/>
        <pt x="676" y="846" on="1"/>
        <pt x="641" y="881" on="0"/>
        <pt x="592" y="956" on="0"/>
        <pt x="592" y="993" on="1"/>
        <pt x="592" y="1024" on="0"/>
        <pt x="601" y="1079" on="0"/>
      </contour>
    </TTGlyph>
    <TTGlyph name="AEacute" xMin="-315" yMin="-25" xMax="1100" yMax="1812">
      <component glyphName="AE" x="0" y="0" flags="0x204"/>
      <component glyphName="acute" x="250" y="604" flags="0x4"/>
    </TTGlyph>
    <TTGlyph name="Aacute" xMin="-315" yMin="-7" xMax="990" yMax="1812">
      <component glyphName="A" x="0" y="0" flags="0x204"/>
      <component glyphName="acute" x="195" y="604" flags="0x4"/>
    </TTGlyph>
    <TTGlyph name="Abreve" xMin="-315" yMin="-7" xMax="1041" yMax="1775">
      <component glyphName="A" x="0" y="0" flags="0x204"/>
      <component glyphName="breve" x="158" y="604" flags="0x4"/>
    </TTGlyph>
    <TTGlyph name="Acircumflex" xMin="-315" yMin="-7" xMax="962" yMax="1804">
      <component glyphName="A" x="0" y="0" flags="0x204"/>
      <component glyphName="circumflex" x="143" y="604" flags="0x4"/>
    </TTGlyph>
    <TTGlyph name="Adieresis" xMin="-315" yMin="-7" xMax="960" yMax="1694">
      <component glyphName="A" x="0" y="0" flags="0x204"/>
      <component glyphName="dieresis" x="145" y="604" flags="0x4"/>
    </TTGlyph>
    <TTGlyph name="Agrave" xMin="-315" yMin="-7" xMax="838" yMax="1816">
      <component glyphName="A" x="0" y="0" flags="0x204"/>
      <component glyphName="grave" x="197" y="604" flags="0x4"/>
    </TTGlyph>
    <TTGlyph name="Amacron" xMin="-315" yMin="-7" xMax="977" yMax="1626">
      <component glyphName="A" x="0" y="0" flags="0x204"/>
      <component glyphName="macron" x="137" y="604" flags="0x4"/>
    </TTGlyph>
    <TTGlyph name="Aogonek" xMin="-315" yMin="-387" xMax="838" yMax="1382">
      <contour>
        <pt x="426" y="-317" on="1"/>
        <pt x="376" y="-346" on="0"/>
        <pt x="248" y="-387" on="0"/>
        <pt x="176" y="-387" on="1"/>
        <pt x="145" y="-387" on="0"/>
        <pt x="86" y="-375" on="0"/>
        <pt x="39" y="-347" on="0"/>
        <pt x="10" y="-302" on="0"/>
        <pt x="10" y="-270" on="1"/>
        <pt x="10" y="-222" on="0"/>
        <pt x="57" y="-142" on="0"/>
        <pt x="130" y="-76" on="0"/>
        <pt x="217" y="-24" on="0"/>
        <pt x="258" y="-4" on="1"/>
        <pt x="205" y="0" on="1"/>
        <pt x="199" y="10" on="1"/>
        <pt x="208" y="27" on="0"/>
        <pt x="242" y="114" on="0"/>
        <pt x="287" y="238" on="0"/>
        <pt x="342" y="393" on="0"/>
        <pt x="371" y="477" on="1"/>
        <pt x="197" y="471" on="1"/>
        <pt x="103" y="334" on="0"/>
        <pt x="-75" y="96" on="0"/>
        <pt x="-154" y="0" on="1"/>
        <pt x="-163" y="-1" on="0"/>
        <pt x="-174" y="-2" on="1"/>
        <pt x="-184" y="-3" on="0"/>
        <pt x="-213" y="-4" on="0"/>
        <pt x="-231" y="-4" on="1"/>
        <pt x="-250" y="-4" on="0"/>
        <pt x="-291" y="-2" on="0"/>
        <pt x="-315" y="0" on="1"/>
        <pt x="-313" y="14" on="1"/>
        <pt x="-308" y="14" on="0"/>
        <pt x="-285" y="26" on="0"/>
        <pt x="-274" y="37" on="1"/>
        <pt x="-147" y="167" on="0"/>
        <pt x="111" y="474" on="0"/>
        <pt x="349" y="804" on="0"/>
        <pt x="557" y="1143" on="0"/>
        <pt x="635" y="1305" on="1"/>
        <pt x="635" y="1319" on="0"/>
        <pt x="629" y="1325" on="1"/>
        <pt x="602" y="1323" on="0"/>
        <pt x="542" y="1320" on="0"/>
        <pt x="486" y="1314" on="0"/>
        <pt x="437" y="1306" on="0"/>
        <pt x="422" y="1300" on="1"/>
        <pt x="409" y="1295" on="0"/>
        <pt x="379" y="1272" on="0"/>
        <pt x="353" y="1238" on="0"/>
        <pt x="336" y="1197" on="0"/>
        <pt x="336" y="1176" on="1"/>
        <pt x="336" y="1163" on="0"/>
        <pt x="340" y="1124" on="0"/>
        <pt x="346" y="1104" on="1"/>
        <pt x="334" y="1092" on="1"/>
        <pt x="283" y="1129" on="0"/>
        <pt x="223" y="1210" on="0"/>
        <pt x="223" y="1245" on="1"/>
        <pt x="223" y="1265" on="0"/>
        <pt x="250" y="1313" on="0"/>
        <pt x="290" y="1354" on="0"/>
        <pt x="336" y="1382" on="0"/>
        <pt x="354" y="1382" on="1"/>
        <pt x="385" y="1382" on="0"/>
        <pt x="474" y="1379" on="0"/>
        <pt x="573" y="1375" on="0"/>
        <pt x="673" y="1372" on="0"/>
        <pt x="715" y="1372" on="1"/>
        <pt x="733" y="1372" on="0"/>
        <pt x="761" y="1372" on="0"/>
        <pt x="786" y="1373" on="0"/>
        <pt x="813" y="1374" on="0"/>
        <pt x="831" y="1376" on="1"/>
        <pt x="838" y="1366" on="1"/>
        <pt x="828" y="1341" on="0"/>
        <pt x="788" y="1224" on="0"/>
        <pt x="733" y="1063" on="0"/>
        <pt x="668" y="866" on="0"/>
        <pt x="598" y="656" on="0"/>
        <pt x="528" y="443" on="0"/>
        <pt x="464" y="247" on="0"/>
        <pt x="410" y="78" on="0"/>
        <pt x="391" y="18" on="1"/>
        <pt x="385" y="0" on="1"/>
        <pt x="349" y="-9" on="0"/>
        <pt x="264" y="-55" on="0"/>
        <pt x="192" y="-121" on="0"/>
        <pt x="143" y="-203" on="0"/>
        <pt x="143" y="-248" on="1"/>
        <pt x="143" y="-286" on="0"/>
        <pt x="195" y="-328" on="0"/>
        <pt x="248" y="-328" on="1"/>
        <pt x="271" y="-328" on="0"/>
        <pt x="317" y="-318" on="0"/>
        <pt x="361" y="-304" on="0"/>
        <pt x="398" y="-287" on="0"/>
        <pt x="412" y="-279" on="1"/>
      </contour>
      <contour>
        <pt x="387" y="524" on="1"/>
        <pt x="413" y="602" on="0"/>
        <pt x="467" y="762" on="0"/>
        <pt x="517" y="915" on="0"/>
        <pt x="563" y="1055" on="0"/>
        <pt x="582" y="1114" on="1"/>
        <pt x="503" y="961" on="0"/>
        <pt x="321" y="661" on="0"/>
        <pt x="227" y="518" on="1"/>
      </contour>
    </TTGlyph>
    <TTGlyph name="Aring" xMin="-315" yMin="-7" xMax="909" yMax="1866">
      <component glyphName="A" x="0" y="0" flags="0x204"/>
      <component glyphName="ring" x="92" y="604" flags="0x4"/>
    </TTGlyph>
    <TTGlyph name="Atilde" xMin="-315" yMin="-7" xMax="997" yMax="1665">
      <component glyphName="A" x="0" y="0" flags="0x204"/>
      <component glyphName="tilde" x="172" y="604" flags="0x4"/>
    </TTGlyph>
    <TTGlyph name="B" xMin="31" yMin="-20" xMax="930" yMax="1386">
      <contour>
        <pt x="838" y="1386" on="1"/>
        <pt x="861" y="1386" on="0"/>
        <pt x="895" y="1344" on="0"/>
        <pt x="918" y="1287" on="0"/>
        <pt x="930" y="1228" on="0"/>
        <pt x="930" y="1212" on="1"/>
        <pt x="930" y="1147" on="0"/>
        <pt x="903" y="1040" on="0"/>
        <pt x="860" y="953" on="0"/>
        <pt x="806" y="886" on="0"/>
        <pt x="752" y="835" on="0"/>
        <pt x="704" y="799" on="0"/>
        <pt x="688" y="788" on="1"/>
        <pt x="700" y="776" on="0"/>
        <pt x="739" y="718" on="0"/>
        <pt x="775" y="633" on="0"/>
        <pt x="801" y="521" on="0"/>
        <pt x="801" y="455" on="1"/>
        <pt x="801" y="407" on="0"/>
        <pt x="768" y="299" on="0"/>
        <pt x="707" y="193" on="0"/>
        <pt x="618" y="97" on="0"/>
        <pt x="506" y="24" on="0"/>
        <pt x="371" y="-20" on="0"/>
        <pt x="295" y="-20" on="1"/>
        <pt x="240" y="-20" on="0"/>
        <pt x="147" y="-14" on="0"/>
        <pt x="112" y="-10" on="1"/>
        <pt x="72" y="-6" on="0"/>
        <pt x="37" y="0" on="1"/>
        <pt x="31" y="10" on="1"/>
        <pt x="42" y="32" on="0"/>
        <pt x="91" y="159" on="0"/>
        <pt x="155" y="338" on="0"/>
        <pt x="230" y="554" on="0"/>
        <pt x="305" y="777" on="0"/>
        <pt x="375" y="991" on="0"/>
        <pt x="430" y="1167" on="0"/>
        <pt x="465" y="1287" on="0"/>
        <pt x="467" y="1305" on="1"/>
        <pt x="467" y="1310" on="0"/>
        <pt x="464" y="1320" on="0"/>
        <pt x="461" y="1323" on="1"/>
        <pt x="429" y="1320" on="0"/>
        <pt x="366" y="1310" on="0"/>
        <pt x="340" y="1300" on="1"/>
        <pt x="327" y="1295" on="0"/>
        <pt x="297" y="1272" on="0"/>
        <pt x="271" y="1238" on="0"/>
        <pt x="254" y="1197" on="0"/>
        <pt x="254" y="1176" on="1"/>
        <pt x="254" y="1163" on="0"/>
        <pt x="258" y="1124" on="0"/>
        <pt x="264" y="1104" on="1"/>
        <pt x="252" y="1092" on="1"/>
        <pt x="201" y="1129" on="0"/>
        <pt x="141" y="1210" on="0"/>
        <pt x="141" y="1245" on="1"/>
        <pt x="141" y="1265" on="0"/>
        <pt x="168" y="1313" on="0"/>
        <pt x="208" y="1354" on="0"/>
        <pt x="254" y="1382" on="0"/>
        <pt x="272" y="1382" on="1"/>
        <pt x="333" y="1382" on="0"/>
        <pt x="464" y="1372" on="0"/>
        <pt x="547" y="1372" on="1"/>
        <pt x="565" y="1372" on="0"/>
        <pt x="593" y="1372" on="0"/>
        <pt x="619" y="1373" on="0"/>
        <pt x="646" y="1374" on="0"/>
        <pt x="664" y="1376" on="1"/>
        <pt x="670" y="1366" on="1"/>
        <pt x="657" y="1335" on="0"/>
        <pt x="604" y="1184" on="0"/>
        <pt x="569" y="1077" on="1"/>
        <pt x="605" y="1132" on="0"/>
        <pt x="684" y="1242" on="0"/>
        <pt x="757" y="1330" on="0"/>
        <pt x="818" y="1386" on="0"/>
      </contour>
      <contour>
        <pt x="236" y="63" on="1"/>
        <pt x="257" y="51" on="0"/>
        <pt x="302" y="41" on="0"/>
        <pt x="322" y="41" on="1"/>
        <pt x="379" y="41" on="0"/>
        <pt x="490" y="86" on="0"/>
        <pt x="577" y="171" on="0"/>
        <pt x="631" y="296" on="0"/>
        <pt x="631" y="377" on="1"/>
        <pt x="631" y="503" on="0"/>
        <pt x="557" y="664" on="0"/>
        <pt x="502" y="705" on="1"/>
        <pt x="498" y="721" on="1"/>
        <pt x="513" y="729" on="0"/>
        <pt x="569" y="756" on="0"/>
        <pt x="634" y="798" on="0"/>
        <pt x="702" y="857" on="0"/>
        <pt x="758" y="939" on="0"/>
        <pt x="793" y="1044" on="0"/>
        <pt x="793" y="1112" on="1"/>
        <pt x="793" y="1118" on="0"/>
        <pt x="790" y="1158" on="0"/>
        <pt x="783" y="1201" on="0"/>
        <pt x="769" y="1235" on="0"/>
        <pt x="758" y="1235" on="1"/>
        <pt x="753" y="1235" on="0"/>
        <pt x="726" y="1207" on="0"/>
        <pt x="688" y="1160" on="0"/>
        <pt x="641" y="1099" on="0"/>
        <pt x="592" y="1032" on="0"/>
        <pt x="543" y="964" on="0"/>
        <pt x="522" y="934" on="1"/>
      </contour>
    </TTGlyph>
    <TTGlyph name="C" xMin="-41" yMin="-20" xMax="784" yMax="1397">
      <contour>
        <pt x="557" y="383" on="1"/>
        <pt x="512" y="291" on="0"/>
        <pt x="413" y="143" on="0"/>
        <pt x="304" y="37" on="0"/>
        <pt x="186" y="-20" on="0"/>
        <pt x="123" y="-20" on="1"/>
        <pt x="94" y="-20" on="0"/>
        <pt x="35" y="15" on="0"/>
        <pt x="-12" y="80" on="0"/>
        <pt x="-41" y="171" on="0"/>
        <pt x="-41" y="227" on="1"/>
        <pt x="-41" y="278" on="0"/>
        <pt x="-13" y="417" on="0"/>
        <pt x="30" y="570" on="0"/>
        <pt x="81" y="724" on="0"/>
        <pt x="128" y="854" on="0"/>
        <pt x="164" y="947" on="0"/>
        <pt x="170" y="963" on="1"/>
        <pt x="194" y="1025" on="0"/>
        <pt x="272" y="1137" on="0"/>
        <pt x="366" y="1234" on="0"/>
        <pt x="469" y="1312" on="0"/>
        <pt x="569" y="1367" on="0"/>
        <pt x="660" y="1397" on="0"/>
        <pt x="694" y="1397" on="1"/>
        <pt x="721" y="1397" on="0"/>
        <pt x="756" y="1369" on="0"/>
        <pt x="776" y="1323" on="0"/>
        <pt x="784" y="1263" on="0"/>
        <pt x="784" y="1231" on="1"/>
        <pt x="784" y="1186" on="0"/>
        <pt x="732" y="1103" on="0"/>
        <pt x="663" y="1038" on="0"/>
        <pt x="595" y="995" on="0"/>
        <pt x="580" y="989" on="1"/>
        <pt x="573" y="1006" on="1"/>
        <pt x="588" y="1025" on="0"/>
        <pt x="611" y="1073" on="0"/>
        <pt x="628" y="1125" on="0"/>
        <pt x="637" y="1179" on="0"/>
        <pt x="637" y="1204" on="1"/>
        <pt x="638" y="1221" on="0"/>
        <pt x="633" y="1253" on="0"/>
        <pt x="623" y="1279" on="0"/>
        <pt x="606" y="1294" on="0"/>
        <pt x="594" y="1294" on="1"/>
        <pt x="557" y="1294" on="0"/>
        <pt x="478" y="1213" on="0"/>
        <pt x="401" y="1077" on="0"/>
        <pt x="327" y="901" on="0"/>
        <pt x="261" y="711" on="0"/>
        <pt x="205" y="521" on="0"/>
        <pt x="164" y="357" on="0"/>
        <pt x="140" y="233" on="0"/>
        <pt x="139" y="205" on="1"/>
        <pt x="139" y="188" on="0"/>
        <pt x="149" y="150" on="0"/>
        <pt x="167" y="117" on="0"/>
        <pt x="192" y="96" on="0"/>
        <pt x="207" y="96" on="1"/>
        <pt x="238" y="96" on="0"/>
        <pt x="312" y="134" on="0"/>
        <pt x="393" y="210" on="0"/>
        <pt x="477" y="326" on="0"/>
        <pt x="518" y="403" on="1"/>
      </contour>
    </TTGlyph>
    <TTGlyph name="Cacute" xMin="-41" yMin="-20" xMax="967" yMax="1812">
      <component glyphName="C" x="0" y="0" flags="0x204"/>
      <component glyphName="acute" x="172" y="604" flags="0x4"/>
    </TTGlyph>
    <TTGlyph name="Ccaron" xMin="-41" yMin="-20" xMax="1040" yMax="1804">
      <component glyphName="C" x="0" y="0" flags="0x204"/>
      <component glyphName="caron" x="137" y="604" flags="0x4"/>
    </TTGlyph>
    <TTGlyph name="Ccedilla" xMin="-135" yMin="-408" xMax="784" yMax="1397">
      <contour>
        <pt x="-115" y="-336" on="1"/>
        <pt x="-96" y="-345" on="0"/>
        <pt x="-45" y="-358" on="0"/>
        <pt x="-8" y="-358" on="1"/>
        <pt x="20" y="-358" on="0"/>
        <pt x="80" y="-342" on="0"/>
        <pt x="131" y="-311" on="0"/>
        <pt x="164" y="-262" on="0"/>
        <pt x="164" y="-229" on="1"/>
        <pt x="164" y="-195" on="0"/>
        <pt x="112" y="-156" on="0"/>
        <pt x="70" y="-156" on="1"/>
        <pt x="62" y="-156" on="0"/>
        <pt x="41" y="-156" on="0"/>
        <pt x="29" y="-158" on="1"/>
        <pt x="100" y="-16" on="1"/>
        <pt x="73" y="-11" on="0"/>
        <pt x="23" y="28" on="0"/>
        <pt x="-17" y="91" on="0"/>
        <pt x="-41" y="176" on="0"/>
        <pt x="-41" y="227" on="1"/>
        <pt x="-41" y="278" on="0"/>
        <pt x="-13" y="417" on="0"/>
        <pt x="30" y="570" on="0"/>
        <pt x="81" y="724" on="0"/>
        <pt x="128" y="854" on="0"/>
        <pt x="164" y="947" on="0"/>
        <pt x="170" y="963" on="1"/>
        <pt x="194" y="1025" on="0"/>
        <pt x="272" y="1137" on="0"/>
        <pt x="366" y="1234" on="0"/>
        <pt x="469" y="1312" on="0"/>
        <pt x="569" y="1367" on="0"/>
        <pt x="660" y="1397" on="0"/>
        <pt x="694" y="1397" on="1"/>
        <pt x="721" y="1397" on="0"/>
        <pt x="756" y="1369" on="0"/>
        <pt x="776" y="1323" on="0"/>
        <pt x="784" y="1263" on="0"/>
        <pt x="784" y="1231" on="1"/>
        <pt x="784" y="1186" on="0"/>
        <pt x="732" y="1103" on="0"/>
        <pt x="663" y="1038" on="0"/>
        <pt x="595" y="995" on="0"/>
        <pt x="580" y="989" on="1"/>
        <pt x="573" y="1006" on="1"/>
        <pt x="588" y="1025" on="0"/>
        <pt x="611" y="1073" on="0"/>
        <pt x="628" y="1125" on="0"/>
        <pt x="637" y="1179" on="0"/>
        <pt x="637" y="1204" on="1"/>
        <pt x="638" y="1221" on="0"/>
        <pt x="633" y="1253" on="0"/>
        <pt x="623" y="1279" on="0"/>
        <pt x="606" y="1294" on="0"/>
        <pt x="594" y="1294" on="1"/>
        <pt x="557" y="1294" on="0"/>
        <pt x="478" y="1213" on="0"/>
        <pt x="401" y="1077" on="0"/>
        <pt x="327" y="901" on="0"/>
        <pt x="261" y="711" on="0"/>
        <pt x="205" y="521" on="0"/>
        <pt x="164" y="357" on="0"/>
        <pt x="140" y="233" on="0"/>
        <pt x="139" y="205" on="1"/>
        <pt x="139" y="188" on="0"/>
        <pt x="149" y="150" on="0"/>
        <pt x="167" y="117" on="0"/>
        <pt x="192" y="96" on="0"/>
        <pt x="207" y="96" on="1"/>
        <pt x="238" y="96" on="0"/>
        <pt x="312" y="134" on="0"/>
        <pt x="393" y="210" on="0"/>
        <pt x="477" y="326" on="0"/>
        <pt x="518" y="403" on="1"/>
        <pt x="557" y="383" on="1"/>
        <pt x="515" y="297" on="0"/>
        <pt x="421" y="155" on="0"/>
        <pt x="319" y="51" on="0"/>
        <pt x="210" y="-11" on="0"/>
        <pt x="152" y="-18" on="1"/>
        <pt x="106" y="-113" on="1"/>
        <pt x="117" y="-111" on="0"/>
        <pt x="138" y="-111" on="0"/>
        <pt x="147" y="-111" on="1"/>
        <pt x="220" y="-111" on="0"/>
        <pt x="285" y="-174" on="0"/>
        <pt x="285" y="-223" on="1"/>
        <pt x="285" y="-270" on="0"/>
        <pt x="234" y="-339" on="0"/>
        <pt x="153" y="-385" on="0"/>
        <pt x="54" y="-408" on="0"/>
        <pt x="6" y="-408" on="1"/>
        <pt x="-78" y="-408" on="0"/>
        <pt x="-135" y="-379" on="1"/>
      </contour>
    </TTGlyph>
    <TTGlyph name="Ccircumflex" xMin="-41" yMin="-20" xMax="940" yMax="1804">
      <component glyphName="C" x="0" y="0" flags="0x204"/>
      <component glyphName="circumflex" x="121" y="604" flags="0x4"/>
    </TTGlyph>
    <TTGlyph name="Cdotaccent" xMin="-41" yMin="-20" xMax="795" yMax="1661">
      <component glyphName="C" x="0" y="0" flags="0x204"/>
      <component glyphName="dotaccent" x="115" y="604" flags="0x4"/>
    </TTGlyph>
    <TTGlyph name="D" xMin="49" yMin="-20" xMax="989" yMax="1386">
      <contour>
        <pt x="688" y="1366" on="1"/>
        <pt x="676" y="1335" on="0"/>
        <pt x="623" y="1182" on="0"/>
        <pt x="588" y="1075" on="1"/>
        <pt x="625" y="1130" on="0"/>
        <pt x="706" y="1241" on="0"/>
        <pt x="783" y="1330" on="0"/>
        <pt x="852" y="1386" on="0"/>
        <pt x="877" y="1386" on="1"/>
        <pt x="900" y="1386" on="0"/>
        <pt x="941" y="1360" on="0"/>
        <pt x="971" y="1303" on="0"/>
        <pt x="989" y="1214" on="0"/>
        <pt x="989" y="1151" on="1"/>
        <pt x="989" y="1102" on="0"/>
        <pt x="971" y="950" on="0"/>
        <pt x="933" y="767" on="0"/>
        <pt x="875" y="566" on="0"/>
        <pt x="796" y="370" on="0"/>
        <pt x="694" y="194" on="0"/>
        <pt x="569" y="59" on="0"/>
        <pt x="420" y="-20" on="0"/>
        <pt x="332" y="-20" on="1"/>
        <pt x="235" y="-20" on="0"/>
        <pt x="89" y="-3" on="0"/>
        <pt x="55" y="0" on="1"/>
        <pt x="49" y="10" on="1"/>
        <pt x="61" y="32" on="0"/>
        <pt x="109" y="159" on="0"/>
        <pt x="174" y="338" on="0"/>
        <pt x="248" y="554" on="0"/>
        <pt x="323" y="777" on="0"/>
        <pt x="393" y="991" on="0"/>
        <pt x="448" y="1167" on="0"/>
        <pt x="483" y="1287" on="0"/>
        <pt x="485" y="1305" on="1"/>
        <pt x="485" y="1316" on="0"/>
        <pt x="479" y="1325" on="1"/>
        <pt x="441" y="1322" on="0"/>
        <pt x="369" y="1310" on="0"/>
        <pt x="340" y="1300" on="1"/>
        <pt x="327" y="1295" on="0"/>
        <pt x="297" y="1272" on="0"/>
        <pt x="271" y="1238" on="0"/>
        <pt x="254" y="1197" on="0"/>
        <pt x="254" y="1176" on="1"/>
        <pt x="254" y="1163" on="0"/>
        <pt x="258" y="1124" on="0"/>
        <pt x="264" y="1104" on="1"/>
        <pt x="252" y="1092" on="1"/>
        <pt x="201" y="1129" on="0"/>
        <pt x="141" y="1210" on="0"/>
        <pt x="141" y="1245" on="1"/>
        <pt x="141" y="1265" on="0"/>
        <pt x="168" y="1313" on="0"/>
        <pt x="208" y="1354" on="0"/>
        <pt x="254" y="1382" on="0"/>
        <pt x="272" y="1382" on="1"/>
        <pt x="334" y="1382" on="0"/>
        <pt x="482" y="1372" on="0"/>
        <pt x="565" y="1372" on="1"/>
        <pt x="583" y="1372" on="0"/>
        <pt x="611" y="1372" on="0"/>
        <pt x="637" y="1373" on="0"/>
        <pt x="664" y="1374" on="0"/>
        <pt x="682" y="1376" on="1"/>
        <pt x="684" y="1372" on="1"/>
      </contour>
      <contour>
        <pt x="360" y="41" on="1"/>
        <pt x="406" y="41" on="0"/>
        <pt x="495" y="111" on="0"/>
        <pt x="576" y="230" on="0"/>
        <pt x="648" y="387" on="0"/>
        <pt x="709" y="563" on="0"/>
        <pt x="758" y="746" on="0"/>
        <pt x="793" y="916" on="0"/>
        <pt x="811" y="1061" on="0"/>
        <pt x="811" y="1112" on="1"/>
        <pt x="811" y="1118" on="0"/>
        <pt x="809" y="1158" on="0"/>
        <pt x="801" y="1201" on="0"/>
        <pt x="788" y="1235" on="0"/>
        <pt x="776" y="1235" on="1"/>
        <pt x="771" y="1235" on="0"/>
        <pt x="744" y="1207" on="0"/>
        <pt x="706" y="1160" on="0"/>
        <pt x="660" y="1099" on="0"/>
        <pt x="611" y="1032" on="0"/>
        <pt x="562" y="964" on="0"/>
        <pt x="541" y="934" on="1"/>
        <pt x="254" y="61" on="1"/>
        <pt x="276" y="52" on="0"/>
        <pt x="326" y="41" on="0"/>
      </contour>
    </TTGlyph>
    <TTGlyph name="Dcaron" xMin="49" yMin="-20" xMax="1087" yMax="1804">
      <component glyphName="D" x="0" y="0" flags="0x204"/>
      <component glyphName="caron" x="184" y="604" flags="0x4"/>
    </TTGlyph>
    <TTGlyph name="Dcroat" xMin="49" yMin="-20" xMax="989" yMax="1386">
      <component glyphName="Eth" x="0" y="0" flags="0x204"/>
    </TTGlyph>
    <TTGlyph name="E" xMin="-57" yMin="-25" xMax="688" yMax="1393">
      <contour>
        <pt x="469" y="795" on="1"/>
        <pt x="413" y="754" on="0"/>
        <pt x="313" y="648" on="0"/>
        <pt x="228" y="535" on="0"/>
        <pt x="160" y="419" on="0"/>
        <pt x="112" y="314" on="0"/>
        <pt x="86" y="227" on="0"/>
        <pt x="86" y="199" on="1"/>
        <pt x="86" y="161" on="0"/>
        <pt x="101" y="118" on="0"/>
        <pt x="121" y="96" on="0"/>
        <pt x="142" y="90" on="0"/>
        <pt x="147" y="90" on="1"/>
        <pt x="172" y="90" on="0"/>
        <pt x="226" y="145" on="0"/>
        <pt x="277" y="227" on="0"/>
        <pt x="321" y="321" on="0"/>
        <pt x="336" y="360" on="1"/>
        <pt x="338" y="360" on="1"/>
        <pt x="362" y="338" on="0"/>
        <pt x="409" y="288" on="0"/>
        <pt x="428" y="265" on="1"/>
        <pt x="450" y="239" on="0"/>
        <pt x="469" y="213" on="1"/>
        <pt x="453" y="181" on="0"/>
        <pt x="405" y="115" on="0"/>
        <pt x="348" y="54" on="0"/>
        <pt x="285" y="3" on="0"/>
        <pt x="254" y="-12" on="1"/>
        <pt x="237" y="-20" on="0"/>
        <pt x="220" y="-25" on="0"/>
        <pt x="205" y="-25" on="1"/>
        <pt x="196" y="-25" on="0"/>
        <pt x="175" y="-16" on="0"/>
        <pt x="164" y="-10" on="1"/>
        <pt x="137" y="5" on="0"/>
        <pt x="61" y="61" on="0"/>
        <pt x="-8" y="139" on="0"/>
        <pt x="-57" y="239" on="0"/>
        <pt x="-57" y="299" on="1"/>
        <pt x="-57" y="355" on="0"/>
        <pt x="3" y="496" on="0"/>
        <pt x="97" y="644" on="0"/>
        <pt x="210" y="787" on="0"/>
        <pt x="264" y="846" on="1"/>
        <pt x="229" y="881" on="0"/>
        <pt x="180" y="956" on="0"/>
        <pt x="180" y="993" on="1"/>
        <pt x="180" y="1037" on="0"/>
        <pt x="212" y="1114" on="0"/>
        <pt x="265" y="1182" on="0"/>
        <pt x="334" y="1243" on="0"/>
        <pt x="371" y="1272" on="1"/>
        <pt x="395" y="1291" on="0"/>
        <pt x="457" y="1334" on="0"/>
        <pt x="521" y="1370" on="0"/>
        <pt x="584" y="1393" on="0"/>
        <pt x="610" y="1393" on="1"/>
        <pt x="627" y="1393" on="0"/>
        <pt x="655" y="1378" on="0"/>
        <pt x="676" y="1341" on="0"/>
        <pt x="688" y="1276" on="0"/>
        <pt x="688" y="1225" on="1"/>
        <pt x="688" y="1202" on="0"/>
        <pt x="673" y="1159" on="0"/>
        <pt x="649" y="1118" on="0"/>
        <pt x="619" y="1081" on="0"/>
        <pt x="603" y="1065" on="1"/>
        <pt x="565" y="1027" on="0"/>
        <pt x="518" y="995" on="1"/>
        <pt x="508" y="1012" on="1"/>
        <pt x="514" y="1019" on="0"/>
        <pt x="528" y="1050" on="0"/>
        <pt x="539" y="1091" on="0"/>
        <pt x="547" y="1140" on="0"/>
        <pt x="547" y="1165" on="1"/>
        <pt x="547" y="1215" on="0"/>
        <pt x="511" y="1262" on="0"/>
        <pt x="483" y="1262" on="1"/>
        <pt x="463" y="1262" on="0"/>
        <pt x="413" y="1225" on="0"/>
        <pt x="370" y="1162" on="0"/>
        <pt x="340" y="1076" on="0"/>
        <pt x="340" y="1028" on="1"/>
        <pt x="340" y="1009" on="0"/>
        <pt x="350" y="950" on="0"/>
        <pt x="379" y="889" on="0"/>
        <pt x="430" y="833" on="0"/>
        <pt x="471" y="817" on="1"/>
      </contour>
    </TTGlyph>
    <TTGlyph name="Eacute" xMin="-57" yMin="-25" xMax="912" yMax="1812">
      <component glyphName="E" x="0" y="0" flags="0x204"/>
      <component glyphName="acute" x="117" y="604" flags="0x4"/>
    </TTGlyph>
    <TTGlyph name="Ebreve" xMin="-57" yMin="-25" xMax="963" yMax="1775">
      <component glyphName="E" x="0" y="0" flags="0x204"/>
      <component glyphName="breve" x="80" y="604" flags="0x4"/>
    </TTGlyph>
    <TTGlyph name="Ecaron" xMin="-57" yMin="-25" xMax="985" yMax="1804">
      <component glyphName="E" x="0" y="0" flags="0x204"/>
      <component glyphName="caron" x="82" y="604" flags="0x4"/>
    </TTGlyph>
    <TTGlyph name="Ecircumflex" xMin="-57" yMin="-25" xMax="885" yMax="1804">
      <component glyphName="E" x="0" y="0" flags="0x204"/>
      <component glyphName="circumflex" x="66" y="604" flags="0x4"/>
    </TTGlyph>
    <TTGlyph name="Edieresis" xMin="-57" yMin="-25" xMax="883" yMax="1694">
      <component glyphName="E" x="0" y="0" flags="0x204"/>
      <component glyphName="dieresis" x="68" y="604" flags="0x4"/>
    </TTGlyph>
    <TTGlyph name="Edotaccent" xMin="-57" yMin="-25" xMax="739" yMax="1661">
      <component glyphName="E" x="0" y="0" flags="0x204"/>
      <component glyphName="dotaccent" x="59" y="604" flags="0x4"/>
    </TTGlyph>
    <TTGlyph name="Egrave" xMin="-57" yMin="-25" xMax="715" yMax="1816">
      <component glyphName="E" x="0" y="0" flags="0x204"/>
      <component glyphName="grave" x="119" y="604" flags="0x4"/>
    </TTGlyph>
    <TTGlyph name="Emacron" xMin="-57" yMin="-25" xMax="899" yMax="1626">
      <component glyphName="E" x="0" y="0" flags="0x204"/>
      <component glyphName="macron" x="59" y="604" flags="0x4"/>
    </TTGlyph>
    <TTGlyph name="Eng" xMin="-176" yMin="-377" xMax="877" yMax="1372">
      <contour>
        <pt x="494" y="477" on="1"/>
        <pt x="519" y="552" on="0"/>
        <pt x="575" y="722" on="0"/>
        <pt x="629" y="892" on="0"/>
        <pt x="678" y="1054" on="0"/>
        <pt x="715" y="1189" on="0"/>
        <pt x="737" y="1288" on="0"/>
        <pt x="737" y="1311" on="1"/>
        <pt x="737" y="1328" on="0"/>
        <pt x="727" y="1335" on="1"/>
        <pt x="727" y="1348" on="1"/>
        <pt x="744" y="1353" on="0"/>
        <pt x="784" y="1361" on="0"/>
        <pt x="823" y="1367" on="0"/>
        <pt x="859" y="1371" on="0"/>
        <pt x="872" y="1372" on="1"/>
        <pt x="877" y="1366" on="1"/>
        <pt x="869" y="1345" on="0"/>
        <pt x="831" y="1241" on="0"/>
        <pt x="779" y="1095" on="0"/>
        <pt x="716" y="916" on="0"/>
        <pt x="649" y="725" on="0"/>
        <pt x="582" y="533" on="0"/>
        <pt x="553" y="446" on="1"/>
        <pt x="352" y="-145" on="1"/>
        <pt x="340" y="-180" on="0"/>
        <pt x="292" y="-242" on="0"/>
        <pt x="233" y="-293" on="0"/>
        <pt x="169" y="-334" on="0"/>
        <pt x="113" y="-362" on="0"/>
        <pt x="73" y="-377" on="0"/>
        <pt x="68" y="-377" on="1"/>
        <pt x="63" y="-377" on="0"/>
        <pt x="47" y="-376" on="0"/>
        <pt x="29" y="-374" on="0"/>
        <pt x="12" y="-370" on="0"/>
        <pt x="8" y="-367" on="1"/>
        <pt x="-3" y="-361" on="0"/>
        <pt x="-30" y="-329" on="0"/>
        <pt x="-58" y="-286" on="0"/>
        <pt x="-83" y="-237" on="0"/>
        <pt x="-90" y="-213" on="1"/>
        <pt x="51" y="-113" on="1"/>
        <pt x="66" y="-161" on="0"/>
        <pt x="84" y="-198" on="1"/>
        <pt x="92" y="-214" on="0"/>
        <pt x="110" y="-245" on="0"/>
        <pt x="131" y="-269" on="0"/>
        <pt x="154" y="-283" on="0"/>
        <pt x="166" y="-283" on="1"/>
        <pt x="178" y="-283" on="0"/>
        <pt x="210" y="-255" on="0"/>
        <pt x="241" y="-215" on="0"/>
        <pt x="267" y="-170" on="0"/>
        <pt x="274" y="-152" on="1"/>
        <pt x="279" y="-86" on="0"/>
        <pt x="285" y="100" on="0"/>
        <pt x="288" y="318" on="0"/>
        <pt x="290" y="556" on="0"/>
        <pt x="290" y="791" on="0"/>
        <pt x="290" y="1014" on="0"/>
        <pt x="291" y="1108" on="1"/>
        <pt x="246" y="960" on="0"/>
        <pt x="158" y="662" on="0"/>
        <pt x="75" y="378" on="0"/>
        <pt x="-1" y="114" on="0"/>
        <pt x="-35" y="0" on="1"/>
        <pt x="-50" y="-2" on="0"/>
        <pt x="-70" y="-3" on="1"/>
        <pt x="-87" y="-4" on="0"/>
        <pt x="-140" y="-3" on="0"/>
        <pt x="-176" y="0" on="1"/>
        <pt x="-174" y="14" on="1"/>
        <pt x="-169" y="14" on="0"/>
        <pt x="-153" y="31" on="0"/>
        <pt x="-145" y="45" on="1"/>
        <pt x="-118" y="101" on="0"/>
        <pt x="-52" y="266" on="0"/>
        <pt x="20" y="467" on="0"/>
        <pt x="98" y="695" on="0"/>
        <pt x="177" y="933" on="0"/>
        <pt x="255" y="1173" on="0"/>
        <pt x="293" y="1286" on="1"/>
        <pt x="293" y="1305" on="1"/>
        <pt x="293" y="1322" on="0"/>
        <pt x="283" y="1329" on="1"/>
        <pt x="283" y="1341" on="1"/>
        <pt x="310" y="1349" on="0"/>
        <pt x="351" y="1360" on="0"/>
        <pt x="394" y="1367" on="0"/>
        <pt x="444" y="1371" on="0"/>
        <pt x="479" y="1372" on="1"/>
        <pt x="483" y="1366" on="1"/>
        <pt x="476" y="1270" on="0"/>
        <pt x="467" y="1033" on="0"/>
        <pt x="461" y="771" on="0"/>
        <pt x="456" y="496" on="0"/>
        <pt x="455" y="362" on="1"/>
        <pt x="494" y="477" on="1"/>
      </contour>
    </TTGlyph>
    <TTGlyph name="Eogonek" xMin="-57" yMin="-365" xMax="688" yMax="1393">
      <contour>
        <pt x="373" y="-295" on="1"/>
        <pt x="323" y="-324" on="0"/>
        <pt x="195" y="-365" on="0"/>
        <pt x="123" y="-365" on="1"/>
        <pt x="92" y="-365" on="0"/>
        <pt x="33" y="-353" on="0"/>
        <pt x="-14" y="-325" on="0"/>
        <pt x="-43" y="-280" on="0"/>
        <pt x="-43" y="-248" on="1"/>
        <pt x="-43" y="-209" on="0"/>
        <pt x="-3" y="-141" on="0"/>
        <pt x="61" y="-83" on="0"/>
        <pt x="138" y="-36" on="0"/>
        <pt x="176" y="-16" on="1"/>
        <pt x="135" y="5" on="0"/>
        <pt x="52" y="69" on="0"/>
        <pt x="-15" y="150" on="0"/>
        <pt x="-57" y="246" on="0"/>
        <pt x="-57" y="299" on="1"/>
        <pt x="-57" y="355" on="0"/>
        <pt x="3" y="496" on="0"/>
        <pt x="97" y="644" on="0"/>
        <pt x="210" y="787" on="0"/>
        <pt x="264" y="846" on="1"/>
        <pt x="229" y="881" on="0"/>
        <pt x="180" y="956" on="0"/>
        <pt x="180" y="993" on="1"/>
        <pt x="180" y="1037" on="0"/>
        <pt x="212" y="1114" on="0"/>
        <pt x="265" y="1182" on="0"/>
        <pt x="334" y="1243" on="0"/>
        <pt x="371" y="1272" on="1"/>
        <pt x="395" y="1291" on="0"/>
        <pt x="457" y="1334" on="0"/>
        <pt x="521" y="1370" on="0"/>
        <pt x="584" y="1393" on="0"/>
        <pt x="610" y="1393" on="1"/>
        <pt x="627" y="1393" on="0"/>
        <pt x="655" y="1378" on="0"/>
        <pt x="676" y="1341" on="0"/>
        <pt x="688" y="1276" on="0"/>
        <pt x="688" y="1225" on="1"/>
        <pt x="688" y="1202" on="0"/>
        <pt x="673" y="1159" on="0"/>
        <pt x="649" y="1118" on="0"/>
        <pt x="619" y="1081" on="0"/>
        <pt x="603" y="1065" on="1"/>
        <pt x="565" y="1027" on="0"/>
        <pt x="518" y="995" on="1"/>
        <pt x="508" y="1012" on="1"/>
        <pt x="514" y="1019" on="0"/>
        <pt x="528" y="1050" on="0"/>
        <pt x="539" y="1091" on="0"/>
        <pt x="547" y="1140" on="0"/>
        <pt x="547" y="1165" on="1"/>
        <pt x="547" y="1215" on="0"/>
        <pt x="511" y="1262" on="0"/>
        <pt x="483" y="1262" on="1"/>
        <pt x="463" y="1262" on="0"/>
        <pt x="413" y="1225" on="0"/>
        <pt x="370" y="1162" on="0"/>
        <pt x="340" y="1076" on="0"/>
        <pt x="340" y="1028" on="1"/>
        <pt x="340" y="1009" on="0"/>
        <pt x="350" y="950" on="0"/>
        <pt x="379" y="889" on="0"/>
        <pt x="430" y="833" on="0"/>
        <pt x="471" y="817" on="1"/>
        <pt x="469" y="795" on="1"/>
        <pt x="413" y="754" on="0"/>
        <pt x="313" y="648" on="0"/>
        <pt x="228" y="535" on="0"/>
        <pt x="160" y="419" on="0"/>
        <pt x="112" y="314" on="0"/>
        <pt x="86" y="227" on="0"/>
        <pt x="86" y="199" on="1"/>
        <pt x="86" y="161" on="0"/>
        <pt x="101" y="118" on="0"/>
        <pt x="121" y="96" on="0"/>
        <pt x="142" y="90" on="0"/>
        <pt x="147" y="90" on="1"/>
        <pt x="172" y="90" on="0"/>
        <pt x="226" y="145" on="0"/>
        <pt x="277" y="227" on="0"/>
        <pt x="321" y="321" on="0"/>
        <pt x="336" y="360" on="1"/>
        <pt x="338" y="360" on="1"/>
        <pt x="362" y="338" on="0"/>
        <pt x="409" y="288" on="0"/>
        <pt x="428" y="265" on="1"/>
        <pt x="450" y="239" on="0"/>
        <pt x="469" y="213" on="1"/>
        <pt x="453" y="181" on="0"/>
        <pt x="406" y="117" on="0"/>
        <pt x="350" y="57" on="0"/>
        <pt x="287" y="6" on="0"/>
        <pt x="254" y="-12" on="1"/>
        <pt x="225" y="-27" on="0"/>
        <pt x="167" y="-70" on="0"/>
        <pt x="120" y="-123" on="0"/>
        <pt x="90" y="-188" on="0"/>
        <pt x="90" y="-225" on="1"/>
        <pt x="90" y="-263" on="0"/>
        <pt x="142" y="-305" on="0"/>
        <pt x="195" y="-305" on="1"/>
        <pt x="218" y="-305" on="0"/>
        <pt x="264" y="-295" on="0"/>
        <pt x="307" y="-281" on="0"/>
        <pt x="344" y="-264" on="0"/>
        <pt x="358" y="-256" on="1"/>
      </contour>
    </TTGlyph>
    <TTGlyph name="Eth" xMin="49" yMin="-20" xMax="989" yMax="1386">
      <contour>
        <pt x="279" y="647" on="1"/>
        <pt x="317" y="761" on="0"/>
        <pt x="389" y="981" on="0"/>
        <pt x="446" y="1161" on="0"/>
        <pt x="483" y="1286" on="0"/>
        <pt x="485" y="1305" on="1"/>
        <pt x="485" y="1316" on="0"/>
        <pt x="479" y="1325" on="1"/>
        <pt x="441" y="1322" on="0"/>
        <pt x="369" y="1310" on="0"/>
        <pt x="340" y="1300" on="1"/>
        <pt x="327" y="1295" on="0"/>
        <pt x="297" y="1272" on="0"/>
        <pt x="271" y="1238" on="0"/>
        <pt x="254" y="1197" on="0"/>
        <pt x="254" y="1176" on="1"/>
        <pt x="254" y="1163" on="0"/>
        <pt x="258" y="1124" on="0"/>
        <pt x="264" y="1104" on="1"/>
        <pt x="252" y="1092" on="1"/>
        <pt x="201" y="1129" on="0"/>
        <pt x="141" y="1210" on="0"/>
        <pt x="141" y="1245" on="1"/>
        <pt x="141" y="1265" on="0"/>
        <pt x="168" y="1313" on="0"/>
        <pt x="208" y="1354" on="0"/>
        <pt x="254" y="1382" on="0"/>
        <pt x="272" y="1382" on="1"/>
        <pt x="334" y="1382" on="0"/>
        <pt x="482" y="1372" on="0"/>
        <pt x="565" y="1372" on="1"/>
        <pt x="583" y="1372" on="0"/>
        <pt x="611" y="1372" on="0"/>
        <pt x="637" y="1373" on="0"/>
        <pt x="664" y="1374" on="0"/>
        <pt x="682" y="1376" on="1"/>
        <pt x="684" y="1372" on="1"/>
        <pt x="688" y="1366" on="1"/>
        <pt x="676" y="1335" on="0"/>
        <pt x="623" y="1182" on="0"/>
        <pt x="588" y="1075" on="1"/>
        <pt x="625" y="1130" on="0"/>
        <pt x="706" y="1241" on="0"/>
        <pt x="783" y="1330" on="0"/>
        <pt x="852" y="1386" on="0"/>
        <pt x="877" y="1386" on="1"/>
        <pt x="900" y="1386" on="0"/>
        <pt x="941" y="1360" on="0"/>
        <pt x="971" y="1303" on="0"/>
        <pt x="989" y="1214" on="0"/>
        <pt x="989" y="1151" on="1"/>
        <pt x="989" y="1102" on="0"/>
        <pt x="971" y="950" on="0"/>
        <pt x="933" y="767" on="0"/>
        <pt x="875" y="566" on="0"/>
        <pt x="796" y="370" on="0"/>
        <pt x="694" y="194" on="0"/>
        <pt x="569" y="59" on="0"/>
        <pt x="420" y="-20" on="0"/>
        <pt x="332" y="-20" on="1"/>
        <pt x="235" y="-20" on="0"/>
        <pt x="89" y="-3" on="0"/>
        <pt x="55" y="0" on="1"/>
        <pt x="49" y="10" on="1"/>
        <pt x="60" y="30" on="0"/>
        <pt x="103" y="142" on="0"/>
        <pt x="160" y="301" on="0"/>
        <pt x="227" y="495" on="0"/>
        <pt x="262" y="598" on="1"/>
        <pt x="104" y="598" on="1"/>
        <pt x="121" y="647" on="1"/>
      </contour>
      <contour>
        <pt x="360" y="41" on="1"/>
        <pt x="406" y="41" on="0"/>
        <pt x="495" y="111" on="0"/>
        <pt x="576" y="230" on="0"/>
        <pt x="648" y="387" on="0"/>
        <pt x="709" y="563" on="0"/>
        <pt x="758" y="746" on="0"/>
        <pt x="793" y="916" on="0"/>
        <pt x="811" y="1061" on="0"/>
        <pt x="811" y="1112" on="1"/>
        <pt x="811" y="1118" on="0"/>
        <pt x="809" y="1158" on="0"/>
        <pt x="801" y="1201" on="0"/>
        <pt x="788" y="1235" on="0"/>
        <pt x="776" y="1235" on="1"/>
        <pt x="771" y="1235" on="0"/>
        <pt x="744" y="1207" on="0"/>
        <pt x="706" y="1160" on="0"/>
        <pt x="660" y="1099" on="0"/>
        <pt x="611" y="1032" on="0"/>
        <pt x="562" y="964" on="0"/>
        <pt x="541" y="934" on="1"/>
        <pt x="446" y="649" on="1"/>
        <pt x="616" y="651" on="1"/>
        <pt x="598" y="598" on="1"/>
        <pt x="430" y="598" on="1"/>
        <pt x="254" y="61" on="1"/>
        <pt x="276" y="52" on="0"/>
        <pt x="326" y="41" on="0"/>
      </contour>
    </TTGlyph>
    <TTGlyph name="Euro" xMin="-51" yMin="-20" xMax="592" yMax="1024">
      <contour>
        <pt x="86" y="606" on="1"/>
        <pt x="98" y="640" on="0"/>
        <pt x="116" y="687" on="0"/>
        <pt x="121" y="696" on="1"/>
        <pt x="149" y="765" on="0"/>
        <pt x="253" y="884" on="0"/>
        <pt x="372" y="973" on="0"/>
        <pt x="486" y="1024" on="0"/>
        <pt x="524" y="1024" on="1"/>
        <pt x="544" y="1024" on="0"/>
        <pt x="571" y="1003" on="0"/>
        <pt x="586" y="969" on="0"/>
        <pt x="592" y="924" on="0"/>
        <pt x="592" y="899" on="1"/>
        <pt x="592" y="867" on="0"/>
        <pt x="551" y="806" on="0"/>
        <pt x="497" y="757" on="0"/>
        <pt x="444" y="725" on="0"/>
        <pt x="432" y="721" on="1"/>
        <pt x="424" y="735" on="1"/>
        <pt x="446" y="764" on="0"/>
        <pt x="471" y="849" on="0"/>
        <pt x="471" y="889" on="1"/>
        <pt x="473" y="911" on="0"/>
        <pt x="462" y="950" on="0"/>
        <pt x="451" y="950" on="1"/>
        <pt x="426" y="950" on="0"/>
        <pt x="373" y="893" on="0"/>
        <pt x="319" y="798" on="0"/>
        <pt x="266" y="673" on="0"/>
        <pt x="242" y="606" on="1"/>
        <pt x="412" y="606" on="1"/>
        <pt x="395" y="557" on="1"/>
        <pt x="225" y="557" on="1"/>
        <pt x="217" y="537" on="0"/>
        <pt x="205" y="497" on="0"/>
        <pt x="199" y="477" on="1"/>
        <pt x="371" y="477" on="1"/>
        <pt x="354" y="428" on="1"/>
        <pt x="184" y="428" on="1"/>
        <pt x="170" y="380" on="0"/>
        <pt x="148" y="290" on="0"/>
        <pt x="132" y="215" on="0"/>
        <pt x="123" y="160" on="0"/>
        <pt x="123" y="145" on="1"/>
        <pt x="123" y="133" on="0"/>
        <pt x="130" y="105" on="0"/>
        <pt x="143" y="82" on="0"/>
        <pt x="162" y="66" on="0"/>
        <pt x="174" y="66" on="1"/>
        <pt x="225" y="66" on="0"/>
        <pt x="330" y="180" on="0"/>
        <pt x="393" y="295" on="1"/>
        <pt x="424" y="279" on="1"/>
        <pt x="391" y="211" on="0"/>
        <pt x="319" y="101" on="0"/>
        <pt x="241" y="23" on="0"/>
        <pt x="155" y="-20" on="0"/>
        <pt x="109" y="-20" on="1"/>
        <pt x="87" y="-20" on="0"/>
        <pt x="39" y="12" on="0"/>
        <pt x="-1" y="63" on="0"/>
        <pt x="-27" y="129" on="0"/>
        <pt x="-27" y="164" on="1"/>
        <pt x="-27" y="212" on="0"/>
        <pt x="5" y="354" on="0"/>
        <pt x="27" y="428" on="1"/>
        <pt x="-51" y="428" on="1"/>
        <pt x="-35" y="477" on="1"/>
        <pt x="43" y="477" on="1"/>
        <pt x="49" y="499" on="0"/>
        <pt x="62" y="537" on="0"/>
        <pt x="70" y="557" on="1"/>
        <pt x="-31" y="557" on="1"/>
        <pt x="-14" y="606" on="1"/>
      </contour>
    </TTGlyph>
    <TTGlyph name="F" xMin="-84" yMin="-45" xMax="729" yMax="1382">
      <contour>
        <pt x="-84" y="-18" on="1"/>
        <pt x="-63" y="-8" on="0"/>
        <pt x="10" y="29" on="0"/>
        <pt x="94" y="105" on="0"/>
        <pt x="180" y="232" on="0"/>
        <pt x="215" y="332" on="1"/>
        <pt x="224" y="359" on="0"/>
        <pt x="260" y="460" on="0"/>
        <pt x="306" y="592" on="0"/>
        <pt x="359" y="745" on="0"/>
        <pt x="385" y="823" on="1"/>
        <pt x="174" y="821" on="1"/>
        <pt x="190" y="870" on="1"/>
        <pt x="401" y="874" on="1"/>
        <pt x="426" y="947" on="0"/>
        <pt x="471" y="1084" on="0"/>
        <pt x="505" y="1196" on="0"/>
        <pt x="528" y="1277" on="0"/>
        <pt x="530" y="1294" on="1"/>
        <pt x="530" y="1302" on="0"/>
        <pt x="519" y="1326" on="0"/>
        <pt x="514" y="1329" on="1"/>
        <pt x="465" y="1326" on="0"/>
        <pt x="380" y="1314" on="0"/>
        <pt x="340" y="1300" on="1"/>
        <pt x="327" y="1295" on="0"/>
        <pt x="297" y="1272" on="0"/>
        <pt x="271" y="1238" on="0"/>
        <pt x="254" y="1197" on="0"/>
        <pt x="254" y="1176" on="1"/>
        <pt x="254" y="1163" on="0"/>
        <pt x="258" y="1124" on="0"/>
        <pt x="264" y="1104" on="1"/>
        <pt x="252" y="1092" on="1"/>
        <pt x="201" y="1129" on="0"/>
        <pt x="141" y="1210" on="0"/>
        <pt x="141" y="1245" on="1"/>
        <pt x="141" y="1265" on="0"/>
        <pt x="168" y="1313" on="0"/>
        <pt x="208" y="1354" on="0"/>
        <pt x="254" y="1382" on="0"/>
        <pt x="272" y="1382" on="1"/>
        <pt x="333" y="1382" on="0"/>
        <pt x="462" y="1372" on="0"/>
        <pt x="545" y="1372" on="1"/>
        <pt x="563" y="1372" on="0"/>
        <pt x="610" y="1373" on="0"/>
        <pt x="659" y="1376" on="0"/>
        <pt x="705" y="1378" on="0"/>
        <pt x="723" y="1380" on="1"/>
        <pt x="729" y="1352" on="1"/>
        <pt x="719" y="1326" on="0"/>
        <pt x="686" y="1231" on="0"/>
        <pt x="644" y="1106" on="0"/>
        <pt x="595" y="958" on="0"/>
        <pt x="569" y="879" on="1"/>
        <pt x="686" y="881" on="1"/>
        <pt x="668" y="827" on="1"/>
        <pt x="553" y="825" on="1"/>
        <pt x="381" y="303" on="1"/>
        <pt x="356" y="230" on="0"/>
        <pt x="277" y="123" on="0"/>
        <pt x="184" y="48" on="0"/>
        <pt x="86" y="0" on="0"/>
        <pt x="1" y="-29" on="0"/>
        <pt x="-63" y="-42" on="0"/>
        <pt x="-76" y="-45" on="1"/>
      </contour>
    </TTGlyph>
    <TTGlyph name="G" xMin="-41" yMin="-451" xMax="797" yMax="1397">
      <contour>
        <pt x="467" y="500" on="1"/>
        <pt x="467" y="524" on="0"/>
        <pt x="454" y="540" on="0"/>
        <pt x="449" y="543" on="1"/>
        <pt x="449" y="555" on="1"/>
        <pt x="476" y="564" on="0"/>
        <pt x="523" y="578" on="0"/>
        <pt x="572" y="588" on="0"/>
        <pt x="628" y="593" on="0"/>
        <pt x="664" y="594" on="1"/>
        <pt x="668" y="588" on="1"/>
        <pt x="648" y="537" on="0"/>
        <pt x="606" y="418" on="0"/>
        <pt x="555" y="270" on="0"/>
        <pt x="493" y="88" on="0"/>
        <pt x="455" y="-27" on="1"/>
        <pt x="429" y="-103" on="0"/>
        <pt x="353" y="-219" on="0"/>
        <pt x="264" y="-306" on="0"/>
        <pt x="170" y="-368" on="0"/>
        <pt x="84" y="-411" on="0"/>
        <pt x="11" y="-440" on="0"/>
        <pt x="-12" y="-451" on="1"/>
        <pt x="-25" y="-424" on="1"/>
        <pt x="14" y="-403" on="0"/>
        <pt x="93" y="-356" on="0"/>
        <pt x="170" y="-279" on="0"/>
        <pt x="242" y="-160" on="0"/>
        <pt x="274" y="-68" on="1"/>
        <pt x="284" y="-39" on="0"/>
        <pt x="313" y="37" on="0"/>
        <pt x="330" y="82" on="1"/>
        <pt x="277" y="34" on="0"/>
        <pt x="172" y="-20" on="0"/>
        <pt x="123" y="-20" on="1"/>
        <pt x="94" y="-20" on="0"/>
        <pt x="35" y="15" on="0"/>
        <pt x="-12" y="80" on="0"/>
        <pt x="-41" y="171" on="0"/>
        <pt x="-41" y="227" on="1"/>
        <pt x="-41" y="278" on="0"/>
        <pt x="-13" y="417" on="0"/>
        <pt x="30" y="570" on="0"/>
        <pt x="81" y="724" on="0"/>
        <pt x="128" y="854" on="0"/>
        <pt x="164" y="947" on="0"/>
        <pt x="170" y="963" on="1"/>
        <pt x="194" y="1025" on="0"/>
        <pt x="272" y="1137" on="0"/>
        <pt x="367" y="1234" on="0"/>
        <pt x="470" y="1312" on="0"/>
        <pt x="571" y="1367" on="0"/>
        <pt x="662" y="1397" on="0"/>
        <pt x="696" y="1397" on="1"/>
        <pt x="723" y="1397" on="0"/>
        <pt x="761" y="1369" on="0"/>
        <pt x="786" y="1323" on="0"/>
        <pt x="797" y="1263" on="0"/>
        <pt x="797" y="1231" on="1"/>
        <pt x="797" y="1201" on="0"/>
        <pt x="772" y="1143" on="0"/>
        <pt x="734" y="1092" on="0"/>
        <pt x="686" y="1048" on="0"/>
        <pt x="641" y="1015" on="0"/>
        <pt x="602" y="993" on="0"/>
        <pt x="592" y="989" on="1"/>
        <pt x="586" y="1006" on="1"/>
        <pt x="601" y="1025" on="0"/>
        <pt x="624" y="1073" on="0"/>
        <pt x="640" y="1125" on="0"/>
        <pt x="649" y="1179" on="0"/>
        <pt x="649" y="1204" on="1"/>
        <pt x="650" y="1221" on="0"/>
        <pt x="642" y="1253" on="0"/>
        <pt x="628" y="1279" on="0"/>
        <pt x="608" y="1294" on="0"/>
        <pt x="596" y="1294" on="1"/>
        <pt x="559" y="1294" on="0"/>
        <pt x="480" y="1215" on="0"/>
        <pt x="401" y="1082" on="0"/>
        <pt x="326" y="908" on="0"/>
        <pt x="258" y="719" on="0"/>
        <pt x="201" y="527" on="0"/>
        <pt x="160" y="358" on="0"/>
        <pt x="137" y="224" on="0"/>
        <pt x="137" y="188" on="1"/>
        <pt x="137" y="171" on="0"/>
        <pt x="147" y="133" on="0"/>
        <pt x="165" y="101" on="0"/>
        <pt x="190" y="80" on="0"/>
        <pt x="205" y="80" on="1"/>
        <pt x="237" y="80" on="0"/>
        <pt x="320" y="129" on="0"/>
        <pt x="365" y="178" on="1"/>
        <pt x="384" y="232" on="0"/>
        <pt x="421" y="337" on="0"/>
        <pt x="449" y="425" on="0"/>
        <pt x="467" y="488" on="0"/>
      </contour>
    </TTGlyph>
    <TTGlyph name="Gbreve" xMin="-41" yMin="-451" xMax="1022" yMax="1775">
      <component glyphName="G" x="0" y="0" flags="0x204"/>
      <component glyphName="breve" x="139" y="604" flags="0x4"/>
    </TTGlyph>
    <TTGlyph name="Gcircumflex" xMin="-41" yMin="-451" xMax="944" yMax="1804">
      <component glyphName="G" x="0" y="0" flags="0x204"/>
      <component glyphName="circumflex" x="125" y="604" flags="0x4"/>
    </TTGlyph>
    <TTGlyph name="Gcommaaccent" xMin="-218" yMin="-451" xMax="797" yMax="1397">
      <component glyphName="G" x="0" y="0" flags="0x204"/>
      <component glyphName="commaaccent" x="-327" y="61" flags="0x4"/>
    </TTGlyph>
    <TTGlyph name="Gdotaccent" xMin="-41" yMin="-451" xMax="799" yMax="1661">
      <component glyphName="G" x="0" y="0" flags="0x204"/>
      <component glyphName="dotaccent" x="119" y="604" flags="0x4"/>
    </TTGlyph>
    <TTGlyph name="H" xMin="-150" yMin="-6" xMax="899" yMax="1372">
      <contour>
        <pt x="899" y="1366" on="1"/>
        <pt x="889" y="1340" on="0"/>
        <pt x="848" y="1220" on="0"/>
        <pt x="792" y="1054" on="0"/>
        <pt x="725" y="853" on="0"/>
        <pt x="654" y="638" on="0"/>
        <pt x="583" y="421" on="0"/>
        <pt x="518" y="223" on="0"/>
        <pt x="464" y="57" on="0"/>
        <pt x="446" y="0" on="1"/>
        <pt x="434" y="-2" on="0"/>
        <pt x="420" y="-3" on="1"/>
        <pt x="396" y="-6" on="0"/>
        <pt x="354" y="-6" on="1"/>
        <pt x="334" y="-6" on="0"/>
        <pt x="289" y="-3" on="0"/>
        <pt x="266" y="0" on="1"/>
        <pt x="260" y="10" on="1"/>
        <pt x="272" y="32" on="0"/>
        <pt x="321" y="162" on="0"/>
        <pt x="386" y="344" on="0"/>
        <pt x="462" y="563" on="0"/>
        <pt x="500" y="676" on="1"/>
        <pt x="256" y="672" on="1"/>
        <pt x="223" y="573" on="0"/>
        <pt x="158" y="377" on="0"/>
        <pt x="101" y="200" on="0"/>
        <pt x="53" y="51" on="0"/>
        <pt x="37" y="0" on="1"/>
        <pt x="25" y="-2" on="0"/>
        <pt x="11" y="-3" on="1"/>
        <pt x="-1" y="-5" on="0"/>
        <pt x="-35" y="-6" on="0"/>
        <pt x="-55" y="-6" on="1"/>
        <pt x="-98" y="-6" on="0"/>
        <pt x="-143" y="0" on="1"/>
        <pt x="-150" y="10" on="1"/>
        <pt x="-138" y="32" on="0"/>
        <pt x="-90" y="159" on="0"/>
        <pt x="-25" y="338" on="0"/>
        <pt x="49" y="554" on="0"/>
        <pt x="124" y="777" on="0"/>
        <pt x="194" y="991" on="0"/>
        <pt x="250" y="1167" on="0"/>
        <pt x="285" y="1287" on="0"/>
        <pt x="287" y="1305" on="1"/>
        <pt x="287" y="1313" on="0"/>
        <pt x="281" y="1326" on="0"/>
        <pt x="276" y="1329" on="1"/>
        <pt x="276" y="1341" on="1"/>
        <pt x="303" y="1349" on="0"/>
        <pt x="349" y="1360" on="0"/>
        <pt x="396" y="1367" on="0"/>
        <pt x="450" y="1371" on="0"/>
        <pt x="485" y="1372" on="1"/>
        <pt x="489" y="1366" on="1"/>
        <pt x="479" y="1340" on="0"/>
        <pt x="437" y="1217" on="0"/>
        <pt x="379" y="1046" on="0"/>
        <pt x="310" y="840" on="0"/>
        <pt x="274" y="731" on="1"/>
        <pt x="520" y="735" on="1"/>
        <pt x="554" y="837" on="0"/>
        <pt x="615" y="1029" on="0"/>
        <pt x="663" y="1183" on="0"/>
        <pt x="694" y="1289" on="0"/>
        <pt x="696" y="1305" on="1"/>
        <pt x="696" y="1322" on="0"/>
        <pt x="686" y="1329" on="1"/>
        <pt x="686" y="1341" on="1"/>
        <pt x="713" y="1349" on="0"/>
        <pt x="759" y="1360" on="0"/>
        <pt x="806" y="1367" on="0"/>
        <pt x="860" y="1371" on="0"/>
        <pt x="895" y="1372" on="1"/>
        <pt x="899" y="1366" on="1"/>
      </contour>
    </TTGlyph>
    <TTGlyph name="Hbar" xMin="-150" yMin="-6" xMax="899" yMax="1372">
      <contour>
        <pt x="899" y="1366" on="1"/>
        <pt x="891" y="1346" on="0"/>
        <pt x="863" y="1264" on="0"/>
        <pt x="825" y="1149" on="0"/>
        <pt x="778" y="1008" on="0"/>
        <pt x="752" y="930" on="1"/>
        <pt x="866" y="932" on="1"/>
        <pt x="848" y="879" on="1"/>
        <pt x="733" y="879" on="1"/>
        <pt x="693" y="759" on="0"/>
        <pt x="609" y="504" on="0"/>
        <pt x="532" y="267" on="0"/>
        <pt x="467" y="66" on="0"/>
        <pt x="446" y="0" on="1"/>
        <pt x="434" y="-2" on="0"/>
        <pt x="420" y="-3" on="1"/>
        <pt x="396" y="-6" on="0"/>
        <pt x="354" y="-6" on="1"/>
        <pt x="334" y="-6" on="0"/>
        <pt x="289" y="-3" on="0"/>
        <pt x="266" y="0" on="1"/>
        <pt x="260" y="10" on="1"/>
        <pt x="272" y="32" on="0"/>
        <pt x="321" y="162" on="0"/>
        <pt x="386" y="344" on="0"/>
        <pt x="462" y="563" on="0"/>
        <pt x="500" y="676" on="1"/>
        <pt x="256" y="672" on="1"/>
        <pt x="223" y="573" on="0"/>
        <pt x="158" y="377" on="0"/>
        <pt x="101" y="200" on="0"/>
        <pt x="53" y="51" on="0"/>
        <pt x="37" y="0" on="1"/>
        <pt x="25" y="-2" on="0"/>
        <pt x="11" y="-3" on="1"/>
        <pt x="-1" y="-5" on="0"/>
        <pt x="-35" y="-6" on="0"/>
        <pt x="-55" y="-6" on="1"/>
        <pt x="-98" y="-6" on="0"/>
        <pt x="-143" y="0" on="1"/>
        <pt x="-150" y="10" on="1"/>
        <pt x="-140" y="28" on="0"/>
        <pt x="-103" y="122" on="0"/>
        <pt x="-54" y="257" on="0"/>
        <pt x="5" y="423" on="0"/>
        <pt x="67" y="604" on="0"/>
        <pt x="129" y="791" on="0"/>
        <pt x="158" y="879" on="1"/>
        <pt x="61" y="879" on="1"/>
        <pt x="78" y="928" on="1"/>
        <pt x="174" y="928" on="1"/>
        <pt x="197" y="999" on="0"/>
        <pt x="237" y="1126" on="0"/>
        <pt x="267" y="1225" on="0"/>
        <pt x="285" y="1293" on="0"/>
        <pt x="287" y="1305" on="1"/>
        <pt x="287" y="1313" on="0"/>
        <pt x="281" y="1326" on="0"/>
        <pt x="276" y="1329" on="1"/>
        <pt x="276" y="1341" on="1"/>
        <pt x="303" y="1349" on="0"/>
        <pt x="349" y="1360" on="0"/>
        <pt x="396" y="1367" on="0"/>
        <pt x="450" y="1371" on="0"/>
        <pt x="485" y="1372" on="1"/>
        <pt x="489" y="1366" on="1"/>
        <pt x="481" y="1346" on="0"/>
        <pt x="453" y="1264" on="0"/>
        <pt x="414" y="1149" on="0"/>
        <pt x="366" y="1007" on="0"/>
        <pt x="340" y="928" on="1"/>
        <pt x="584" y="930" on="1"/>
        <pt x="607" y="1000" on="0"/>
        <pt x="646" y="1126" on="0"/>
        <pt x="676" y="1225" on="0"/>
        <pt x="694" y="1293" on="0"/>
        <pt x="696" y="1305" on="1"/>
        <pt x="696" y="1322" on="0"/>
        <pt x="686" y="1329" on="1"/>
        <pt x="686" y="1341" on="1"/>
        <pt x="713" y="1349" on="0"/>
        <pt x="759" y="1360" on="0"/>
        <pt x="806" y="1367" on="0"/>
        <pt x="860" y="1371" on="0"/>
        <pt x="895" y="1372" on="1"/>
      </contour>
      <contour>
        <pt x="274" y="731" on="1"/>
        <pt x="520" y="735" on="1"/>
        <pt x="567" y="879" on="1"/>
        <pt x="324" y="879" on="1"/>
      </contour>
    </TTGlyph>
    <TTGlyph name="Hcircumflex" xMin="-150" yMin="-6" xMax="899" yMax="1804">
      <component glyphName="H" x="0" y="0" flags="0x204"/>
      <component glyphName="circumflex" x="43" y="604" flags="0x4"/>
    </TTGlyph>
    <TTGlyph name="I" xMin="-150" yMin="-6" xMax="492" yMax="1372">
      <contour>
        <pt x="492" y="1366" on="1"/>
        <pt x="482" y="1340" on="0"/>
        <pt x="441" y="1220" on="0"/>
        <pt x="384" y="1054" on="0"/>
        <pt x="317" y="853" on="0"/>
        <pt x="245" y="638" on="0"/>
        <pt x="174" y="421" on="0"/>
        <pt x="109" y="223" on="0"/>
        <pt x="55" y="57" on="0"/>
        <pt x="37" y="0" on="1"/>
        <pt x="25" y="-2" on="0"/>
        <pt x="11" y="-3" on="1"/>
        <pt x="-1" y="-5" on="0"/>
        <pt x="-35" y="-6" on="0"/>
        <pt x="-55" y="-6" on="1"/>
        <pt x="-98" y="-6" on="0"/>
        <pt x="-143" y="0" on="1"/>
        <pt x="-150" y="10" on="1"/>
        <pt x="-138" y="32" on="0"/>
        <pt x="-89" y="159" on="0"/>
        <pt x="-25" y="338" on="0"/>
        <pt x="50" y="554" on="0"/>
        <pt x="126" y="777" on="0"/>
        <pt x="196" y="991" on="0"/>
        <pt x="251" y="1167" on="0"/>
        <pt x="287" y="1287" on="0"/>
        <pt x="289" y="1305" on="1"/>
        <pt x="289" y="1322" on="0"/>
        <pt x="279" y="1329" on="1"/>
        <pt x="279" y="1341" on="1"/>
        <pt x="306" y="1349" on="0"/>
        <pt x="351" y="1360" on="0"/>
        <pt x="398" y="1367" on="0"/>
        <pt x="452" y="1371" on="0"/>
        <pt x="487" y="1372" on="1"/>
        <pt x="492" y="1366" on="1"/>
      </contour>
    </TTGlyph>
    <TTGlyph name="IJ" xMin="-150" yMin="-287" xMax="1044" yMax="1384">
      <component glyphName="I" x="0" y="0" flags="0x4"/>
      <component glyphName="J" x="350" y="0" flags="0x4"/>
    </TTGlyph>
    <TTGlyph name="Iacute" xMin="-150" yMin="-6" xMax="710" yMax="1812">
      <component glyphName="I" x="0" y="0" flags="0x204"/>
      <component glyphName="acute" x="-85" y="604" flags="0x4"/>
    </TTGlyph>
    <TTGlyph name="Ibreve" xMin="-150" yMin="-6" xMax="761" yMax="1775">
      <component glyphName="I" x="0" y="0" flags="0x204"/>
      <component glyphName="breve" x="-122" y="604" flags="0x4"/>
    </TTGlyph>
    <TTGlyph name="Icircumflex" xMin="-150" yMin="-6" xMax="683" yMax="1804">
      <component glyphName="I" x="0" y="0" flags="0x204"/>
      <component glyphName="circumflex" x="-136" y="604" flags="0x4"/>
    </TTGlyph>
    <TTGlyph name="Idieresis" xMin="-150" yMin="-6" xMax="681" yMax="1694">
      <component glyphName="I" x="0" y="0" flags="0x204"/>
      <component glyphName="dieresis" x="-134" y="604" flags="0x4"/>
    </TTGlyph>
    <TTGlyph name="Idotaccent" xMin="-150" yMin="-6" xMax="538" yMax="1661">
      <component glyphName="I" x="0" y="0" flags="0x204"/>
      <component glyphName="dotaccent" x="-142" y="604" flags="0x4"/>
    </TTGlyph>
    <TTGlyph name="Igrave" xMin="-150" yMin="-6" xMax="513" yMax="1816">
      <component glyphName="I" x="0" y="0" flags="0x204"/>
      <component glyphName="grave" x="-83" y="604" flags="0x4"/>
    </TTGlyph>
    <TTGlyph name="Imacron" xMin="-150" yMin="-6" xMax="698" yMax="1626">
      <component glyphName="I" x="0" y="0" flags="0x204"/>
      <component glyphName="macron" x="-142" y="604" flags="0x4"/>
    </TTGlyph>
    <TTGlyph name="Iogonek" xMin="-317" yMin="-367" xMax="492" yMax="1372">
      <contour>
        <pt x="98" y="-297" on="1"/>
        <pt x="49" y="-326" on="0"/>
        <pt x="-79" y="-367" on="0"/>
        <pt x="-152" y="-367" on="1"/>
        <pt x="-182" y="-367" on="0"/>
        <pt x="-242" y="-355" on="0"/>
        <pt x="-288" y="-327" on="0"/>
        <pt x="-317" y="-282" on="0"/>
        <pt x="-317" y="-250" on="1"/>
        <pt x="-317" y="-208" on="0"/>
        <pt x="-272" y="-135" on="0"/>
        <pt x="-201" y="-74" on="0"/>
        <pt x="-117" y="-25" on="0"/>
        <pt x="-78" y="-6" on="1"/>
        <pt x="-143" y="0" on="1"/>
        <pt x="-150" y="10" on="1"/>
        <pt x="-138" y="32" on="0"/>
        <pt x="-89" y="159" on="0"/>
        <pt x="-25" y="338" on="0"/>
        <pt x="50" y="554" on="0"/>
        <pt x="126" y="777" on="0"/>
        <pt x="196" y="991" on="0"/>
        <pt x="251" y="1167" on="0"/>
        <pt x="287" y="1287" on="0"/>
        <pt x="289" y="1305" on="1"/>
        <pt x="289" y="1322" on="0"/>
        <pt x="279" y="1329" on="1"/>
        <pt x="279" y="1341" on="1"/>
        <pt x="306" y="1349" on="0"/>
        <pt x="351" y="1360" on="0"/>
        <pt x="398" y="1367" on="0"/>
        <pt x="452" y="1371" on="0"/>
        <pt x="487" y="1372" on="1"/>
        <pt x="492" y="1366" on="1"/>
        <pt x="482" y="1340" on="0"/>
        <pt x="441" y="1220" on="0"/>
        <pt x="384" y="1054" on="0"/>
        <pt x="317" y="853" on="0"/>
        <pt x="245" y="638" on="0"/>
        <pt x="174" y="421" on="0"/>
        <pt x="109" y="223" on="0"/>
        <pt x="55" y="57" on="0"/>
        <pt x="37" y="0" on="1"/>
        <pt x="30" y="0" on="0"/>
        <pt x="23" y="-1" on="1"/>
        <pt x="9" y="-3" on="0"/>
        <pt x="-10" y="-4" on="1"/>
        <pt x="-41" y="-22" on="0"/>
        <pt x="-103" y="-66" on="0"/>
        <pt x="-153" y="-122" on="0"/>
        <pt x="-184" y="-188" on="0"/>
        <pt x="-184" y="-227" on="1"/>
        <pt x="-184" y="-307" on="0"/>
        <pt x="-80" y="-307" on="1"/>
        <pt x="-33" y="-307" on="0"/>
        <pt x="56" y="-274" on="0"/>
        <pt x="84" y="-258" on="1"/>
      </contour>
    </TTGlyph>
    <TTGlyph name="Itilde" xMin="-150" yMin="-6" xMax="717" yMax="1665">
      <component glyphName="I" x="0" y="0" flags="0x204"/>
      <component glyphName="tilde" x="-108" y="604" flags="0x4"/>
    </TTGlyph>
    <TTGlyph name="J" xMin="-309" yMin="-287" xMax="694" yMax="1384">
      <contour>
        <pt x="43" y="-63" on="1"/>
        <pt x="53" y="-36" on="0"/>
        <pt x="101" y="102" on="0"/>
        <pt x="167" y="292" on="0"/>
        <pt x="245" y="519" on="0"/>
        <pt x="324" y="751" on="0"/>
        <pt x="398" y="972" on="0"/>
        <pt x="456" y="1153" on="0"/>
        <pt x="494" y="1276" on="0"/>
        <pt x="496" y="1294" on="1"/>
        <pt x="496" y="1302" on="0"/>
        <pt x="484" y="1326" on="0"/>
        <pt x="479" y="1329" on="1"/>
        <pt x="439" y="1326" on="0"/>
        <pt x="377" y="1312" on="0"/>
        <pt x="340" y="1296" on="1"/>
        <pt x="327" y="1291" on="0"/>
        <pt x="297" y="1271" on="0"/>
        <pt x="271" y="1241" on="0"/>
        <pt x="254" y="1202" on="0"/>
        <pt x="254" y="1178" on="1"/>
        <pt x="254" y="1165" on="0"/>
        <pt x="258" y="1124" on="0"/>
        <pt x="264" y="1104" on="1"/>
        <pt x="252" y="1092" on="1"/>
        <pt x="201" y="1129" on="0"/>
        <pt x="141" y="1210" on="0"/>
        <pt x="141" y="1245" on="1"/>
        <pt x="141" y="1265" on="0"/>
        <pt x="168" y="1313" on="0"/>
        <pt x="208" y="1355" on="0"/>
        <pt x="254" y="1384" on="0"/>
        <pt x="272" y="1384" on="1"/>
        <pt x="303" y="1384" on="0"/>
        <pt x="354" y="1380" on="0"/>
        <pt x="407" y="1376" on="0"/>
        <pt x="468" y="1372" on="0"/>
        <pt x="510" y="1372" on="1"/>
        <pt x="528" y="1372" on="0"/>
        <pt x="575" y="1373" on="0"/>
        <pt x="624" y="1376" on="0"/>
        <pt x="670" y="1378" on="0"/>
        <pt x="688" y="1380" on="1"/>
        <pt x="694" y="1352" on="1"/>
        <pt x="685" y="1326" on="0"/>
        <pt x="643" y="1202" on="0"/>
        <pt x="585" y="1030" on="0"/>
        <pt x="515" y="820" on="0"/>
        <pt x="441" y="597" on="0"/>
        <pt x="366" y="373" on="0"/>
        <pt x="299" y="170" on="0"/>
        <pt x="242" y="1" on="0"/>
        <pt x="223" y="-55" on="1"/>
        <pt x="211" y="-90" on="0"/>
        <pt x="150" y="-152" on="0"/>
        <pt x="70" y="-203" on="0"/>
        <pt x="-17" y="-244" on="0"/>
        <pt x="-93" y="-272" on="0"/>
        <pt x="-146" y="-287" on="0"/>
        <pt x="-152" y="-287" on="1"/>
        <pt x="-157" y="-287" on="0"/>
        <pt x="-173" y="-286" on="0"/>
        <pt x="-190" y="-284" on="0"/>
        <pt x="-207" y="-279" on="0"/>
        <pt x="-211" y="-276" on="1"/>
        <pt x="-222" y="-270" on="0"/>
        <pt x="-250" y="-238" on="0"/>
        <pt x="-277" y="-196" on="0"/>
        <pt x="-302" y="-147" on="0"/>
        <pt x="-309" y="-123" on="1"/>
        <pt x="-168" y="-23" on="1"/>
        <pt x="-153" y="-71" on="0"/>
        <pt x="-135" y="-108" on="1"/>
        <pt x="-127" y="-124" on="0"/>
        <pt x="-109" y="-155" on="0"/>
        <pt x="-88" y="-179" on="0"/>
        <pt x="-65" y="-193" on="0"/>
        <pt x="-53" y="-193" on="1"/>
        <pt x="-40" y="-193" on="0"/>
        <pt x="-11" y="-166" on="0"/>
        <pt x="15" y="-126" on="0"/>
        <pt x="37" y="-81" on="0"/>
      </contour>
    </TTGlyph>
    <TTGlyph name="Jcircumflex" xMin="-309" yMin="-287" xMax="750" yMax="1804">
      <component glyphName="J" x="0" y="0" flags="0x204"/>
      <component glyphName="circumflex" x="-69" y="604" flags="0x4"/>
    </TTGlyph>
    <TTGlyph name="K" xMin="49" yMin="-109" xMax="1030" yMax="1386">
      <contour>
        <pt x="688" y="1366" on="1"/>
        <pt x="678" y="1340" on="0"/>
        <pt x="637" y="1220" on="0"/>
        <pt x="581" y="1054" on="0"/>
        <pt x="514" y="853" on="0"/>
        <pt x="443" y="638" on="0"/>
        <pt x="372" y="421" on="0"/>
        <pt x="308" y="223" on="0"/>
        <pt x="254" y="57" on="0"/>
        <pt x="236" y="0" on="1"/>
        <pt x="224" y="-2" on="0"/>
        <pt x="211" y="-3" on="1"/>
        <pt x="188" y="-6" on="0"/>
        <pt x="150" y="-6" on="1"/>
        <pt x="107" y="-6" on="0"/>
        <pt x="55" y="0" on="1"/>
        <pt x="49" y="10" on="1"/>
        <pt x="61" y="32" on="0"/>
        <pt x="109" y="159" on="0"/>
        <pt x="174" y="338" on="0"/>
        <pt x="248" y="554" on="0"/>
        <pt x="323" y="777" on="0"/>
        <pt x="393" y="991" on="0"/>
        <pt x="448" y="1167" on="0"/>
        <pt x="483" y="1287" on="0"/>
        <pt x="485" y="1305" on="1"/>
        <pt x="485" y="1316" on="0"/>
        <pt x="479" y="1325" on="1"/>
        <pt x="441" y="1322" on="0"/>
        <pt x="369" y="1310" on="0"/>
        <pt x="340" y="1300" on="1"/>
        <pt x="327" y="1295" on="0"/>
        <pt x="297" y="1272" on="0"/>
        <pt x="271" y="1238" on="0"/>
        <pt x="254" y="1197" on="0"/>
        <pt x="254" y="1176" on="1"/>
        <pt x="254" y="1163" on="0"/>
        <pt x="258" y="1124" on="0"/>
        <pt x="264" y="1104" on="1"/>
        <pt x="252" y="1092" on="1"/>
        <pt x="201" y="1129" on="0"/>
        <pt x="141" y="1210" on="0"/>
        <pt x="141" y="1245" on="1"/>
        <pt x="141" y="1265" on="0"/>
        <pt x="168" y="1313" on="0"/>
        <pt x="208" y="1354" on="0"/>
        <pt x="254" y="1382" on="0"/>
        <pt x="272" y="1382" on="1"/>
        <pt x="334" y="1382" on="0"/>
        <pt x="482" y="1372" on="0"/>
        <pt x="565" y="1372" on="1"/>
        <pt x="583" y="1372" on="0"/>
        <pt x="611" y="1372" on="0"/>
        <pt x="637" y="1373" on="0"/>
        <pt x="664" y="1374" on="0"/>
        <pt x="682" y="1376" on="1"/>
      </contour>
      <contour>
        <pt x="862" y="1206" on="1"/>
        <pt x="862" y="1217" on="0"/>
        <pt x="855" y="1246" on="0"/>
        <pt x="843" y="1272" on="0"/>
        <pt x="825" y="1290" on="0"/>
        <pt x="813" y="1290" on="1"/>
        <pt x="794" y="1290" on="0"/>
        <pt x="776" y="1284" on="1"/>
        <pt x="768" y="1300" on="1"/>
        <pt x="795" y="1319" on="0"/>
        <pt x="854" y="1351" on="0"/>
        <pt x="906" y="1374" on="0"/>
        <pt x="944" y="1386" on="0"/>
        <pt x="950" y="1386" on="1"/>
        <pt x="968" y="1386" on="0"/>
        <pt x="998" y="1361" on="0"/>
        <pt x="1019" y="1328" on="0"/>
        <pt x="1030" y="1295" on="0"/>
        <pt x="1030" y="1286" on="1"/>
        <pt x="1030" y="1223" on="0"/>
        <pt x="961" y="1095" on="0"/>
        <pt x="853" y="972" on="0"/>
        <pt x="721" y="857" on="0"/>
        <pt x="657" y="807" on="1"/>
        <pt x="662" y="747" on="0"/>
        <pt x="675" y="596" on="0"/>
        <pt x="695" y="435" on="0"/>
        <pt x="720" y="273" on="0"/>
        <pt x="737" y="203" on="1"/>
        <pt x="756" y="117" on="0"/>
        <pt x="793" y="14" on="0"/>
        <pt x="832" y="-46" on="0"/>
        <pt x="877" y="-74" on="0"/>
        <pt x="905" y="-86" on="1"/>
        <pt x="893" y="-109" on="1"/>
        <pt x="855" y="-107" on="0"/>
        <pt x="765" y="-82" on="0"/>
        <pt x="678" y="-23" on="0"/>
        <pt x="605" y="75" on="0"/>
        <pt x="584" y="150" on="1"/>
        <pt x="566" y="216" on="0"/>
        <pt x="540" y="364" on="0"/>
        <pt x="521" y="519" on="0"/>
        <pt x="505" y="675" on="0"/>
        <pt x="496" y="750" on="1"/>
        <pt x="604" y="826" on="0"/>
        <pt x="745" y="947" on="0"/>
        <pt x="829" y="1053" on="0"/>
        <pt x="862" y="1152" on="0"/>
      </contour>
    </TTGlyph>
    <TTGlyph name="Kcommaaccent" xMin="49" yMin="-431" xMax="1030" yMax="1386">
      <component glyphName="K" x="0" y="0" flags="0x204"/>
      <component glyphName="commaaccent" x="100" y="20" flags="0x4"/>
    </TTGlyph>
    <TTGlyph name="L" xMin="-150" yMin="-20" xMax="670" yMax="1393">
      <contour>
        <pt x="53" y="53" on="1"/>
        <pt x="155" y="56" on="0"/>
        <pt x="284" y="67" on="0"/>
        <pt x="359" y="97" on="0"/>
        <pt x="387" y="153" on="0"/>
        <pt x="387" y="201" on="1"/>
        <pt x="387" y="210" on="0"/>
        <pt x="385" y="230" on="0"/>
        <pt x="383" y="240" on="1"/>
        <pt x="399" y="250" on="1"/>
        <pt x="421" y="235" on="0"/>
        <pt x="456" y="194" on="0"/>
        <pt x="481" y="151" on="0"/>
        <pt x="494" y="109" on="0"/>
        <pt x="494" y="92" on="1"/>
        <pt x="494" y="80" on="0"/>
        <pt x="481" y="42" on="0"/>
        <pt x="454" y="6" on="0"/>
        <pt x="412" y="-20" on="0"/>
        <pt x="383" y="-20" on="1"/>
        <pt x="333" y="-20" on="0"/>
        <pt x="248" y="-14" on="0"/>
        <pt x="164" y="-6" on="0"/>
        <pt x="74" y="0" on="0"/>
        <pt x="20" y="0" on="1"/>
        <pt x="14" y="0" on="0"/>
        <pt x="-24" y="-2" on="0"/>
        <pt x="-72" y="-6" on="0"/>
        <pt x="-121" y="-13" on="0"/>
        <pt x="-139" y="-18" on="1"/>
        <pt x="-150" y="2" on="1"/>
        <pt x="-136" y="25" on="0"/>
        <pt x="-95" y="125" on="0"/>
        <pt x="-45" y="263" on="0"/>
        <pt x="14" y="436" on="0"/>
        <pt x="77" y="628" on="0"/>
        <pt x="144" y="835" on="0"/>
        <pt x="178" y="940" on="1"/>
        <pt x="200" y="1007" on="0"/>
        <pt x="262" y="1112" on="0"/>
        <pt x="327" y="1192" on="0"/>
        <pt x="384" y="1245" on="0"/>
        <pt x="401" y="1260" on="1"/>
        <pt x="424" y="1280" on="0"/>
        <pt x="483" y="1326" on="0"/>
        <pt x="542" y="1366" on="0"/>
        <pt x="595" y="1393" on="0"/>
        <pt x="612" y="1393" on="1"/>
        <pt x="646" y="1393" on="0"/>
        <pt x="670" y="1314" on="0"/>
        <pt x="670" y="1225" on="1"/>
        <pt x="670" y="1185" on="0"/>
        <pt x="623" y="1113" on="0"/>
        <pt x="594" y="1084" on="1"/>
        <pt x="561" y="1051" on="0"/>
        <pt x="518" y="1022" on="1"/>
        <pt x="510" y="1038" on="1"/>
        <pt x="515" y="1045" on="0"/>
        <pt x="527" y="1072" on="0"/>
        <pt x="538" y="1108" on="0"/>
        <pt x="545" y="1150" on="0"/>
        <pt x="545" y="1171" on="1"/>
        <pt x="545" y="1215" on="0"/>
        <pt x="510" y="1262" on="0"/>
        <pt x="485" y="1262" on="1"/>
        <pt x="472" y="1262" on="0"/>
        <pt x="442" y="1220" on="0"/>
        <pt x="411" y="1151" on="0"/>
        <pt x="382" y="1062" on="0"/>
        <pt x="371" y="1014" on="1"/>
        <pt x="367" y="996" on="0"/>
        <pt x="342" y="914" on="0"/>
        <pt x="306" y="799" on="0"/>
        <pt x="260" y="659" on="0"/>
        <pt x="211" y="510" on="0"/>
        <pt x="160" y="357" on="0"/>
        <pt x="112" y="217" on="0"/>
        <pt x="69" y="96" on="0"/>
      </contour>
    </TTGlyph>
    <TTGlyph name="Lacute" xMin="-150" yMin="-20" xMax="889" yMax="1812">
      <component glyphName="L" x="0" y="0" flags="0x204"/>
      <component glyphName="acute" x="94" y="604" flags="0x4"/>
    </TTGlyph>
    <TTGlyph name="Lcaron" xMin="-150" yMin="-20" xMax="950" yMax="1393">
      <component glyphName="L" x="0" y="0" flags="0x4"/>
      <component glyphName="quoteright" x="520" y="2" flags="0x4"/>
    </TTGlyph>
    <TTGlyph name="Lcommaaccent" xMin="-150" yMin="-451" xMax="670" yMax="1393">
      <component glyphName="L" x="0" y="0" flags="0x204"/>
      <component glyphName="commaaccent" x="-206" y="0" flags="0x4"/>
    </TTGlyph>
    <TTGlyph name="Ldot" xMin="-150" yMin="-20" xMax="670" yMax="1393">
      <component glyphName="L" x="0" y="0" flags="0x204"/>
      <component glyphName="periodcentered" x="346" y="102" flags="0x4"/>
    </TTGlyph>
    <TTGlyph name="Lslash" xMin="-150" yMin="-20" xMax="670" yMax="1393">
      <contour>
        <pt x="53" y="53" on="1"/>
        <pt x="155" y="56" on="0"/>
        <pt x="284" y="67" on="0"/>
        <pt x="359" y="97" on="0"/>
        <pt x="387" y="153" on="0"/>
        <pt x="387" y="201" on="1"/>
        <pt x="387" y="210" on="0"/>
        <pt x="385" y="230" on="0"/>
        <pt x="383" y="240" on="1"/>
        <pt x="399" y="250" on="1"/>
        <pt x="421" y="235" on="0"/>
        <pt x="456" y="194" on="0"/>
        <pt x="481" y="151" on="0"/>
        <pt x="494" y="109" on="0"/>
        <pt x="494" y="92" on="1"/>
        <pt x="494" y="80" on="0"/>
        <pt x="481" y="42" on="0"/>
        <pt x="454" y="6" on="0"/>
        <pt x="412" y="-20" on="0"/>
        <pt x="383" y="-20" on="1"/>
        <pt x="333" y="-20" on="0"/>
        <pt x="248" y="-14" on="0"/>
        <pt x="164" y="-6" on="0"/>
        <pt x="74" y="0" on="0"/>
        <pt x="20" y="0" on="1"/>
        <pt x="14" y="0" on="0"/>
        <pt x="-24" y="-2" on="0"/>
        <pt x="-72" y="-6" on="0"/>
        <pt x="-121" y="-13" on="0"/>
        <pt x="-139" y="-18" on="1"/>
        <pt x="-150" y="2" on="1"/>
        <pt x="-137" y="23" on="0"/>
        <pt x="-100" y="113" on="0"/>
        <pt x="-54" y="238" on="0"/>
        <pt x="0" y="394" on="0"/>
        <pt x="29" y="481" on="1"/>
        <pt x="-115" y="434" on="1"/>
        <pt x="-125" y="483" on="1"/>
        <pt x="47" y="541" on="1"/>
        <pt x="79" y="637" on="0"/>
        <pt x="144" y="837" on="0"/>
        <pt x="178" y="940" on="1"/>
        <pt x="200" y="1007" on="0"/>
        <pt x="262" y="1112" on="0"/>
        <pt x="327" y="1192" on="0"/>
        <pt x="384" y="1245" on="0"/>
        <pt x="401" y="1260" on="1"/>
        <pt x="424" y="1280" on="0"/>
        <pt x="483" y="1326" on="0"/>
        <pt x="542" y="1366" on="0"/>
        <pt x="595" y="1393" on="0"/>
        <pt x="612" y="1393" on="1"/>
        <pt x="646" y="1393" on="0"/>
        <pt x="670" y="1314" on="0"/>
        <pt x="670" y="1225" on="1"/>
        <pt x="670" y="1185" on="0"/>
        <pt x="623" y="1113" on="0"/>
        <pt x="594" y="1084" on="1"/>
        <pt x="561" y="1051" on="0"/>
        <pt x="518" y="1022" on="1"/>
        <pt x="510" y="1038" on="1"/>
        <pt x="515" y="1045" on="0"/>
        <pt x="527" y="1072" on="0"/>
        <pt x="538" y="1108" on="0"/>
        <pt x="545" y="1150" on="0"/>
        <pt x="545" y="1171" on="1"/>
        <pt x="545" y="1215" on="0"/>
        <pt x="510" y="1262" on="0"/>
        <pt x="485" y="1262" on="1"/>
        <pt x="472" y="1262" on="0"/>
        <pt x="442" y="1220" on="0"/>
        <pt x="411" y="1151" on="0"/>
        <pt x="382" y="1062" on="0"/>
        <pt x="371" y="1014" on="1"/>
        <pt x="366" y="997" on="0"/>
        <pt x="342" y="919" on="0"/>
        <pt x="309" y="810" on="0"/>
        <pt x="267" y="678" on="0"/>
        <pt x="244" y="606" on="1"/>
        <pt x="412" y="664" on="1"/>
        <pt x="422" y="612" on="1"/>
        <pt x="223" y="547" on="1"/>
        <pt x="200" y="476" on="0"/>
        <pt x="152" y="334" on="0"/>
        <pt x="107" y="204" on="0"/>
        <pt x="68" y="93" on="0"/>
      </contour>
    </TTGlyph>
    <TTGlyph name="M" xMin="-315" yMin="-6" xMax="1249" yMax="1382">
      <contour>
        <pt x="195" y="0" on="1"/>
        <pt x="188" y="10" on="1"/>
        <pt x="198" y="27" on="0"/>
        <pt x="228" y="105" on="0"/>
        <pt x="250" y="162" on="1"/>
        <pt x="270" y="218" on="0"/>
        <pt x="320" y="357" on="0"/>
        <pt x="374" y="513" on="0"/>
        <pt x="430" y="678" on="0"/>
        <pt x="484" y="841" on="0"/>
        <pt x="534" y="994" on="0"/>
        <pt x="555" y="1061" on="1"/>
        <pt x="476" y="910" on="0"/>
        <pt x="293" y="612" on="0"/>
        <pt x="105" y="338" on="0"/>
        <pt x="-76" y="95" on="0"/>
        <pt x="-154" y="0" on="1"/>
        <pt x="-163" y="-1" on="0"/>
        <pt x="-174" y="-2" on="1"/>
        <pt x="-184" y="-3" on="0"/>
        <pt x="-213" y="-4" on="0"/>
        <pt x="-231" y="-4" on="1"/>
        <pt x="-250" y="-4" on="0"/>
        <pt x="-291" y="-2" on="0"/>
        <pt x="-315" y="0" on="1"/>
        <pt x="-313" y="14" on="1"/>
        <pt x="-308" y="14" on="0"/>
        <pt x="-285" y="26" on="0"/>
        <pt x="-274" y="37" on="1"/>
        <pt x="-151" y="163" on="0"/>
        <pt x="99" y="461" on="0"/>
        <pt x="332" y="781" on="0"/>
        <pt x="538" y="1110" on="0"/>
        <pt x="618" y="1268" on="1"/>
        <pt x="627" y="1305" on="1"/>
        <pt x="627" y="1319" on="0"/>
        <pt x="621" y="1325" on="1"/>
        <pt x="594" y="1323" on="0"/>
        <pt x="534" y="1320" on="0"/>
        <pt x="478" y="1314" on="0"/>
        <pt x="429" y="1306" on="0"/>
        <pt x="414" y="1300" on="1"/>
        <pt x="401" y="1295" on="0"/>
        <pt x="371" y="1272" on="0"/>
        <pt x="345" y="1238" on="0"/>
        <pt x="328" y="1197" on="0"/>
        <pt x="328" y="1176" on="1"/>
        <pt x="328" y="1163" on="0"/>
        <pt x="332" y="1124" on="0"/>
        <pt x="338" y="1104" on="1"/>
        <pt x="326" y="1092" on="1"/>
        <pt x="275" y="1129" on="0"/>
        <pt x="215" y="1210" on="0"/>
        <pt x="215" y="1245" on="1"/>
        <pt x="215" y="1265" on="0"/>
        <pt x="242" y="1313" on="0"/>
        <pt x="282" y="1354" on="0"/>
        <pt x="328" y="1382" on="0"/>
        <pt x="346" y="1382" on="1"/>
        <pt x="377" y="1382" on="0"/>
        <pt x="466" y="1379" on="0"/>
        <pt x="565" y="1375" on="0"/>
        <pt x="665" y="1372" on="0"/>
        <pt x="707" y="1372" on="1"/>
        <pt x="725" y="1372" on="0"/>
        <pt x="753" y="1372" on="0"/>
        <pt x="778" y="1373" on="0"/>
        <pt x="805" y="1374" on="0"/>
        <pt x="823" y="1376" on="1"/>
        <pt x="829" y="1366" on="1"/>
        <pt x="821" y="1343" on="0"/>
        <pt x="786" y="1242" on="0"/>
        <pt x="739" y="1103" on="0"/>
        <pt x="681" y="932" on="0"/>
        <pt x="618" y="745" on="0"/>
        <pt x="553" y="550" on="0"/>
        <pt x="522" y="457" on="1"/>
        <pt x="668" y="655" on="0"/>
        <pt x="934" y="1084" on="0"/>
        <pt x="1047" y="1305" on="1"/>
        <pt x="1047" y="1322" on="0"/>
        <pt x="1036" y="1329" on="1"/>
        <pt x="1036" y="1341" on="1"/>
        <pt x="1063" y="1349" on="0"/>
        <pt x="1109" y="1360" on="0"/>
        <pt x="1156" y="1367" on="0"/>
        <pt x="1210" y="1371" on="0"/>
        <pt x="1245" y="1372" on="1"/>
        <pt x="1249" y="1366" on="1"/>
        <pt x="1239" y="1340" on="0"/>
        <pt x="1198" y="1220" on="0"/>
        <pt x="1142" y="1054" on="0"/>
        <pt x="1075" y="853" on="0"/>
        <pt x="1003" y="638" on="0"/>
        <pt x="932" y="421" on="0"/>
        <pt x="867" y="223" on="0"/>
        <pt x="813" y="57" on="0"/>
        <pt x="795" y="0" on="1"/>
        <pt x="783" y="-2" on="0"/>
        <pt x="769" y="-3" on="1"/>
        <pt x="743" y="-6" on="0"/>
        <pt x="702" y="-6" on="1"/>
        <pt x="682" y="-6" on="0"/>
        <pt x="637" y="-3" on="0"/>
        <pt x="614" y="0" on="1"/>
        <pt x="608" y="10" on="1"/>
        <pt x="620" y="32" on="0"/>
        <pt x="671" y="166" on="0"/>
        <pt x="738" y="354" on="0"/>
        <pt x="816" y="579" on="0"/>
        <pt x="894" y="809" on="0"/>
        <pt x="964" y="1026" on="0"/>
        <pt x="991" y="1112" on="1"/>
        <pt x="934" y="999" on="0"/>
        <pt x="805" y="774" on="0"/>
        <pt x="667" y="557" on="0"/>
        <pt x="526" y="353" on="0"/>
        <pt x="459" y="262" on="1"/>
        <pt x="405" y="188" on="0"/>
        <pt x="302" y="57" on="0"/>
        <pt x="256" y="0" on="1"/>
      </contour>
    </TTGlyph>
    <TTGlyph name="N" xMin="-176" yMin="-6" xMax="877" yMax="1372">
      <contour>
        <pt x="877" y="1366" on="1"/>
        <pt x="867" y="1340" on="0"/>
        <pt x="824" y="1220" on="0"/>
        <pt x="765" y="1054" on="0"/>
        <pt x="694" y="853" on="0"/>
        <pt x="619" y="638" on="0"/>
        <pt x="544" y="421" on="0"/>
        <pt x="477" y="223" on="0"/>
        <pt x="421" y="57" on="0"/>
        <pt x="403" y="0" on="1"/>
        <pt x="401" y="0" on="1"/>
        <pt x="390" y="-2" on="0"/>
        <pt x="377" y="-3" on="1"/>
        <pt x="354" y="-6" on="0"/>
        <pt x="315" y="-6" on="1"/>
        <pt x="297" y="-6" on="0"/>
        <pt x="252" y="-3" on="0"/>
        <pt x="229" y="0" on="1"/>
        <pt x="223" y="10" on="1"/>
        <pt x="228" y="72" on="0"/>
        <pt x="239" y="234" on="0"/>
        <pt x="250" y="418" on="0"/>
        <pt x="261" y="617" on="0"/>
        <pt x="272" y="815" on="0"/>
        <pt x="281" y="1007" on="0"/>
        <pt x="285" y="1092" on="1"/>
        <pt x="241" y="946" on="0"/>
        <pt x="155" y="653" on="0"/>
        <pt x="74" y="373" on="0"/>
        <pt x="-1" y="113" on="0"/>
        <pt x="-35" y="0" on="1"/>
        <pt x="-41" y="-1" on="0"/>
        <pt x="-50" y="-2" on="1"/>
        <pt x="-58" y="-3" on="0"/>
        <pt x="-81" y="-4" on="0"/>
        <pt x="-96" y="-4" on="1"/>
        <pt x="-113" y="-4" on="0"/>
        <pt x="-151" y="-2" on="0"/>
        <pt x="-176" y="0" on="1"/>
        <pt x="-174" y="14" on="1"/>
        <pt x="-169" y="14" on="0"/>
        <pt x="-153" y="31" on="0"/>
        <pt x="-145" y="45" on="1"/>
        <pt x="-118" y="101" on="0"/>
        <pt x="-52" y="266" on="0"/>
        <pt x="20" y="467" on="0"/>
        <pt x="98" y="695" on="0"/>
        <pt x="177" y="933" on="0"/>
        <pt x="255" y="1173" on="0"/>
        <pt x="293" y="1286" on="1"/>
        <pt x="293" y="1305" on="1"/>
        <pt x="293" y="1322" on="0"/>
        <pt x="283" y="1329" on="1"/>
        <pt x="283" y="1341" on="1"/>
        <pt x="310" y="1349" on="0"/>
        <pt x="351" y="1360" on="0"/>
        <pt x="394" y="1367" on="0"/>
        <pt x="444" y="1371" on="0"/>
        <pt x="479" y="1372" on="1"/>
        <pt x="483" y="1366" on="1"/>
        <pt x="479" y="1308" on="0"/>
        <pt x="467" y="1150" on="0"/>
        <pt x="454" y="964" on="0"/>
        <pt x="439" y="758" on="0"/>
        <pt x="426" y="546" on="0"/>
        <pt x="414" y="335" on="0"/>
        <pt x="410" y="238" on="1"/>
        <pt x="442" y="324" on="0"/>
        <pt x="515" y="531" on="0"/>
        <pt x="588" y="748" on="0"/>
        <pt x="655" y="961" on="0"/>
        <pt x="706" y="1142" on="0"/>
        <pt x="737" y="1279" on="0"/>
        <pt x="737" y="1311" on="1"/>
        <pt x="737" y="1328" on="0"/>
        <pt x="727" y="1335" on="1"/>
        <pt x="727" y="1348" on="1"/>
        <pt x="744" y="1353" on="0"/>
        <pt x="784" y="1361" on="0"/>
        <pt x="823" y="1367" on="0"/>
        <pt x="859" y="1371" on="0"/>
        <pt x="872" y="1372" on="1"/>
        <pt x="877" y="1366" on="1"/>
      </contour>
    </TTGlyph>
    <TTGlyph name="Nacute" xMin="-176" yMin="-6" xMax="893" yMax="1812">
      <component glyphName="N" x="0" y="0" flags="0x204"/>
      <component glyphName="acute" x="98" y="604" flags="0x4"/>
    </TTGlyph>
    <TTGlyph name="Ncaron" xMin="-176" yMin="-6" xMax="966" yMax="1804">
      <component glyphName="N" x="0" y="0" flags="0x204"/>
      <component glyphName="caron" x="63" y="604" flags="0x4"/>
    </TTGlyph>
    <TTGlyph name="Ncommaaccent" xMin="-176" yMin="-451" xMax="877" yMax="1372">
      <component glyphName="N" x="0" y="0" flags="0x204"/>
      <component glyphName="commaaccent" x="-208" y="0" flags="0x4"/>
    </TTGlyph>
    <TTGlyph name="Ntilde" xMin="-176" yMin="-6" xMax="901" yMax="1665">
      <component glyphName="N" x="0" y="0" flags="0x204"/>
      <component glyphName="tilde" x="76" y="604" flags="0x4"/>
    </TTGlyph>
    <TTGlyph name="O" xMin="-41" yMin="-23" xMax="854" yMax="1395">
      <contour>
        <pt x="657" y="1395" on="1"/>
        <pt x="693" y="1395" on="0"/>
        <pt x="764" y="1363" on="0"/>
        <pt x="820" y="1303" on="0"/>
        <pt x="854" y="1216" on="0"/>
        <pt x="854" y="1161" on="1"/>
        <pt x="854" y="1101" on="0"/>
        <pt x="827" y="950" on="0"/>
        <pt x="785" y="790" on="0"/>
        <pt x="734" y="632" on="0"/>
        <pt x="686" y="501" on="0"/>
        <pt x="649" y="407" on="0"/>
        <pt x="641" y="391" on="1"/>
        <pt x="597" y="297" on="0"/>
        <pt x="496" y="144" on="0"/>
        <pt x="381" y="36" on="0"/>
        <pt x="250" y="-23" on="0"/>
        <pt x="176" y="-23" on="1"/>
        <pt x="140" y="-23" on="0"/>
        <pt x="63" y="10" on="0"/>
        <pt x="0" y="71" on="0"/>
        <pt x="-41" y="159" on="0"/>
        <pt x="-41" y="213" on="1"/>
        <pt x="-41" y="273" on="0"/>
        <pt x="-14" y="424" on="0"/>
        <pt x="28" y="584" on="0"/>
        <pt x="79" y="741" on="0"/>
        <pt x="127" y="871" on="0"/>
        <pt x="164" y="964" on="0"/>
        <pt x="172" y="981" on="1"/>
        <pt x="216" y="1075" on="0"/>
        <pt x="323" y="1228" on="0"/>
        <pt x="446" y="1336" on="0"/>
        <pt x="583" y="1395" on="0"/>
      </contour>
      <contour>
        <pt x="201" y="55" on="1"/>
        <pt x="237" y="55" on="0"/>
        <pt x="317" y="139" on="0"/>
        <pt x="398" y="279" on="0"/>
        <pt x="477" y="462" on="0"/>
        <pt x="548" y="661" on="0"/>
        <pt x="609" y="863" on="0"/>
        <pt x="653" y="1039" on="0"/>
        <pt x="678" y="1178" on="0"/>
        <pt x="678" y="1214" on="1"/>
        <pt x="678" y="1261" on="0"/>
        <pt x="644" y="1313" on="0"/>
        <pt x="612" y="1313" on="1"/>
        <pt x="575" y="1313" on="0"/>
        <pt x="495" y="1229" on="0"/>
        <pt x="414" y="1090" on="0"/>
        <pt x="336" y="907" on="0"/>
        <pt x="264" y="708" on="0"/>
        <pt x="204" y="507" on="0"/>
        <pt x="160" y="332" on="0"/>
        <pt x="135" y="194" on="0"/>
        <pt x="135" y="158" on="1"/>
        <pt x="135" y="110" on="0"/>
        <pt x="167" y="55" on="0"/>
      </contour>
    </TTGlyph>
    <TTGlyph name="OE" xMin="-41" yMin="-25" xMax="1122" yMax="1395">
      <contour>
        <pt x="903" y="795" on="1"/>
        <pt x="847" y="754" on="0"/>
        <pt x="747" y="648" on="0"/>
        <pt x="662" y="535" on="0"/>
        <pt x="594" y="419" on="0"/>
        <pt x="546" y="314" on="0"/>
        <pt x="520" y="227" on="0"/>
        <pt x="520" y="199" on="1"/>
        <pt x="520" y="161" on="0"/>
        <pt x="535" y="118" on="0"/>
        <pt x="556" y="96" on="0"/>
        <pt x="576" y="90" on="0"/>
        <pt x="582" y="90" on="1"/>
        <pt x="606" y="90" on="0"/>
        <pt x="660" y="145" on="0"/>
        <pt x="711" y="227" on="0"/>
        <pt x="755" y="321" on="0"/>
        <pt x="770" y="360" on="1"/>
        <pt x="772" y="360" on="1"/>
        <pt x="797" y="338" on="0"/>
        <pt x="843" y="288" on="0"/>
        <pt x="862" y="265" on="1"/>
        <pt x="883" y="239" on="0"/>
        <pt x="903" y="213" on="1"/>
        <pt x="887" y="181" on="0"/>
        <pt x="839" y="115" on="0"/>
        <pt x="782" y="54" on="0"/>
        <pt x="719" y="3" on="0"/>
        <pt x="688" y="-12" on="1"/>
        <pt x="671" y="-20" on="0"/>
        <pt x="654" y="-25" on="0"/>
        <pt x="639" y="-25" on="1"/>
        <pt x="630" y="-25" on="0"/>
        <pt x="609" y="-16" on="0"/>
        <pt x="598" y="-10" on="1"/>
        <pt x="569" y="5" on="0"/>
        <pt x="490" y="64" on="0"/>
        <pt x="455" y="106" on="1"/>
        <pt x="392" y="41" on="0"/>
        <pt x="261" y="-23" on="0"/>
        <pt x="176" y="-23" on="1"/>
        <pt x="140" y="-23" on="0"/>
        <pt x="63" y="10" on="0"/>
        <pt x="0" y="71" on="0"/>
        <pt x="-41" y="159" on="0"/>
        <pt x="-41" y="213" on="1"/>
        <pt x="-41" y="273" on="0"/>
        <pt x="-14" y="424" on="0"/>
        <pt x="28" y="584" on="0"/>
        <pt x="79" y="741" on="0"/>
        <pt x="127" y="871" on="0"/>
        <pt x="164" y="964" on="0"/>
        <pt x="172" y="981" on="1"/>
        <pt x="216" y="1075" on="0"/>
        <pt x="323" y="1228" on="0"/>
        <pt x="446" y="1336" on="0"/>
        <pt x="583" y="1395" on="0"/>
        <pt x="657" y="1395" on="1"/>
        <pt x="688" y="1395" on="0"/>
        <pt x="735" y="1377" on="0"/>
        <pt x="771" y="1346" on="0"/>
        <pt x="799" y="1302" on="0"/>
        <pt x="811" y="1276" on="1"/>
        <pt x="836" y="1295" on="0"/>
        <pt x="896" y="1336" on="0"/>
        <pt x="958" y="1371" on="0"/>
        <pt x="1019" y="1393" on="0"/>
        <pt x="1044" y="1393" on="1"/>
        <pt x="1061" y="1393" on="0"/>
        <pt x="1090" y="1378" on="0"/>
        <pt x="1111" y="1341" on="0"/>
        <pt x="1122" y="1276" on="0"/>
        <pt x="1122" y="1225" on="1"/>
        <pt x="1122" y="1202" on="0"/>
        <pt x="1107" y="1159" on="0"/>
        <pt x="1083" y="1118" on="0"/>
        <pt x="1053" y="1081" on="0"/>
        <pt x="1037" y="1065" on="1"/>
        <pt x="999" y="1027" on="0"/>
        <pt x="952" y="995" on="1"/>
        <pt x="942" y="1012" on="1"/>
        <pt x="948" y="1019" on="0"/>
        <pt x="962" y="1050" on="0"/>
        <pt x="973" y="1091" on="0"/>
        <pt x="981" y="1140" on="0"/>
        <pt x="981" y="1165" on="1"/>
        <pt x="981" y="1215" on="0"/>
        <pt x="945" y="1262" on="0"/>
        <pt x="918" y="1262" on="1"/>
        <pt x="898" y="1262" on="0"/>
        <pt x="848" y="1225" on="0"/>
        <pt x="804" y="1162" on="0"/>
        <pt x="774" y="1076" on="0"/>
        <pt x="774" y="1028" on="1"/>
        <pt x="774" y="1009" on="0"/>
        <pt x="785" y="950" on="0"/>
        <pt x="813" y="889" on="0"/>
        <pt x="864" y="833" on="0"/>
        <pt x="905" y="817" on="1"/>
      </contour>
      <contour>
        <pt x="201" y="55" on="1"/>
        <pt x="243" y="55" on="0"/>
        <pt x="334" y="162" on="0"/>
        <pt x="381" y="250" on="1"/>
        <pt x="378" y="261" on="0"/>
        <pt x="377" y="285" on="0"/>
        <pt x="377" y="299" on="1"/>
        <pt x="377" y="355" on="0"/>
        <pt x="437" y="496" on="0"/>
        <pt x="531" y="644" on="0"/>
        <pt x="644" y="787" on="0"/>
        <pt x="698" y="846" on="1"/>
        <pt x="663" y="881" on="0"/>
        <pt x="614" y="956" on="0"/>
        <pt x="614" y="993" on="1"/>
        <pt x="614" y="1037" on="0"/>
        <pt x="646" y="1113" on="0"/>
        <pt x="672" y="1147" on="1"/>
        <pt x="679" y="1193" on="0"/>
        <pt x="674" y="1257" on="0"/>
        <pt x="656" y="1296" on="0"/>
        <pt x="627" y="1313" on="0"/>
        <pt x="612" y="1313" on="1"/>
        <pt x="575" y="1313" on="0"/>
        <pt x="495" y="1229" on="0"/>
        <pt x="414" y="1090" on="0"/>
        <pt x="336" y="907" on="0"/>
        <pt x="264" y="708" on="0"/>
        <pt x="204" y="507" on="0"/>
        <pt x="160" y="332" on="0"/>
        <pt x="135" y="194" on="0"/>
        <pt x="135" y="158" on="1"/>
        <pt x="135" y="110" on="0"/>
        <pt x="167" y="55" on="0"/>
      </contour>
    </TTGlyph>
    <TTGlyph name="Oacute" xMin="-41" yMin="-23" xMax="926" yMax="1812">
      <component glyphName="O" x="0" y="0" flags="0x204"/>
      <component glyphName="acute" x="131" y="604" flags="0x4"/>
    </TTGlyph>
    <TTGlyph name="Obreve" xMin="-41" yMin="-23" xMax="977" yMax="1775">
      <component glyphName="O" x="0" y="0" flags="0x204"/>
      <component glyphName="breve" x="94" y="604" flags="0x4"/>
    </TTGlyph>
    <TTGlyph name="Ocircumflex" xMin="-41" yMin="-23" xMax="899" yMax="1804">
      <component glyphName="O" x="0" y="0" flags="0x204"/>
      <component glyphName="circumflex" x="80" y="604" flags="0x4"/>
    </TTGlyph>
    <TTGlyph name="Odieresis" xMin="-41" yMin="-23" xMax="897" yMax="1694">
      <component glyphName="O" x="0" y="0" flags="0x204"/>
      <component glyphName="dieresis" x="82" y="604" flags="0x4"/>
    </TTGlyph>
    <TTGlyph name="Ograve" xMin="-41" yMin="-23" xMax="854" yMax="1816">
      <component glyphName="O" x="0" y="0" flags="0x204"/>
      <component glyphName="grave" x="133" y="604" flags="0x4"/>
    </TTGlyph>
    <TTGlyph name="Ohungarumlaut" xMin="-41" yMin="-23" xMax="1078" yMax="1812">
      <component glyphName="O" x="0" y="0" flags="0x204"/>
      <component glyphName="hungarumlaut" x="160" y="604" flags="0x4"/>
    </TTGlyph>
    <TTGlyph name="Omacron" xMin="-41" yMin="-23" xMax="914" yMax="1626">
      <component glyphName="O" x="0" y="0" flags="0x204"/>
      <component glyphName="macron" x="74" y="604" flags="0x4"/>
    </TTGlyph>
    <TTGlyph name="Oslash" xMin="-100" yMin="-100" xMax="887" yMax="1470">
      <contour>
        <pt x="-4" y="86" on="1"/>
        <pt x="-21" y="112" on="0"/>
        <pt x="-41" y="176" on="0"/>
        <pt x="-41" y="213" on="1"/>
        <pt x="-41" y="273" on="0"/>
        <pt x="-14" y="424" on="0"/>
        <pt x="28" y="584" on="0"/>
        <pt x="79" y="741" on="0"/>
        <pt x="127" y="871" on="0"/>
        <pt x="164" y="964" on="0"/>
        <pt x="172" y="981" on="1"/>
        <pt x="216" y="1075" on="0"/>
        <pt x="323" y="1228" on="0"/>
        <pt x="446" y="1336" on="0"/>
        <pt x="583" y="1395" on="0"/>
        <pt x="657" y="1395" on="1"/>
        <pt x="685" y="1395" on="0"/>
        <pt x="741" y="1374" on="0"/>
        <pt x="766" y="1356" on="1"/>
        <pt x="836" y="1470" on="1"/>
        <pt x="887" y="1438" on="1"/>
        <pt x="809" y="1311" on="1"/>
        <pt x="829" y="1282" on="0"/>
        <pt x="854" y="1206" on="0"/>
        <pt x="854" y="1161" on="1"/>
        <pt x="854" y="1101" on="0"/>
        <pt x="827" y="950" on="0"/>
        <pt x="785" y="790" on="0"/>
        <pt x="734" y="632" on="0"/>
        <pt x="686" y="501" on="0"/>
        <pt x="649" y="407" on="0"/>
        <pt x="641" y="391" on="1"/>
        <pt x="597" y="297" on="0"/>
        <pt x="496" y="144" on="0"/>
        <pt x="381" y="36" on="0"/>
        <pt x="250" y="-23" on="0"/>
        <pt x="176" y="-23" on="1"/>
        <pt x="141" y="-23" on="0"/>
        <pt x="65" y="10" on="0"/>
        <pt x="33" y="39" on="1"/>
        <pt x="-51" y="-100" on="1"/>
        <pt x="-100" y="-70" on="1"/>
      </contour>
      <contour>
        <pt x="201" y="55" on="1"/>
        <pt x="241" y="55" on="0"/>
        <pt x="330" y="157" on="0"/>
        <pt x="420" y="324" on="0"/>
        <pt x="505" y="538" on="0"/>
        <pt x="579" y="761" on="0"/>
        <pt x="638" y="975" on="0"/>
        <pt x="655" y="1059" on="1"/>
        <pt x="139" y="211" on="1"/>
        <pt x="136" y="195" on="0"/>
        <pt x="135" y="169" on="0"/>
        <pt x="135" y="158" on="1"/>
        <pt x="135" y="110" on="0"/>
        <pt x="167" y="55" on="0"/>
      </contour>
      <contour>
        <pt x="612" y="1313" on="1"/>
        <pt x="583" y="1313" on="0"/>
        <pt x="522" y="1261" on="0"/>
        <pt x="459" y="1171" on="0"/>
        <pt x="396" y="1048" on="0"/>
        <pt x="335" y="905" on="0"/>
        <pt x="279" y="749" on="0"/>
        <pt x="229" y="593" on="0"/>
        <pt x="187" y="443" on="0"/>
        <pt x="172" y="377" on="1"/>
        <pt x="678" y="1210" on="1"/>
        <pt x="678" y="1214" on="1"/>
        <pt x="678" y="1261" on="0"/>
        <pt x="644" y="1313" on="0"/>
      </contour>
    </TTGlyph>
    <TTGlyph name="Oslashacute" xMin="-100" yMin="-100" xMax="922" yMax="1812">
      <component glyphName="Oslash" x="0" y="0" flags="0x204"/>
      <component glyphName="acute" x="127" y="604" flags="0x4"/>
    </TTGlyph>
    <TTGlyph name="Otilde" xMin="-41" yMin="-23" xMax="934" yMax="1665">
      <component glyphName="O" x="0" y="0" flags="0x204"/>
      <component glyphName="tilde" x="109" y="604" flags="0x4"/>
    </TTGlyph>
    <TTGlyph name="P" xMin="-150" yMin="-6" xMax="807" yMax="1389">
      <contour>
        <pt x="428" y="1192" on="1"/>
        <pt x="460" y="1226" on="0"/>
        <pt x="532" y="1297" on="0"/>
        <pt x="601" y="1353" on="0"/>
        <pt x="663" y="1389" on="0"/>
        <pt x="684" y="1389" on="1"/>
        <pt x="709" y="1389" on="0"/>
        <pt x="754" y="1350" on="0"/>
        <pt x="788" y="1287" on="0"/>
        <pt x="807" y="1207" on="0"/>
        <pt x="807" y="1167" on="1"/>
        <pt x="807" y="1107" on="0"/>
        <pt x="778" y="960" on="0"/>
        <pt x="720" y="811" on="0"/>
        <pt x="632" y="670" on="0"/>
        <pt x="512" y="560" on="0"/>
        <pt x="360" y="494" on="0"/>
        <pt x="268" y="494" on="1"/>
        <pt x="232" y="494" on="0"/>
        <pt x="199" y="500" on="1"/>
        <pt x="173" y="424" on="0"/>
        <pt x="126" y="279" on="0"/>
        <pt x="85" y="150" on="0"/>
        <pt x="50" y="41" on="0"/>
        <pt x="37" y="0" on="1"/>
        <pt x="25" y="-2" on="0"/>
        <pt x="11" y="-3" on="1"/>
        <pt x="-1" y="-5" on="0"/>
        <pt x="-35" y="-6" on="0"/>
        <pt x="-55" y="-6" on="1"/>
        <pt x="-98" y="-6" on="0"/>
        <pt x="-143" y="0" on="1"/>
        <pt x="-150" y="10" on="1"/>
        <pt x="-138" y="32" on="0"/>
        <pt x="-90" y="159" on="0"/>
        <pt x="-25" y="338" on="0"/>
        <pt x="49" y="554" on="0"/>
        <pt x="124" y="777" on="0"/>
        <pt x="194" y="991" on="0"/>
        <pt x="250" y="1167" on="0"/>
        <pt x="285" y="1287" on="0"/>
        <pt x="287" y="1305" on="1"/>
        <pt x="287" y="1313" on="0"/>
        <pt x="281" y="1326" on="0"/>
        <pt x="276" y="1329" on="1"/>
        <pt x="276" y="1341" on="1"/>
        <pt x="303" y="1349" on="0"/>
        <pt x="349" y="1360" on="0"/>
        <pt x="396" y="1367" on="0"/>
        <pt x="450" y="1371" on="0"/>
        <pt x="485" y="1372" on="1"/>
        <pt x="489" y="1366" on="1"/>
      </contour>
      <contour>
        <pt x="219" y="565" on="1"/>
        <pt x="247" y="547" on="0"/>
        <pt x="289" y="547" on="1"/>
        <pt x="344" y="547" on="0"/>
        <pt x="435" y="599" on="0"/>
        <pt x="507" y="687" on="0"/>
        <pt x="560" y="802" on="0"/>
        <pt x="595" y="930" on="0"/>
        <pt x="612" y="1061" on="0"/>
        <pt x="612" y="1120" on="1"/>
        <pt x="612" y="1126" on="0"/>
        <pt x="610" y="1166" on="0"/>
        <pt x="602" y="1209" on="0"/>
        <pt x="586" y="1243" on="0"/>
        <pt x="573" y="1243" on="1"/>
        <pt x="555" y="1243" on="0"/>
        <pt x="515" y="1218" on="0"/>
        <pt x="470" y="1177" on="0"/>
        <pt x="421" y="1124" on="0"/>
        <pt x="395" y="1096" on="1"/>
      </contour>
    </TTGlyph>
    <TTGlyph name="Q" xMin="-41" yMin="-403" xMax="1020" yMax="1395">
      <contour>
        <pt x="657" y="1395" on="1"/>
        <pt x="693" y="1395" on="0"/>
        <pt x="764" y="1363" on="0"/>
        <pt x="820" y="1303" on="0"/>
        <pt x="854" y="1216" on="0"/>
        <pt x="854" y="1161" on="1"/>
        <pt x="854" y="1101" on="0"/>
        <pt x="827" y="950" on="0"/>
        <pt x="785" y="790" on="0"/>
        <pt x="734" y="632" on="0"/>
        <pt x="686" y="501" on="0"/>
        <pt x="649" y="407" on="0"/>
        <pt x="641" y="391" on="1"/>
        <pt x="588" y="279" on="0"/>
        <pt x="465" y="105" on="0"/>
        <pt x="391" y="51" on="1"/>
        <pt x="420" y="5" on="0"/>
        <pt x="491" y="-93" on="0"/>
        <pt x="576" y="-188" on="0"/>
        <pt x="678" y="-274" on="0"/>
        <pt x="798" y="-339" on="0"/>
        <pt x="938" y="-377" on="0"/>
        <pt x="1020" y="-377" on="1"/>
        <pt x="1012" y="-403" on="1"/>
        <pt x="894" y="-403" on="0"/>
        <pt x="706" y="-370" on="0"/>
        <pt x="556" y="-312" on="0"/>
        <pt x="439" y="-236" on="0"/>
        <pt x="345" y="-150" on="0"/>
        <pt x="270" y="-59" on="0"/>
        <pt x="236" y="-16" on="1"/>
        <pt x="220" y="-19" on="0"/>
        <pt x="192" y="-23" on="0"/>
        <pt x="176" y="-23" on="1"/>
        <pt x="140" y="-23" on="0"/>
        <pt x="63" y="10" on="0"/>
        <pt x="0" y="71" on="0"/>
        <pt x="-41" y="159" on="0"/>
        <pt x="-41" y="213" on="1"/>
        <pt x="-41" y="273" on="0"/>
        <pt x="-14" y="424" on="0"/>
        <pt x="28" y="584" on="0"/>
        <pt x="79" y="741" on="0"/>
        <pt x="127" y="871" on="0"/>
        <pt x="164" y="964" on="0"/>
        <pt x="172" y="981" on="1"/>
        <pt x="216" y="1075" on="0"/>
        <pt x="323" y="1228" on="0"/>
        <pt x="446" y="1336" on="0"/>
        <pt x="583" y="1395" on="0"/>
      </contour>
      <contour>
        <pt x="201" y="55" on="1"/>
        <pt x="237" y="55" on="0"/>
        <pt x="317" y="139" on="0"/>
        <pt x="398" y="279" on="0"/>
        <pt x="477" y="462" on="0"/>
        <pt x="548" y="661" on="0"/>
        <pt x="609" y="863" on="0"/>
        <pt x="653" y="1039" on="0"/>
        <pt x="678" y="1178" on="0"/>
        <pt x="678" y="1214" on="1"/>
        <pt x="678" y="1261" on="0"/>
        <pt x="644" y="1313" on="0"/>
        <pt x="612" y="1313" on="1"/>
        <pt x="575" y="1313" on="0"/>
        <pt x="495" y="1229" on="0"/>
        <pt x="414" y="1090" on="0"/>
        <pt x="336" y="907" on="0"/>
        <pt x="264" y="708" on="0"/>
        <pt x="204" y="507" on="0"/>
        <pt x="160" y="332" on="0"/>
        <pt x="135" y="194" on="0"/>
        <pt x="135" y="158" on="1"/>
        <pt x="135" y="110" on="0"/>
        <pt x="167" y="55" on="0"/>
      </contour>
    </TTGlyph>
    <TTGlyph name="R" xMin="49" yMin="-141" xMax="1001" yMax="1386">
      <contour>
        <pt x="543" y="186" on="1"/>
        <pt x="525" y="252" on="0"/>
        <pt x="501" y="361" on="0"/>
        <pt x="483" y="466" on="0"/>
        <pt x="467" y="576" on="0"/>
        <pt x="457" y="643" on="1"/>
        <pt x="546" y="677" on="0"/>
        <pt x="682" y="763" on="0"/>
        <pt x="774" y="873" on="0"/>
        <pt x="821" y="1012" on="0"/>
        <pt x="821" y="1098" on="1"/>
        <pt x="821" y="1105" on="0"/>
        <pt x="816" y="1153" on="0"/>
        <pt x="805" y="1205" on="0"/>
        <pt x="788" y="1245" on="0"/>
        <pt x="776" y="1245" on="1"/>
        <pt x="764" y="1245" on="0"/>
        <pt x="720" y="1211" on="0"/>
        <pt x="667" y="1160" on="0"/>
        <pt x="610" y="1099" on="0"/>
        <pt x="586" y="1071" on="1"/>
        <pt x="558" y="986" on="0"/>
        <pt x="493" y="792" on="0"/>
        <pt x="427" y="589" on="0"/>
        <pt x="361" y="388" on="0"/>
        <pt x="302" y="206" on="0"/>
        <pt x="253" y="53" on="0"/>
        <pt x="236" y="0" on="1"/>
        <pt x="210" y="-4" on="0"/>
        <pt x="181" y="-5" on="1"/>
        <pt x="156" y="-7" on="0"/>
        <pt x="90" y="-5" on="0"/>
        <pt x="55" y="0" on="1"/>
        <pt x="49" y="10" on="1"/>
        <pt x="61" y="32" on="0"/>
        <pt x="109" y="159" on="0"/>
        <pt x="174" y="338" on="0"/>
        <pt x="248" y="554" on="0"/>
        <pt x="323" y="777" on="0"/>
        <pt x="393" y="991" on="0"/>
        <pt x="448" y="1167" on="0"/>
        <pt x="483" y="1287" on="0"/>
        <pt x="485" y="1305" on="1"/>
        <pt x="485" y="1316" on="0"/>
        <pt x="479" y="1325" on="1"/>
        <pt x="441" y="1322" on="0"/>
        <pt x="369" y="1310" on="0"/>
        <pt x="340" y="1300" on="1"/>
        <pt x="327" y="1295" on="0"/>
        <pt x="297" y="1272" on="0"/>
        <pt x="271" y="1238" on="0"/>
        <pt x="254" y="1197" on="0"/>
        <pt x="254" y="1176" on="1"/>
        <pt x="254" y="1163" on="0"/>
        <pt x="258" y="1124" on="0"/>
        <pt x="264" y="1104" on="1"/>
        <pt x="252" y="1092" on="1"/>
        <pt x="201" y="1129" on="0"/>
        <pt x="141" y="1210" on="0"/>
        <pt x="141" y="1245" on="1"/>
        <pt x="141" y="1265" on="0"/>
        <pt x="168" y="1313" on="0"/>
        <pt x="208" y="1354" on="0"/>
        <pt x="254" y="1382" on="0"/>
        <pt x="272" y="1382" on="1"/>
        <pt x="334" y="1382" on="0"/>
        <pt x="482" y="1372" on="0"/>
        <pt x="565" y="1372" on="1"/>
        <pt x="583" y="1372" on="0"/>
        <pt x="611" y="1372" on="0"/>
        <pt x="637" y="1373" on="0"/>
        <pt x="664" y="1374" on="0"/>
        <pt x="682" y="1376" on="1"/>
        <pt x="688" y="1366" on="1"/>
        <pt x="679" y="1341" on="0"/>
        <pt x="641" y="1233" on="0"/>
        <pt x="616" y="1159" on="1"/>
        <pt x="646" y="1197" on="0"/>
        <pt x="716" y="1277" on="0"/>
        <pt x="785" y="1343" on="0"/>
        <pt x="845" y="1386" on="0"/>
        <pt x="866" y="1386" on="1"/>
        <pt x="889" y="1386" on="0"/>
        <pt x="937" y="1353" on="0"/>
        <pt x="976" y="1298" on="0"/>
        <pt x="1001" y="1224" on="0"/>
        <pt x="1001" y="1184" on="1"/>
        <pt x="1001" y="1078" on="0"/>
        <pt x="941" y="911" on="0"/>
        <pt x="837" y="784" on="0"/>
        <pt x="697" y="691" on="0"/>
        <pt x="616" y="659" on="1"/>
        <pt x="622" y="618" on="0"/>
        <pt x="639" y="519" on="0"/>
        <pt x="659" y="408" on="0"/>
        <pt x="685" y="287" on="0"/>
        <pt x="700" y="225" on="1"/>
        <pt x="722" y="140" on="0"/>
        <pt x="764" y="26" on="0"/>
        <pt x="808" y="-50" on="0"/>
        <pt x="855" y="-97" on="0"/>
        <pt x="881" y="-115" on="1"/>
        <pt x="868" y="-141" on="1"/>
        <pt x="832" y="-135" on="0"/>
        <pt x="740" y="-104" on="0"/>
        <pt x="649" y="-33" on="0"/>
        <pt x="568" y="89" on="0"/>
      </contour>
    </TTGlyph>
    <TTGlyph name="Racute" xMin="49" yMin="-141" xMax="1001" yMax="1812">
      <component glyphName="R" x="0" y="0" flags="0x204"/>
      <component glyphName="acute" x="186" y="604" flags="0x4"/>
    </TTGlyph>
    <TTGlyph name="Rcaron" xMin="49" yMin="-141" xMax="1055" yMax="1804">
      <component glyphName="R" x="0" y="0" flags="0x204"/>
      <component glyphName="caron" x="152" y="604" flags="0x4"/>
    </TTGlyph>
    <TTGlyph name="Rcommaaccent" xMin="49" yMin="-431" xMax="1001" yMax="1386">
      <component glyphName="R" x="0" y="0" flags="0x204"/>
      <component glyphName="commaaccent" x="106" y="20" flags="0x4"/>
    </TTGlyph>
    <TTGlyph name="S" xMin="-102" yMin="-27" xMax="616" yMax="1393">
      <contour>
        <pt x="436" y="1012" on="1"/>
        <pt x="442" y="1019" on="0"/>
        <pt x="456" y="1050" on="0"/>
        <pt x="468" y="1091" on="0"/>
        <pt x="475" y="1140" on="0"/>
        <pt x="475" y="1165" on="1"/>
        <pt x="475" y="1215" on="0"/>
        <pt x="436" y="1262" on="0"/>
        <pt x="412" y="1262" on="1"/>
        <pt x="399" y="1262" on="0"/>
        <pt x="371" y="1246" on="0"/>
        <pt x="349" y="1213" on="0"/>
        <pt x="334" y="1163" on="0"/>
        <pt x="334" y="1128" on="1"/>
        <pt x="334" y="1110" on="0"/>
        <pt x="351" y="1018" on="0"/>
        <pt x="377" y="894" on="0"/>
        <pt x="406" y="749" on="0"/>
        <pt x="432" y="605" on="0"/>
        <pt x="449" y="474" on="0"/>
        <pt x="449" y="426" on="1"/>
        <pt x="449" y="378" on="0"/>
        <pt x="416" y="273" on="0"/>
        <pt x="364" y="172" on="0"/>
        <pt x="302" y="82" on="0"/>
        <pt x="244" y="13" on="0"/>
        <pt x="198" y="-27" on="0"/>
        <pt x="188" y="-27" on="1"/>
        <pt x="171" y="-27" on="0"/>
        <pt x="142" y="-23" on="0"/>
        <pt x="125" y="-16" on="1"/>
        <pt x="93" y="2" on="0"/>
        <pt x="26" y="58" on="0"/>
        <pt x="-35" y="124" on="0"/>
        <pt x="-86" y="193" on="0"/>
        <pt x="-102" y="225" on="1"/>
        <pt x="-79" y="257" on="0"/>
        <pt x="-54" y="287" on="1"/>
        <pt x="-33" y="313" on="0"/>
        <pt x="18" y="369" on="0"/>
        <pt x="43" y="391" on="1"/>
        <pt x="45" y="391" on="1"/>
        <pt x="60" y="352" on="0"/>
        <pt x="106" y="258" on="0"/>
        <pt x="159" y="176" on="0"/>
        <pt x="215" y="121" on="0"/>
        <pt x="240" y="121" on="1"/>
        <pt x="245" y="121" on="0"/>
        <pt x="266" y="127" on="0"/>
        <pt x="286" y="148" on="0"/>
        <pt x="301" y="191" on="0"/>
        <pt x="301" y="229" on="1"/>
        <pt x="301" y="255" on="0"/>
        <pt x="282" y="377" on="0"/>
        <pt x="252" y="533" on="0"/>
        <pt x="219" y="705" on="0"/>
        <pt x="189" y="857" on="0"/>
        <pt x="170" y="972" on="0"/>
        <pt x="170" y="993" on="1"/>
        <pt x="170" y="1037" on="0"/>
        <pt x="207" y="1120" on="0"/>
        <pt x="258" y="1191" on="0"/>
        <pt x="312" y="1245" on="0"/>
        <pt x="328" y="1260" on="1"/>
        <pt x="352" y="1280" on="0"/>
        <pt x="411" y="1326" on="0"/>
        <pt x="470" y="1366" on="0"/>
        <pt x="522" y="1393" on="0"/>
        <pt x="539" y="1393" on="1"/>
        <pt x="556" y="1393" on="0"/>
        <pt x="584" y="1378" on="0"/>
        <pt x="605" y="1341" on="0"/>
        <pt x="616" y="1276" on="0"/>
        <pt x="616" y="1225" on="1"/>
        <pt x="616" y="1202" on="0"/>
        <pt x="601" y="1159" on="0"/>
        <pt x="577" y="1118" on="0"/>
        <pt x="547" y="1081" on="0"/>
        <pt x="531" y="1065" on="1"/>
        <pt x="493" y="1027" on="0"/>
        <pt x="446" y="995" on="1"/>
      </contour>
    </TTGlyph>
    <TTGlyph name="Sacute" xMin="-102" yMin="-27" xMax="818" yMax="1812">
      <component glyphName="S" x="0" y="0" flags="0x204"/>
      <component glyphName="acute" x="23" y="604" flags="0x4"/>
    </TTGlyph>
    <TTGlyph name="Scaron" xMin="-102" yMin="-27" xMax="892" yMax="1804">
      <component glyphName="S" x="0" y="0" flags="0x204"/>
      <component glyphName="caron" x="-11" y="604" flags="0x4"/>
    </TTGlyph>
    <TTGlyph name="Scedilla" xMin="-127" yMin="-408" xMax="616" yMax="1393">
      <contour>
        <pt x="-106" y="-336" on="1"/>
        <pt x="-88" y="-345" on="0"/>
        <pt x="-37" y="-358" on="0"/>
        <pt x="0" y="-358" on="1"/>
        <pt x="28" y="-358" on="0"/>
        <pt x="88" y="-342" on="0"/>
        <pt x="139" y="-311" on="0"/>
        <pt x="172" y="-262" on="0"/>
        <pt x="172" y="-229" on="1"/>
        <pt x="172" y="-195" on="0"/>
        <pt x="120" y="-156" on="0"/>
        <pt x="78" y="-156" on="1"/>
        <pt x="70" y="-156" on="0"/>
        <pt x="49" y="-156" on="0"/>
        <pt x="37" y="-158" on="1"/>
        <pt x="113" y="-10" on="1"/>
        <pt x="82" y="8" on="0"/>
        <pt x="19" y="63" on="0"/>
        <pt x="-39" y="127" on="0"/>
        <pt x="-87" y="194" on="0"/>
        <pt x="-102" y="225" on="1"/>
        <pt x="-79" y="257" on="0"/>
        <pt x="-54" y="287" on="1"/>
        <pt x="-33" y="313" on="0"/>
        <pt x="18" y="369" on="0"/>
        <pt x="43" y="391" on="1"/>
        <pt x="45" y="391" on="1"/>
        <pt x="60" y="352" on="0"/>
        <pt x="106" y="258" on="0"/>
        <pt x="159" y="176" on="0"/>
        <pt x="215" y="121" on="0"/>
        <pt x="240" y="121" on="1"/>
        <pt x="245" y="121" on="0"/>
        <pt x="266" y="127" on="0"/>
        <pt x="286" y="148" on="0"/>
        <pt x="301" y="191" on="0"/>
        <pt x="301" y="229" on="1"/>
        <pt x="301" y="255" on="0"/>
        <pt x="282" y="377" on="0"/>
        <pt x="252" y="533" on="0"/>
        <pt x="219" y="705" on="0"/>
        <pt x="189" y="857" on="0"/>
        <pt x="170" y="972" on="0"/>
        <pt x="170" y="993" on="1"/>
        <pt x="170" y="1037" on="0"/>
        <pt x="207" y="1120" on="0"/>
        <pt x="258" y="1191" on="0"/>
        <pt x="312" y="1245" on="0"/>
        <pt x="328" y="1260" on="1"/>
        <pt x="352" y="1280" on="0"/>
        <pt x="411" y="1326" on="0"/>
        <pt x="470" y="1366" on="0"/>
        <pt x="522" y="1393" on="0"/>
        <pt x="539" y="1393" on="1"/>
        <pt x="556" y="1393" on="0"/>
        <pt x="584" y="1378" on="0"/>
        <pt x="605" y="1341" on="0"/>
        <pt x="616" y="1276" on="0"/>
        <pt x="616" y="1225" on="1"/>
        <pt x="616" y="1202" on="0"/>
        <pt x="601" y="1159" on="0"/>
        <pt x="577" y="1118" on="0"/>
        <pt x="547" y="1081" on="0"/>
        <pt x="531" y="1065" on="1"/>
        <pt x="493" y="1027" on="0"/>
        <pt x="446" y="995" on="1"/>
        <pt x="436" y="1012" on="1"/>
        <pt x="442" y="1019" on="0"/>
        <pt x="456" y="1050" on="0"/>
        <pt x="468" y="1091" on="0"/>
        <pt x="475" y="1140" on="0"/>
        <pt x="475" y="1165" on="1"/>
        <pt x="475" y="1215" on="0"/>
        <pt x="436" y="1262" on="0"/>
        <pt x="412" y="1262" on="1"/>
        <pt x="399" y="1262" on="0"/>
        <pt x="371" y="1246" on="0"/>
        <pt x="349" y="1213" on="0"/>
        <pt x="334" y="1163" on="0"/>
        <pt x="334" y="1128" on="1"/>
        <pt x="334" y="1110" on="0"/>
        <pt x="351" y="1018" on="0"/>
        <pt x="377" y="894" on="0"/>
        <pt x="406" y="749" on="0"/>
        <pt x="432" y="605" on="0"/>
        <pt x="449" y="474" on="0"/>
        <pt x="449" y="426" on="1"/>
        <pt x="449" y="378" on="0"/>
        <pt x="416" y="273" on="0"/>
        <pt x="364" y="172" on="0"/>
        <pt x="302" y="82" on="0"/>
        <pt x="244" y="13" on="0"/>
        <pt x="198" y="-27" on="0"/>
        <pt x="188" y="-27" on="1"/>
        <pt x="179" y="-27" on="0"/>
        <pt x="166" y="-25" on="0"/>
        <pt x="158" y="-25" on="1"/>
        <pt x="115" y="-113" on="1"/>
        <pt x="126" y="-111" on="0"/>
        <pt x="146" y="-111" on="0"/>
        <pt x="156" y="-111" on="1"/>
        <pt x="228" y="-111" on="0"/>
        <pt x="293" y="-174" on="0"/>
        <pt x="293" y="-223" on="1"/>
        <pt x="293" y="-270" on="0"/>
        <pt x="242" y="-339" on="0"/>
        <pt x="161" y="-385" on="0"/>
        <pt x="62" y="-408" on="0"/>
        <pt x="14" y="-408" on="1"/>
        <pt x="-70" y="-408" on="0"/>
        <pt x="-127" y="-379" on="1"/>
      </contour>
    </TTGlyph>
    <TTGlyph name="Scircumflex" xMin="-102" yMin="-27" xMax="791" yMax="1804">
      <component glyphName="S" x="0" y="0" flags="0x204"/>
      <component glyphName="circumflex" x="-28" y="604" flags="0x4"/>
    </TTGlyph>
    <TTGlyph name="T" xMin="-94" yMin="-45" xMax="739" yMax="1382">
      <contour>
        <pt x="-94" y="-18" on="1"/>
        <pt x="-70" y="-10" on="0"/>
        <pt x="10" y="27" on="0"/>
        <pt x="100" y="104" on="0"/>
        <pt x="190" y="232" on="0"/>
        <pt x="225" y="332" on="1"/>
        <pt x="235" y="359" on="0"/>
        <pt x="271" y="463" on="0"/>
        <pt x="317" y="597" on="0"/>
        <pt x="371" y="753" on="0"/>
        <pt x="424" y="911" on="0"/>
        <pt x="474" y="1062" on="0"/>
        <pt x="513" y="1187" on="0"/>
        <pt x="539" y="1276" on="0"/>
        <pt x="541" y="1294" on="1"/>
        <pt x="541" y="1302" on="0"/>
        <pt x="529" y="1326" on="0"/>
        <pt x="524" y="1329" on="1"/>
        <pt x="475" y="1326" on="0"/>
        <pt x="380" y="1314" on="0"/>
        <pt x="340" y="1300" on="1"/>
        <pt x="327" y="1295" on="0"/>
        <pt x="297" y="1272" on="0"/>
        <pt x="271" y="1238" on="0"/>
        <pt x="254" y="1197" on="0"/>
        <pt x="254" y="1176" on="1"/>
        <pt x="254" y="1163" on="0"/>
        <pt x="258" y="1124" on="0"/>
        <pt x="264" y="1104" on="1"/>
        <pt x="252" y="1092" on="1"/>
        <pt x="201" y="1129" on="0"/>
        <pt x="141" y="1210" on="0"/>
        <pt x="141" y="1245" on="1"/>
        <pt x="141" y="1265" on="0"/>
        <pt x="168" y="1313" on="0"/>
        <pt x="208" y="1354" on="0"/>
        <pt x="254" y="1382" on="0"/>
        <pt x="272" y="1382" on="1"/>
        <pt x="334" y="1382" on="0"/>
        <pt x="471" y="1372" on="0"/>
        <pt x="555" y="1372" on="1"/>
        <pt x="573" y="1372" on="0"/>
        <pt x="620" y="1373" on="0"/>
        <pt x="669" y="1376" on="0"/>
        <pt x="715" y="1378" on="0"/>
        <pt x="733" y="1380" on="1"/>
        <pt x="739" y="1352" on="1"/>
        <pt x="726" y="1318" on="0"/>
        <pt x="679" y="1178" on="0"/>
        <pt x="619" y="995" on="0"/>
        <pt x="550" y="785" on="0"/>
        <pt x="481" y="575" on="0"/>
        <pt x="417" y="379" on="0"/>
        <pt x="391" y="303" on="1"/>
        <pt x="367" y="230" on="0"/>
        <pt x="284" y="122" on="0"/>
        <pt x="187" y="46" on="0"/>
        <pt x="84" y="-2" on="0"/>
        <pt x="-5" y="-31" on="0"/>
        <pt x="-73" y="-43" on="0"/>
        <pt x="-86" y="-45" on="1"/>
      </contour>
    </TTGlyph>
    <TTGlyph name="Tbar" xMin="-94" yMin="-45" xMax="760" yMax="1382">
      <contour>
        <pt x="-94" y="-18" on="1"/>
        <pt x="-70" y="-10" on="0"/>
        <pt x="10" y="27" on="0"/>
        <pt x="100" y="104" on="0"/>
        <pt x="190" y="232" on="0"/>
        <pt x="225" y="332" on="1"/>
        <pt x="235" y="361" on="0"/>
        <pt x="275" y="476" on="0"/>
        <pt x="327" y="624" on="0"/>
        <pt x="385" y="794" on="0"/>
        <pt x="414" y="879" on="1"/>
        <pt x="252" y="879" on="1"/>
        <pt x="268" y="928" on="1"/>
        <pt x="430" y="928" on="1"/>
        <pt x="451" y="993" on="0"/>
        <pt x="490" y="1112" on="0"/>
        <pt x="520" y="1209" on="0"/>
        <pt x="539" y="1279" on="0"/>
        <pt x="541" y="1294" on="1"/>
        <pt x="541" y="1302" on="0"/>
        <pt x="529" y="1326" on="0"/>
        <pt x="524" y="1329" on="1"/>
        <pt x="475" y="1326" on="0"/>
        <pt x="380" y="1314" on="0"/>
        <pt x="340" y="1300" on="1"/>
        <pt x="327" y="1295" on="0"/>
        <pt x="297" y="1272" on="0"/>
        <pt x="271" y="1238" on="0"/>
        <pt x="254" y="1197" on="0"/>
        <pt x="254" y="1176" on="1"/>
        <pt x="254" y="1163" on="0"/>
        <pt x="258" y="1124" on="0"/>
        <pt x="264" y="1104" on="1"/>
        <pt x="252" y="1092" on="1"/>
        <pt x="201" y="1129" on="0"/>
        <pt x="141" y="1210" on="0"/>
        <pt x="141" y="1245" on="1"/>
        <pt x="141" y="1265" on="0"/>
        <pt x="168" y="1313" on="0"/>
        <pt x="208" y="1354" on="0"/>
        <pt x="254" y="1382" on="0"/>
        <pt x="272" y="1382" on="1"/>
        <pt x="334" y="1382" on="0"/>
        <pt x="471" y="1372" on="0"/>
        <pt x="555" y="1372" on="1"/>
        <pt x="573" y="1372" on="0"/>
        <pt x="620" y="1373" on="0"/>
        <pt x="669" y="1376" on="0"/>
        <pt x="715" y="1378" on="0"/>
        <pt x="733" y="1380" on="1"/>
        <pt x="739" y="1352" on="1"/>
        <pt x="730" y="1327" on="0"/>
        <pt x="701" y="1243" on="0"/>
        <pt x="663" y="1132" on="0"/>
        <pt x="620" y="1001" on="0"/>
        <pt x="596" y="930" on="1"/>
        <pt x="760" y="932" on="1"/>
        <pt x="741" y="879" on="1"/>
        <pt x="580" y="879" on="1"/>
        <pt x="555" y="802" on="0"/>
        <pt x="504" y="645" on="0"/>
        <pt x="454" y="496" on="0"/>
        <pt x="409" y="359" on="0"/>
        <pt x="391" y="303" on="1"/>
        <pt x="367" y="230" on="0"/>
        <pt x="284" y="122" on="0"/>
        <pt x="187" y="46" on="0"/>
        <pt x="84" y="-2" on="0"/>
        <pt x="-5" y="-31" on="0"/>
        <pt x="-73" y="-43" on="0"/>
        <pt x="-86" y="-45" on="1"/>
      </contour>
    </TTGlyph>
    <TTGlyph name="Tcaron" xMin="-94" yMin="-45" xMax="879" yMax="1804">
      <component glyphName="T" x="0" y="0" flags="0x204"/>
      <component glyphName="caron" x="-24" y="604" flags="0x4"/>
    </TTGlyph>
    <TTGlyph name="Tcommaaccent" xMin="-94" yMin="-451" xMax="739" yMax="1382">
      <component glyphName="T" x="0" y="0" flags="0x204"/>
      <component glyphName="commaaccent" x="-192" y="0" flags="0x4"/>
    </TTGlyph>
    <TTGlyph name="Thorn" xMin="-150" yMin="-6" xMax="733" yMax="1372">
      <contour>
        <pt x="489" y="1366" on="1"/>
        <pt x="481" y="1347" on="0"/>
        <pt x="455" y="1270" on="0"/>
        <pt x="419" y="1163" on="0"/>
        <pt x="375" y="1032" on="0"/>
        <pt x="350" y="958" on="1"/>
        <pt x="383" y="993" on="0"/>
        <pt x="456" y="1064" on="0"/>
        <pt x="526" y="1122" on="0"/>
        <pt x="588" y="1159" on="0"/>
        <pt x="610" y="1159" on="1"/>
        <pt x="635" y="1159" on="0"/>
        <pt x="680" y="1120" on="0"/>
        <pt x="714" y="1057" on="0"/>
        <pt x="733" y="978" on="0"/>
        <pt x="733" y="938" on="1"/>
        <pt x="733" y="878" on="0"/>
        <pt x="704" y="731" on="0"/>
        <pt x="646" y="581" on="0"/>
        <pt x="558" y="440" on="0"/>
        <pt x="438" y="330" on="0"/>
        <pt x="287" y="264" on="0"/>
        <pt x="195" y="264" on="1"/>
        <pt x="159" y="264" on="0"/>
        <pt x="123" y="270" on="1"/>
        <pt x="37" y="0" on="1"/>
        <pt x="25" y="-2" on="0"/>
        <pt x="11" y="-3" on="1"/>
        <pt x="-1" y="-5" on="0"/>
        <pt x="-35" y="-6" on="0"/>
        <pt x="-55" y="-6" on="1"/>
        <pt x="-98" y="-6" on="0"/>
        <pt x="-143" y="0" on="1"/>
        <pt x="-150" y="10" on="1"/>
        <pt x="-138" y="32" on="0"/>
        <pt x="-90" y="159" on="0"/>
        <pt x="-25" y="338" on="0"/>
        <pt x="49" y="554" on="0"/>
        <pt x="124" y="777" on="0"/>
        <pt x="194" y="991" on="0"/>
        <pt x="250" y="1167" on="0"/>
        <pt x="285" y="1287" on="0"/>
        <pt x="287" y="1305" on="1"/>
        <pt x="287" y="1313" on="0"/>
        <pt x="281" y="1326" on="0"/>
        <pt x="276" y="1329" on="1"/>
        <pt x="276" y="1341" on="1"/>
        <pt x="303" y="1349" on="0"/>
        <pt x="349" y="1360" on="0"/>
        <pt x="396" y="1367" on="0"/>
        <pt x="450" y="1371" on="0"/>
        <pt x="485" y="1372" on="1"/>
      </contour>
      <contour>
        <pt x="317" y="860" on="1"/>
        <pt x="274" y="730" on="0"/>
        <pt x="186" y="461" on="0"/>
        <pt x="145" y="336" on="1"/>
        <pt x="159" y="328" on="0"/>
        <pt x="193" y="317" on="0"/>
        <pt x="215" y="317" on="1"/>
        <pt x="270" y="317" on="0"/>
        <pt x="361" y="369" on="0"/>
        <pt x="433" y="457" on="0"/>
        <pt x="487" y="573" on="0"/>
        <pt x="522" y="700" on="0"/>
        <pt x="539" y="831" on="0"/>
        <pt x="539" y="891" on="1"/>
        <pt x="539" y="897" on="0"/>
        <pt x="537" y="937" on="0"/>
        <pt x="529" y="980" on="0"/>
        <pt x="513" y="1014" on="0"/>
        <pt x="500" y="1014" on="1"/>
        <pt x="482" y="1014" on="0"/>
        <pt x="441" y="988" on="0"/>
        <pt x="395" y="946" on="0"/>
        <pt x="344" y="890" on="0"/>
      </contour>
    </TTGlyph>
    <TTGlyph name="U" xMin="141" yMin="-20" xMax="1096" yMax="1382">
      <contour>
        <pt x="1096" y="1366" on="1"/>
        <pt x="1086" y="1340" on="0"/>
        <pt x="1045" y="1220" on="0"/>
        <pt x="989" y="1054" on="0"/>
        <pt x="922" y="853" on="0"/>
        <pt x="850" y="638" on="0"/>
        <pt x="779" y="421" on="0"/>
        <pt x="715" y="223" on="0"/>
        <pt x="661" y="57" on="0"/>
        <pt x="643" y="0" on="1"/>
        <pt x="631" y="-2" on="0"/>
        <pt x="617" y="-3" on="1"/>
        <pt x="605" y="-5" on="0"/>
        <pt x="571" y="-6" on="0"/>
        <pt x="551" y="-6" on="1"/>
        <pt x="509" y="-6" on="0"/>
        <pt x="463" y="0" on="1"/>
        <pt x="457" y="10" on="1"/>
        <pt x="469" y="35" on="0"/>
        <pt x="527" y="187" on="0"/>
        <pt x="565" y="295" on="1"/>
        <pt x="531" y="242" on="0"/>
        <pt x="452" y="130" on="0"/>
        <pt x="371" y="39" on="0"/>
        <pt x="293" y="-20" on="0"/>
        <pt x="262" y="-20" on="1"/>
        <pt x="239" y="-20" on="0"/>
        <pt x="197" y="16" on="0"/>
        <pt x="166" y="78" on="0"/>
        <pt x="147" y="161" on="0"/>
        <pt x="147" y="209" on="1"/>
        <pt x="147" y="249" on="0"/>
        <pt x="175" y="379" on="0"/>
        <pt x="222" y="540" on="0"/>
        <pt x="282" y="720" on="0"/>
        <pt x="344" y="899" on="0"/>
        <pt x="405" y="1067" on="0"/>
        <pt x="453" y="1201" on="0"/>
        <pt x="483" y="1292" on="0"/>
        <pt x="485" y="1305" on="1"/>
        <pt x="485" y="1316" on="0"/>
        <pt x="479" y="1325" on="1"/>
        <pt x="441" y="1322" on="0"/>
        <pt x="369" y="1310" on="0"/>
        <pt x="340" y="1300" on="1"/>
        <pt x="327" y="1295" on="0"/>
        <pt x="297" y="1272" on="0"/>
        <pt x="271" y="1238" on="0"/>
        <pt x="254" y="1197" on="0"/>
        <pt x="254" y="1176" on="1"/>
        <pt x="254" y="1163" on="0"/>
        <pt x="258" y="1124" on="0"/>
        <pt x="264" y="1104" on="1"/>
        <pt x="252" y="1092" on="1"/>
        <pt x="201" y="1129" on="0"/>
        <pt x="141" y="1210" on="0"/>
        <pt x="141" y="1245" on="1"/>
        <pt x="141" y="1265" on="0"/>
        <pt x="168" y="1313" on="0"/>
        <pt x="208" y="1354" on="0"/>
        <pt x="254" y="1382" on="0"/>
        <pt x="272" y="1382" on="1"/>
        <pt x="303" y="1382" on="0"/>
        <pt x="352" y="1379" on="0"/>
        <pt x="404" y="1375" on="0"/>
        <pt x="464" y="1372" on="0"/>
        <pt x="506" y="1372" on="1"/>
        <pt x="524" y="1372" on="0"/>
        <pt x="570" y="1373" on="0"/>
        <pt x="617" y="1374" on="0"/>
        <pt x="662" y="1376" on="0"/>
        <pt x="680" y="1378" on="1"/>
        <pt x="688" y="1366" on="1"/>
        <pt x="673" y="1324" on="0"/>
        <pt x="625" y="1199" on="0"/>
        <pt x="566" y="1047" on="0"/>
        <pt x="502" y="877" on="0"/>
        <pt x="439" y="704" on="0"/>
        <pt x="382" y="534" on="0"/>
        <pt x="339" y="382" on="0"/>
        <pt x="313" y="257" on="0"/>
        <pt x="313" y="215" on="1"/>
        <pt x="313" y="209" on="0"/>
        <pt x="313" y="181" on="0"/>
        <pt x="318" y="153" on="0"/>
        <pt x="330" y="131" on="0"/>
        <pt x="342" y="131" on="1"/>
        <pt x="352" y="131" on="0"/>
        <pt x="416" y="190" on="0"/>
        <pt x="496" y="279" on="0"/>
        <pt x="580" y="381" on="0"/>
        <pt x="610" y="424" on="1"/>
        <pt x="641" y="513" on="0"/>
        <pt x="705" y="704" on="0"/>
        <pt x="767" y="890" on="0"/>
        <pt x="822" y="1060" on="0"/>
        <pt x="865" y="1196" on="0"/>
        <pt x="891" y="1289" on="0"/>
        <pt x="893" y="1305" on="1"/>
        <pt x="893" y="1322" on="0"/>
        <pt x="883" y="1329" on="1"/>
        <pt x="883" y="1341" on="1"/>
        <pt x="910" y="1349" on="0"/>
        <pt x="955" y="1360" on="0"/>
        <pt x="1002" y="1367" on="0"/>
        <pt x="1056" y="1371" on="0"/>
        <pt x="1092" y="1372" on="1"/>
        <pt x="1096" y="1366" on="1"/>
      </contour>
    </TTGlyph>
    <TTGlyph name="Uacute" xMin="141" yMin="-20" xMax="1096" yMax="1812">
      <component glyphName="U" x="0" y="0" flags="0x204"/>
      <component glyphName="acute" x="274" y="604" flags="0x4"/>
    </TTGlyph>
    <TTGlyph name="Ubreve" xMin="141" yMin="-20" xMax="1121" yMax="1775">
      <component glyphName="U" x="0" y="0" flags="0x204"/>
      <component glyphName="breve" x="238" y="604" flags="0x4"/>
    </TTGlyph>
    <TTGlyph name="Ucircumflex" xMin="141" yMin="-20" xMax="1096" yMax="1804">
      <component glyphName="U" x="0" y="0" flags="0x204"/>
      <component glyphName="circumflex" x="223" y="604" flags="0x4"/>
    </TTGlyph>
    <TTGlyph name="Udieresis" xMin="141" yMin="-20" xMax="1096" yMax="1694">
      <component glyphName="U" x="0" y="0" flags="0x204"/>
      <component glyphName="dieresis" x="225" y="604" flags="0x4"/>
    </TTGlyph>
    <TTGlyph name="Ugrave" xMin="141" yMin="-20" xMax="1096" yMax="1816">
      <component glyphName="U" x="0" y="0" flags="0x204"/>
      <component glyphName="grave" x="276" y="604" flags="0x4"/>
    </TTGlyph>
    <TTGlyph name="Uhungarumlaut" xMin="141" yMin="-20" xMax="1221" yMax="1812">
      <component glyphName="U" x="0" y="0" flags="0x204"/>
      <component glyphName="hungarumlaut" x="303" y="604" flags="0x4"/>
    </TTGlyph>
    <TTGlyph name="Umacron" xMin="141" yMin="-20" xMax="1096" yMax="1626">
      <component glyphName="U" x="0" y="0" flags="0x204"/>
      <component glyphName="macron" x="217" y="604" flags="0x4"/>
    </TTGlyph>
    <TTGlyph name="Uogonek" xMin="141" yMin="-367" xMax="1096" yMax="1382">
      <contour>
        <pt x="696" y="-297" on="1"/>
        <pt x="647" y="-326" on="0"/>
        <pt x="519" y="-367" on="0"/>
        <pt x="446" y="-367" on="1"/>
        <pt x="416" y="-367" on="0"/>
        <pt x="356" y="-355" on="0"/>
        <pt x="310" y="-327" on="0"/>
        <pt x="281" y="-282" on="0"/>
        <pt x="281" y="-250" on="1"/>
        <pt x="281" y="-208" on="0"/>
        <pt x="326" y="-135" on="0"/>
        <pt x="397" y="-74" on="0"/>
        <pt x="481" y="-25" on="0"/>
        <pt x="520" y="-6" on="1"/>
        <pt x="463" y="0" on="1"/>
        <pt x="457" y="10" on="1"/>
        <pt x="469" y="35" on="0"/>
        <pt x="527" y="187" on="0"/>
        <pt x="565" y="295" on="1"/>
        <pt x="531" y="242" on="0"/>
        <pt x="452" y="130" on="0"/>
        <pt x="371" y="39" on="0"/>
        <pt x="293" y="-20" on="0"/>
        <pt x="262" y="-20" on="1"/>
        <pt x="239" y="-20" on="0"/>
        <pt x="197" y="16" on="0"/>
        <pt x="166" y="78" on="0"/>
        <pt x="147" y="161" on="0"/>
        <pt x="147" y="209" on="1"/>
        <pt x="147" y="249" on="0"/>
        <pt x="175" y="379" on="0"/>
        <pt x="222" y="540" on="0"/>
        <pt x="282" y="720" on="0"/>
        <pt x="344" y="899" on="0"/>
        <pt x="405" y="1067" on="0"/>
        <pt x="453" y="1201" on="0"/>
        <pt x="483" y="1292" on="0"/>
        <pt x="485" y="1305" on="1"/>
        <pt x="485" y="1316" on="0"/>
        <pt x="479" y="1325" on="1"/>
        <pt x="441" y="1322" on="0"/>
        <pt x="369" y="1310" on="0"/>
        <pt x="340" y="1300" on="1"/>
        <pt x="327" y="1295" on="0"/>
        <pt x="297" y="1272" on="0"/>
        <pt x="271" y="1238" on="0"/>
        <pt x="254" y="1197" on="0"/>
        <pt x="254" y="1176" on="1"/>
        <pt x="254" y="1163" on="0"/>
        <pt x="258" y="1124" on="0"/>
        <pt x="264" y="1104" on="1"/>
        <pt x="252" y="1092" on="1"/>
        <pt x="201" y="1129" on="0"/>
        <pt x="141" y="1210" on="0"/>
        <pt x="141" y="1245" on="1"/>
        <pt x="141" y="1265" on="0"/>
        <pt x="168" y="1313" on="0"/>
        <pt x="208" y="1354" on="0"/>
        <pt x="254" y="1382" on="0"/>
        <pt x="272" y="1382" on="1"/>
        <pt x="303" y="1382" on="0"/>
        <pt x="352" y="1379" on="0"/>
        <pt x="404" y="1375" on="0"/>
        <pt x="464" y="1372" on="0"/>
        <pt x="506" y="1372" on="1"/>
        <pt x="524" y="1372" on="0"/>
        <pt x="570" y="1373" on="0"/>
        <pt x="617" y="1374" on="0"/>
        <pt x="662" y="1376" on="0"/>
        <pt x="680" y="1378" on="1"/>
        <pt x="688" y="1366" on="1"/>
        <pt x="673" y="1324" on="0"/>
        <pt x="625" y="1199" on="0"/>
        <pt x="566" y="1047" on="0"/>
        <pt x="502" y="877" on="0"/>
        <pt x="439" y="704" on="0"/>
        <pt x="382" y="534" on="0"/>
        <pt x="339" y="382" on="0"/>
        <pt x="313" y="257" on="0"/>
        <pt x="313" y="215" on="1"/>
        <pt x="313" y="209" on="0"/>
        <pt x="313" y="181" on="0"/>
        <pt x="318" y="153" on="0"/>
        <pt x="330" y="131" on="0"/>
        <pt x="342" y="131" on="1"/>
        <pt x="352" y="131" on="0"/>
        <pt x="416" y="190" on="0"/>
        <pt x="496" y="279" on="0"/>
        <pt x="580" y="381" on="0"/>
        <pt x="610" y="424" on="1"/>
        <pt x="641" y="513" on="0"/>
        <pt x="705" y="704" on="0"/>
        <pt x="767" y="890" on="0"/>
        <pt x="822" y="1060" on="0"/>
        <pt x="865" y="1196" on="0"/>
        <pt x="891" y="1289" on="0"/>
        <pt x="893" y="1305" on="1"/>
        <pt x="893" y="1322" on="0"/>
        <pt x="883" y="1329" on="1"/>
        <pt x="883" y="1341" on="1"/>
        <pt x="910" y="1349" on="0"/>
        <pt x="955" y="1360" on="0"/>
        <pt x="1002" y="1367" on="0"/>
        <pt x="1056" y="1371" on="0"/>
        <pt x="1092" y="1372" on="1"/>
        <pt x="1096" y="1366" on="1"/>
        <pt x="1086" y="1340" on="0"/>
        <pt x="1045" y="1220" on="0"/>
        <pt x="989" y="1054" on="0"/>
        <pt x="922" y="853" on="0"/>
        <pt x="850" y="638" on="0"/>
        <pt x="779" y="421" on="0"/>
        <pt x="715" y="223" on="0"/>
        <pt x="661" y="57" on="0"/>
        <pt x="643" y="0" on="1"/>
        <pt x="605" y="-3" on="0"/>
        <pt x="524" y="-43" on="0"/>
        <pt x="457" y="-106" on="0"/>
        <pt x="414" y="-185" on="0"/>
        <pt x="414" y="-227" on="1"/>
        <pt x="414" y="-307" on="0"/>
        <pt x="518" y="-307" on="1"/>
        <pt x="565" y="-307" on="0"/>
        <pt x="654" y="-274" on="0"/>
        <pt x="682" y="-258" on="1"/>
      </contour>
    </TTGlyph>
    <TTGlyph name="Uring" xMin="141" yMin="-20" xMax="1096" yMax="1866">
      <component glyphName="U" x="0" y="0" flags="0x204"/>
      <component glyphName="ring" x="172" y="604" flags="0x4"/>
    </TTGlyph>
    <TTGlyph name="Utilde" xMin="141" yMin="-20" xMax="1096" yMax="1665">
      <component glyphName="U" x="0" y="0" flags="0x204"/>
      <component glyphName="tilde" x="252" y="604" flags="0x4"/>
    </TTGlyph>
    <TTGlyph name="V" xMin="66" yMin="-20" xMax="1094" yMax="1386">
      <contour>
        <pt x="895" y="1227" on="1"/>
        <pt x="895" y="1235" on="0"/>
        <pt x="885" y="1257" on="0"/>
        <pt x="870" y="1276" on="0"/>
        <pt x="854" y="1290" on="0"/>
        <pt x="848" y="1290" on="1"/>
        <pt x="832" y="1290" on="0"/>
        <pt x="795" y="1268" on="0"/>
        <pt x="782" y="1260" on="1"/>
        <pt x="770" y="1280" on="1"/>
        <pt x="790" y="1298" on="0"/>
        <pt x="837" y="1336" on="0"/>
        <pt x="884" y="1367" on="0"/>
        <pt x="928" y="1386" on="0"/>
        <pt x="944" y="1386" on="1"/>
        <pt x="978" y="1386" on="0"/>
        <pt x="1034" y="1342" on="0"/>
        <pt x="1073" y="1287" on="0"/>
        <pt x="1094" y="1235" on="0"/>
        <pt x="1094" y="1227" on="1"/>
        <pt x="1094" y="1204" on="0"/>
        <pt x="1067" y="1081" on="0"/>
        <pt x="1009" y="908" on="0"/>
        <pt x="921" y="701" on="0"/>
        <pt x="800" y="487" on="0"/>
        <pt x="645" y="282" on="0"/>
        <pt x="453" y="114" on="0"/>
        <pt x="223" y="-2" on="0"/>
        <pt x="88" y="-20" on="1"/>
        <pt x="66" y="2" on="1"/>
        <pt x="80" y="45" on="0"/>
        <pt x="131" y="196" on="0"/>
        <pt x="194" y="387" on="0"/>
        <pt x="265" y="604" on="0"/>
        <pt x="335" y="821" on="0"/>
        <pt x="400" y="1023" on="0"/>
        <pt x="450" y="1185" on="0"/>
        <pt x="481" y="1292" on="0"/>
        <pt x="483" y="1305" on="1"/>
        <pt x="483" y="1316" on="0"/>
        <pt x="477" y="1325" on="1"/>
        <pt x="440" y="1322" on="0"/>
        <pt x="368" y="1310" on="0"/>
        <pt x="340" y="1300" on="1"/>
        <pt x="327" y="1295" on="0"/>
        <pt x="297" y="1272" on="0"/>
        <pt x="271" y="1238" on="0"/>
        <pt x="254" y="1197" on="0"/>
        <pt x="254" y="1176" on="1"/>
        <pt x="254" y="1163" on="0"/>
        <pt x="258" y="1124" on="0"/>
        <pt x="264" y="1104" on="1"/>
        <pt x="252" y="1092" on="1"/>
        <pt x="201" y="1129" on="0"/>
        <pt x="141" y="1210" on="0"/>
        <pt x="141" y="1245" on="1"/>
        <pt x="141" y="1265" on="0"/>
        <pt x="168" y="1313" on="0"/>
        <pt x="208" y="1354" on="0"/>
        <pt x="254" y="1382" on="0"/>
        <pt x="272" y="1382" on="1"/>
        <pt x="334" y="1382" on="0"/>
        <pt x="482" y="1372" on="0"/>
        <pt x="565" y="1372" on="1"/>
        <pt x="583" y="1372" on="0"/>
        <pt x="611" y="1372" on="0"/>
        <pt x="636" y="1373" on="0"/>
        <pt x="662" y="1374" on="0"/>
        <pt x="680" y="1376" on="1"/>
        <pt x="686" y="1366" on="1"/>
        <pt x="668" y="1312" on="0"/>
        <pt x="619" y="1163" on="0"/>
        <pt x="563" y="991" on="0"/>
        <pt x="503" y="802" on="0"/>
        <pt x="443" y="613" on="0"/>
        <pt x="386" y="431" on="0"/>
        <pt x="337" y="272" on="0"/>
        <pt x="297" y="144" on="0"/>
        <pt x="285" y="104" on="1"/>
        <pt x="382" y="149" on="0"/>
        <pt x="547" y="311" on="0"/>
        <pt x="683" y="514" on="0"/>
        <pt x="787" y="741" on="0"/>
        <pt x="858" y="961" on="0"/>
        <pt x="895" y="1157" on="0"/>
      </contour>
    </TTGlyph>
    <TTGlyph name="W" xMin="66" yMin="-20" xMax="1450" yMax="1386">
      <contour>
        <pt x="1004" y="1018" on="1"/>
        <pt x="991" y="986" on="0"/>
        <pt x="949" y="866" on="0"/>
        <pt x="895" y="711" on="0"/>
        <pt x="833" y="530" on="0"/>
        <pt x="771" y="344" on="0"/>
        <pt x="711" y="164" on="0"/>
        <pt x="686" y="86" on="1"/>
        <pt x="790" y="136" on="0"/>
        <pt x="955" y="297" on="0"/>
        <pt x="1080" y="493" on="0"/>
        <pt x="1169" y="714" on="0"/>
        <pt x="1225" y="934" on="0"/>
        <pt x="1251" y="1141" on="0"/>
        <pt x="1251" y="1227" on="1"/>
        <pt x="1251" y="1235" on="0"/>
        <pt x="1241" y="1257" on="0"/>
        <pt x="1227" y="1276" on="0"/>
        <pt x="1210" y="1290" on="0"/>
        <pt x="1204" y="1290" on="1"/>
        <pt x="1189" y="1290" on="0"/>
        <pt x="1151" y="1268" on="0"/>
        <pt x="1139" y="1260" on="1"/>
        <pt x="1126" y="1280" on="1"/>
        <pt x="1146" y="1298" on="0"/>
        <pt x="1194" y="1336" on="0"/>
        <pt x="1241" y="1367" on="0"/>
        <pt x="1284" y="1386" on="0"/>
        <pt x="1300" y="1386" on="1"/>
        <pt x="1335" y="1386" on="0"/>
        <pt x="1390" y="1342" on="0"/>
        <pt x="1429" y="1287" on="0"/>
        <pt x="1450" y="1235" on="0"/>
        <pt x="1450" y="1227" on="1"/>
        <pt x="1450" y="1185" on="0"/>
        <pt x="1427" y="1045" on="0"/>
        <pt x="1379" y="870" on="0"/>
        <pt x="1304" y="672" on="0"/>
        <pt x="1199" y="473" on="0"/>
        <pt x="1064" y="284" on="0"/>
        <pt x="897" y="128" on="0"/>
        <pt x="694" y="17" on="0"/>
        <pt x="575" y="-6" on="1"/>
        <pt x="565" y="-8" on="0"/>
        <pt x="551" y="-11" on="0"/>
        <pt x="534" y="-14" on="0"/>
        <pt x="512" y="-18" on="0"/>
        <pt x="494" y="-20" on="1"/>
        <pt x="481" y="2" on="1"/>
        <pt x="490" y="19" on="0"/>
        <pt x="517" y="86" on="0"/>
        <pt x="552" y="178" on="0"/>
        <pt x="591" y="289" on="0"/>
        <pt x="612" y="350" on="1"/>
        <pt x="512" y="207" on="0"/>
        <pt x="249" y="25" on="0"/>
        <pt x="88" y="-20" on="1"/>
        <pt x="66" y="2" on="1"/>
        <pt x="80" y="45" on="0"/>
        <pt x="131" y="196" on="0"/>
        <pt x="194" y="387" on="0"/>
        <pt x="265" y="604" on="0"/>
        <pt x="335" y="821" on="0"/>
        <pt x="400" y="1023" on="0"/>
        <pt x="450" y="1185" on="0"/>
        <pt x="481" y="1292" on="0"/>
        <pt x="483" y="1305" on="1"/>
        <pt x="483" y="1316" on="0"/>
        <pt x="477" y="1325" on="1"/>
        <pt x="440" y="1322" on="0"/>
        <pt x="368" y="1310" on="0"/>
        <pt x="340" y="1300" on="1"/>
        <pt x="327" y="1295" on="0"/>
        <pt x="297" y="1272" on="0"/>
        <pt x="271" y="1238" on="0"/>
        <pt x="254" y="1197" on="0"/>
        <pt x="254" y="1176" on="1"/>
        <pt x="254" y="1163" on="0"/>
        <pt x="258" y="1124" on="0"/>
        <pt x="264" y="1104" on="1"/>
        <pt x="252" y="1092" on="1"/>
        <pt x="201" y="1129" on="0"/>
        <pt x="141" y="1210" on="0"/>
        <pt x="141" y="1245" on="1"/>
        <pt x="141" y="1265" on="0"/>
        <pt x="168" y="1313" on="0"/>
        <pt x="208" y="1354" on="0"/>
        <pt x="254" y="1382" on="0"/>
        <pt x="272" y="1382" on="1"/>
        <pt x="334" y="1382" on="0"/>
        <pt x="482" y="1372" on="0"/>
        <pt x="565" y="1372" on="1"/>
        <pt x="583" y="1372" on="0"/>
        <pt x="611" y="1372" on="0"/>
        <pt x="636" y="1373" on="0"/>
        <pt x="662" y="1374" on="0"/>
        <pt x="680" y="1376" on="1"/>
        <pt x="686" y="1366" on="1"/>
        <pt x="668" y="1312" on="0"/>
        <pt x="620" y="1166" on="0"/>
        <pt x="565" y="997" on="0"/>
        <pt x="506" y="814" on="0"/>
        <pt x="448" y="630" on="0"/>
        <pt x="392" y="453" on="0"/>
        <pt x="344" y="298" on="0"/>
        <pt x="305" y="173" on="0"/>
        <pt x="293" y="133" on="1"/>
        <pt x="430" y="214" on="0"/>
        <pt x="640" y="462" on="0"/>
        <pt x="700" y="614" on="1"/>
        <pt x="700" y="612" on="1"/>
        <pt x="720" y="673" on="0"/>
        <pt x="755" y="786" on="0"/>
        <pt x="782" y="877" on="0"/>
        <pt x="799" y="942" on="0"/>
        <pt x="801" y="956" on="1"/>
        <pt x="801" y="974" on="0"/>
        <pt x="791" y="981" on="1"/>
        <pt x="791" y="993" on="1"/>
        <pt x="818" y="1001" on="0"/>
        <pt x="863" y="1012" on="0"/>
        <pt x="910" y="1019" on="0"/>
        <pt x="964" y="1023" on="0"/>
        <pt x="999" y="1024" on="1"/>
        <pt x="1004" y="1018" on="1"/>
      </contour>
    </TTGlyph>
    <TTGlyph name="Wacute" xMin="66" yMin="-20" xMax="1450" yMax="1812">
      <component glyphName="W" x="0" y="0" flags="0x204"/>
      <component glyphName="acute" x="469" y="604" flags="0x4"/>
    </TTGlyph>
    <TTGlyph name="Wcircumflex" xMin="66" yMin="-20" xMax="1450" yMax="1804">
      <component glyphName="W" x="0" y="0" flags="0x204"/>
      <component glyphName="circumflex" x="418" y="604" flags="0x4"/>
    </TTGlyph>
    <TTGlyph name="Wdieresis" xMin="66" yMin="-20" xMax="1450" yMax="1694">
      <component glyphName="W" x="0" y="0" flags="0x204"/>
      <component glyphName="dieresis" x="420" y="604" flags="0x4"/>
    </TTGlyph>
    <TTGlyph name="Wgrave" xMin="66" yMin="-20" xMax="1450" yMax="1816">
      <component glyphName="W" x="0" y="0" flags="0x204"/>
      <component glyphName="grave" x="471" y="604" flags="0x4"/>
    </TTGlyph>
    <TTGlyph name="X" xMin="-172" yMin="-16" xMax="1014" yMax="1386">
      <contour>
        <pt x="373" y="1087" on="1"/>
        <pt x="373" y="1112" on="0"/>
        <pt x="369" y="1174" on="0"/>
        <pt x="359" y="1229" on="0"/>
        <pt x="341" y="1266" on="0"/>
        <pt x="326" y="1266" on="1"/>
        <pt x="310" y="1267" on="0"/>
        <pt x="271" y="1244" on="0"/>
        <pt x="225" y="1205" on="0"/>
        <pt x="173" y="1152" on="0"/>
        <pt x="145" y="1122" on="1"/>
        <pt x="121" y="1147" on="1"/>
        <pt x="293" y="1386" on="0"/>
        <pt x="391" y="1386" on="1"/>
        <pt x="419" y="1385" on="0"/>
        <pt x="475" y="1359" on="0"/>
        <pt x="519" y="1311" on="0"/>
        <pt x="546" y="1242" on="0"/>
        <pt x="545" y="1198" on="1"/>
        <pt x="543" y="1158" on="0"/>
        <pt x="543" y="1037" on="0"/>
        <pt x="541" y="965" on="1"/>
        <pt x="567" y="1012" on="0"/>
        <pt x="626" y="1110" on="0"/>
        <pt x="686" y="1203" on="0"/>
        <pt x="748" y="1285" on="0"/>
        <pt x="809" y="1346" on="0"/>
        <pt x="867" y="1382" on="0"/>
        <pt x="893" y="1382" on="1"/>
        <pt x="919" y="1382" on="0"/>
        <pt x="964" y="1354" on="0"/>
        <pt x="996" y="1315" on="0"/>
        <pt x="1014" y="1275" on="0"/>
        <pt x="1014" y="1264" on="1"/>
        <pt x="1014" y="1235" on="0"/>
        <pt x="977" y="1171" on="0"/>
        <pt x="922" y="1110" on="0"/>
        <pt x="858" y="1058" on="0"/>
        <pt x="831" y="1040" on="1"/>
        <pt x="819" y="1049" on="1"/>
        <pt x="847" y="1101" on="0"/>
        <pt x="887" y="1198" on="0"/>
        <pt x="889" y="1233" on="1"/>
        <pt x="889" y="1241" on="0"/>
        <pt x="875" y="1255" on="0"/>
        <pt x="855" y="1266" on="0"/>
        <pt x="834" y="1272" on="0"/>
        <pt x="827" y="1272" on="1"/>
        <pt x="815" y="1272" on="0"/>
        <pt x="761" y="1205" on="0"/>
        <pt x="686" y="1090" on="0"/>
        <pt x="592" y="938" on="0"/>
        <pt x="541" y="854" on="1"/>
        <pt x="540" y="768" on="0"/>
        <pt x="539" y="587" on="0"/>
        <pt x="539" y="419" on="0"/>
        <pt x="538" y="274" on="0"/>
        <pt x="537" y="225" on="1"/>
        <pt x="536" y="201" on="0"/>
        <pt x="538" y="157" on="0"/>
        <pt x="546" y="124" on="0"/>
        <pt x="563" y="104" on="0"/>
        <pt x="578" y="104" on="1"/>
        <pt x="594" y="103" on="0"/>
        <pt x="633" y="126" on="0"/>
        <pt x="678" y="165" on="0"/>
        <pt x="729" y="218" on="0"/>
        <pt x="758" y="248" on="1"/>
        <pt x="782" y="223" on="1"/>
        <pt x="612" y="-16" on="0"/>
        <pt x="512" y="-16" on="1"/>
        <pt x="483" y="-15" on="0"/>
        <pt x="428" y="11" on="0"/>
        <pt x="384" y="59" on="0"/>
        <pt x="357" y="128" on="0"/>
        <pt x="358" y="172" on="1"/>
        <pt x="365" y="520" on="1"/>
        <pt x="338" y="472" on="0"/>
        <pt x="272" y="355" on="0"/>
        <pt x="201" y="237" on="0"/>
        <pt x="125" y="126" on="0"/>
        <pt x="51" y="40" on="0"/>
        <pt x="-20" y="-12" on="0"/>
        <pt x="-51" y="-12" on="1"/>
        <pt x="-77" y="-12" on="0"/>
        <pt x="-122" y="16" on="0"/>
        <pt x="-154" y="55" on="0"/>
        <pt x="-172" y="95" on="0"/>
        <pt x="-172" y="106" on="1"/>
        <pt x="-172" y="135" on="0"/>
        <pt x="-135" y="199" on="0"/>
        <pt x="-80" y="260" on="0"/>
        <pt x="-17" y="312" on="0"/>
        <pt x="10" y="330" on="1"/>
        <pt x="23" y="322" on="1"/>
        <pt x="-5" y="269" on="0"/>
        <pt x="-45" y="172" on="0"/>
        <pt x="-47" y="137" on="1"/>
        <pt x="-47" y="129" on="0"/>
        <pt x="-33" y="114" on="0"/>
        <pt x="-14" y="104" on="0"/>
        <pt x="7" y="98" on="0"/>
        <pt x="14" y="98" on="1"/>
        <pt x="28" y="98" on="0"/>
        <pt x="94" y="185" on="0"/>
        <pt x="188" y="331" on="0"/>
        <pt x="303" y="519" on="0"/>
        <pt x="365" y="621" on="1"/>
        <pt x="366" y="694" on="0"/>
        <pt x="368" y="835" on="0"/>
        <pt x="370" y="959" on="0"/>
        <pt x="372" y="1057" on="0"/>
      </contour>
    </TTGlyph>
    <TTGlyph name="Y" xMin="39" yMin="-332" xMax="1075" yMax="1382">
      <contour>
        <pt x="381" y="440" on="1"/>
        <pt x="381" y="434" on="0"/>
        <pt x="381" y="406" on="0"/>
        <pt x="386" y="378" on="0"/>
        <pt x="398" y="356" on="0"/>
        <pt x="410" y="356" on="1"/>
        <pt x="429" y="356" on="0"/>
        <pt x="493" y="409" on="0"/>
        <pt x="566" y="490" on="0"/>
        <pt x="638" y="586" on="0"/>
        <pt x="666" y="629" on="1"/>
        <pt x="706" y="746" on="0"/>
        <pt x="783" y="969" on="0"/>
        <pt x="841" y="1150" on="0"/>
        <pt x="877" y="1274" on="0"/>
        <pt x="877" y="1292" on="1"/>
        <pt x="877" y="1306" on="0"/>
        <pt x="870" y="1323" on="0"/>
        <pt x="860" y="1333" on="0"/>
        <pt x="850" y="1337" on="0"/>
        <pt x="848" y="1339" on="1"/>
        <pt x="848" y="1358" on="1"/>
        <pt x="866" y="1362" on="0"/>
        <pt x="913" y="1369" on="0"/>
        <pt x="962" y="1374" on="0"/>
        <pt x="1011" y="1376" on="0"/>
        <pt x="1032" y="1376" on="1"/>
        <pt x="1069" y="1376" on="1"/>
        <pt x="1075" y="1348" on="1"/>
        <pt x="1066" y="1322" on="0"/>
        <pt x="1022" y="1196" on="0"/>
        <pt x="960" y="1019" on="0"/>
        <pt x="885" y="804" on="0"/>
        <pt x="806" y="575" on="0"/>
        <pt x="725" y="343" on="0"/>
        <pt x="652" y="133" on="0"/>
        <pt x="591" y="-43" on="0"/>
        <pt x="571" y="-102" on="1"/>
        <pt x="559" y="-137" on="0"/>
        <pt x="498" y="-198" on="0"/>
        <pt x="418" y="-249" on="0"/>
        <pt x="331" y="-290" on="0"/>
        <pt x="256" y="-317" on="0"/>
        <pt x="202" y="-332" on="0"/>
        <pt x="197" y="-332" on="1"/>
        <pt x="150" y="-332" on="0"/>
        <pt x="67" y="-255" on="0"/>
        <pt x="39" y="-166" on="1"/>
        <pt x="188" y="-68" on="1"/>
        <pt x="203" y="-116" on="0"/>
        <pt x="221" y="-153" on="1"/>
        <pt x="228" y="-169" on="0"/>
        <pt x="246" y="-200" on="0"/>
        <pt x="267" y="-224" on="0"/>
        <pt x="289" y="-238" on="0"/>
        <pt x="301" y="-238" on="1"/>
        <pt x="314" y="-238" on="0"/>
        <pt x="343" y="-211" on="0"/>
        <pt x="370" y="-171" on="0"/>
        <pt x="392" y="-127" on="0"/>
        <pt x="399" y="-109" on="1"/>
        <pt x="408" y="-85" on="0"/>
        <pt x="450" y="32" on="0"/>
        <pt x="509" y="195" on="0"/>
        <pt x="580" y="394" on="0"/>
        <pt x="618" y="500" on="1"/>
        <pt x="585" y="448" on="0"/>
        <pt x="509" y="343" on="0"/>
        <pt x="433" y="258" on="0"/>
        <pt x="360" y="205" on="0"/>
        <pt x="330" y="205" on="1"/>
        <pt x="307" y="205" on="0"/>
        <pt x="265" y="241" on="0"/>
        <pt x="233" y="303" on="0"/>
        <pt x="215" y="386" on="0"/>
        <pt x="215" y="434" on="1"/>
        <pt x="215" y="474" on="0"/>
        <pt x="238" y="585" on="0"/>
        <pt x="275" y="714" on="0"/>
        <pt x="322" y="854" on="0"/>
        <pt x="372" y="991" on="0"/>
        <pt x="420" y="1118" on="0"/>
        <pt x="459" y="1220" on="0"/>
        <pt x="483" y="1292" on="0"/>
        <pt x="485" y="1305" on="1"/>
        <pt x="485" y="1316" on="0"/>
        <pt x="479" y="1325" on="1"/>
        <pt x="441" y="1322" on="0"/>
        <pt x="369" y="1310" on="0"/>
        <pt x="340" y="1300" on="1"/>
        <pt x="327" y="1295" on="0"/>
        <pt x="297" y="1272" on="0"/>
        <pt x="271" y="1238" on="0"/>
        <pt x="254" y="1197" on="0"/>
        <pt x="254" y="1176" on="1"/>
        <pt x="254" y="1163" on="0"/>
        <pt x="258" y="1124" on="0"/>
        <pt x="264" y="1104" on="1"/>
        <pt x="252" y="1092" on="1"/>
        <pt x="201" y="1129" on="0"/>
        <pt x="141" y="1210" on="0"/>
        <pt x="141" y="1245" on="1"/>
        <pt x="141" y="1265" on="0"/>
        <pt x="168" y="1313" on="0"/>
        <pt x="208" y="1354" on="0"/>
        <pt x="254" y="1382" on="0"/>
        <pt x="272" y="1382" on="1"/>
        <pt x="334" y="1382" on="0"/>
        <pt x="482" y="1372" on="0"/>
        <pt x="565" y="1372" on="1"/>
        <pt x="583" y="1372" on="0"/>
        <pt x="611" y="1372" on="0"/>
        <pt x="637" y="1373" on="0"/>
        <pt x="664" y="1374" on="0"/>
        <pt x="682" y="1376" on="1"/>
        <pt x="688" y="1366" on="1"/>
        <pt x="668" y="1310" on="0"/>
        <pt x="607" y="1160" on="0"/>
        <pt x="539" y="992" on="0"/>
        <pt x="470" y="815" on="0"/>
        <pt x="415" y="646" on="0"/>
        <pt x="381" y="496" on="0"/>
      </contour>
    </TTGlyph>
    <TTGlyph name="Yacute" xMin="39" yMin="-332" xMax="1075" yMax="1812">
      <component glyphName="Y" x="0" y="0" flags="0x204"/>
      <component glyphName="acute" x="264" y="604" flags="0x4"/>
    </TTGlyph>
    <TTGlyph name="Ycircumflex" xMin="39" yMin="-332" xMax="1075" yMax="1804">
      <component glyphName="Y" x="0" y="0" flags="0x204"/>
      <component glyphName="circumflex" x="213" y="604" flags="0x4"/>
    </TTGlyph>
    <TTGlyph name="Ydieresis" xMin="39" yMin="-332" xMax="1075" yMax="1694">
      <component glyphName="Y" x="0" y="0" flags="0x204"/>
      <component glyphName="dieresis" x="215" y="604" flags="0x4"/>
    </TTGlyph>
    <TTGlyph name="Ygrave" xMin="39" yMin="-332" xMax="1075" yMax="1816">
      <component glyphName="Y" x="0" y="0" flags="0x204"/>
      <component glyphName="grave" x="266" y="604" flags="0x4"/>
    </TTGlyph>
    <TTGlyph name="Z" xMin="-166" yMin="-10" xMax="915" yMax="1380">
      <contour>
        <pt x="-166" y="10" on="1"/>
        <pt x="-113" y="91" on="0"/>
        <pt x="17" y="288" on="0"/>
        <pt x="161" y="505" on="0"/>
        <pt x="315" y="738" on="0"/>
        <pt x="469" y="971" on="0"/>
        <pt x="618" y="1200" on="0"/>
        <pt x="686" y="1305" on="1"/>
        <pt x="643" y="1302" on="0"/>
        <pt x="561" y="1301" on="0"/>
        <pt x="488" y="1299" on="0"/>
        <pt x="426" y="1293" on="0"/>
        <pt x="403" y="1284" on="1"/>
        <pt x="388" y="1279" on="0"/>
        <pt x="355" y="1250" on="0"/>
        <pt x="328" y="1211" on="0"/>
        <pt x="311" y="1165" on="0"/>
        <pt x="311" y="1141" on="1"/>
        <pt x="311" y="1125" on="0"/>
        <pt x="317" y="1077" on="0"/>
        <pt x="324" y="1053" on="1"/>
        <pt x="301" y="1042" on="1"/>
        <pt x="241" y="1084" on="0"/>
        <pt x="172" y="1178" on="0"/>
        <pt x="172" y="1219" on="1"/>
        <pt x="172" y="1242" on="0"/>
        <pt x="203" y="1298" on="0"/>
        <pt x="249" y="1347" on="0"/>
        <pt x="302" y="1380" on="0"/>
        <pt x="324" y="1380" on="1"/>
        <pt x="361" y="1380" on="0"/>
        <pt x="423" y="1374" on="0"/>
        <pt x="497" y="1368" on="0"/>
        <pt x="595" y="1362" on="0"/>
        <pt x="668" y="1362" on="1"/>
        <pt x="734" y="1362" on="0"/>
        <pt x="848" y="1371" on="0"/>
        <pt x="911" y="1376" on="1"/>
        <pt x="915" y="1354" on="1"/>
        <pt x="869" y="1288" on="0"/>
        <pt x="760" y="1127" on="0"/>
        <pt x="641" y="949" on="0"/>
        <pt x="518" y="760" on="0"/>
        <pt x="396" y="573" on="0"/>
        <pt x="280" y="395" on="0"/>
        <pt x="178" y="239" on="0"/>
        <pt x="92" y="111" on="0"/>
        <pt x="61" y="68" on="1"/>
        <pt x="117" y="71" on="0"/>
        <pt x="208" y="74" on="0"/>
        <pt x="283" y="80" on="0"/>
        <pt x="345" y="89" on="0"/>
        <pt x="371" y="98" on="1"/>
        <pt x="386" y="104" on="0"/>
        <pt x="417" y="138" on="0"/>
        <pt x="442" y="184" on="0"/>
        <pt x="459" y="238" on="0"/>
        <pt x="459" y="262" on="1"/>
        <pt x="459" y="276" on="0"/>
        <pt x="455" y="319" on="0"/>
        <pt x="449" y="344" on="1"/>
        <pt x="471" y="358" on="1"/>
        <pt x="500" y="339" on="0"/>
        <pt x="548" y="294" on="0"/>
        <pt x="582" y="248" on="0"/>
        <pt x="600" y="202" on="0"/>
        <pt x="600" y="182" on="1"/>
        <pt x="600" y="160" on="0"/>
        <pt x="568" y="94" on="0"/>
        <pt x="520" y="33" on="0"/>
        <pt x="461" y="-10" on="0"/>
        <pt x="434" y="-10" on="1"/>
        <pt x="403" y="-10" on="0"/>
        <pt x="344" y="-4" on="0"/>
        <pt x="267" y="2" on="0"/>
        <pt x="165" y="8" on="0"/>
        <pt x="92" y="8" on="1"/>
        <pt x="26" y="8" on="0"/>
        <pt x="-95" y="-4" on="0"/>
        <pt x="-158" y="-10" on="1"/>
      </contour>
    </TTGlyph>
    <TTGlyph name="Zacute" xMin="-166" yMin="-10" xMax="915" yMax="1812">
      <component glyphName="Z" x="0" y="0" flags="0x204"/>
      <component glyphName="acute" x="98" y="604" flags="0x4"/>
    </TTGlyph>
    <TTGlyph name="Zcaron" xMin="-166" yMin="-10" xMax="966" yMax="1804">
      <component glyphName="Z" x="0" y="0" flags="0x204"/>
      <component glyphName="caron" x="63" y="604" flags="0x4"/>
    </TTGlyph>
    <TTGlyph name="Zdotaccent" xMin="-166" yMin="-10" xMax="915" yMax="1661">
      <component glyphName="Z" x="0" y="0" flags="0x204"/>
      <component glyphName="dotaccent" x="41" y="604" flags="0x4"/>
    </TTGlyph>
    <TTGlyph name="a" xMin="-103" yMin="-14" xMax="559" yMax="795">
      <contour>
        <pt x="559" y="264" on="1"/>
        <pt x="515" y="211" on="0"/>
        <pt x="414" y="112" on="0"/>
        <pt x="317" y="36" on="0"/>
        <pt x="233" y="-10" on="0"/>
        <pt x="205" y="-10" on="1"/>
        <pt x="199" y="-10" on="0"/>
        <pt x="181" y="1" on="0"/>
        <pt x="178" y="6" on="1"/>
        <pt x="167" y="26" on="0"/>
        <pt x="158" y="87" on="0"/>
        <pt x="158" y="113" on="1"/>
        <pt x="158" y="121" on="0"/>
        <pt x="163" y="150" on="0"/>
        <pt x="166" y="166" on="1"/>
        <pt x="133" y="131" on="0"/>
        <pt x="62" y="66" on="0"/>
        <pt x="-3" y="16" on="0"/>
        <pt x="-54" y="-14" on="0"/>
        <pt x="-66" y="-14" on="1"/>
        <pt x="-74" y="-14" on="0"/>
        <pt x="-85" y="-2" on="0"/>
        <pt x="-94" y="18" on="0"/>
        <pt x="-99" y="40" on="0"/>
        <pt x="-100" y="51" on="1"/>
        <pt x="-103" y="86" on="0"/>
        <pt x="-92" y="169" on="0"/>
        <pt x="-72" y="255" on="0"/>
        <pt x="-47" y="338" on="0"/>
        <pt x="-23" y="407" on="0"/>
        <pt x="-5" y="455" on="0"/>
        <pt x="-2" y="463" on="1"/>
        <pt x="2" y="475" on="0"/>
        <pt x="21" y="508" on="0"/>
        <pt x="45" y="541" on="0"/>
        <pt x="70" y="572" on="0"/>
        <pt x="82" y="584" on="1"/>
        <pt x="104" y="605" on="0"/>
        <pt x="174" y="653" on="0"/>
        <pt x="257" y="699" on="0"/>
        <pt x="345" y="743" on="0"/>
        <pt x="424" y="775" on="0"/>
        <pt x="486" y="795" on="0"/>
        <pt x="502" y="795" on="1"/>
        <pt x="516" y="795" on="0"/>
        <pt x="537" y="793" on="0"/>
        <pt x="543" y="791" on="1"/>
        <pt x="545" y="786" on="1"/>
        <pt x="534" y="772" on="0"/>
        <pt x="502" y="704" on="0"/>
        <pt x="464" y="614" on="0"/>
        <pt x="424" y="506" on="0"/>
        <pt x="385" y="396" on="0"/>
        <pt x="351" y="291" on="0"/>
        <pt x="324" y="205" on="0"/>
        <pt x="309" y="146" on="0"/>
        <pt x="309" y="137" on="1"/>
        <pt x="309" y="119" on="0"/>
        <pt x="324" y="119" on="1"/>
        <pt x="334" y="120" on="0"/>
        <pt x="378" y="141" on="0"/>
        <pt x="436" y="183" on="0"/>
        <pt x="503" y="244" on="0"/>
        <pt x="537" y="285" on="1"/>
      </contour>
      <contour>
        <pt x="68" y="131" on="1"/>
        <pt x="76" y="131" on="0"/>
        <pt x="102" y="149" on="0"/>
        <pt x="132" y="177" on="0"/>
        <pt x="166" y="214" on="0"/>
        <pt x="182" y="233" on="1"/>
        <pt x="192" y="268" on="0"/>
        <pt x="217" y="352" on="0"/>
        <pt x="245" y="440" on="0"/>
        <pt x="275" y="528" on="0"/>
        <pt x="304" y="607" on="0"/>
        <pt x="330" y="672" on="0"/>
        <pt x="340" y="694" on="1"/>
        <pt x="324" y="689" on="0"/>
        <pt x="272" y="670" on="0"/>
        <pt x="240" y="645" on="1"/>
        <pt x="213" y="624" on="0"/>
        <pt x="165" y="540" on="0"/>
        <pt x="125" y="435" on="0"/>
        <pt x="92" y="323" on="0"/>
        <pt x="69" y="227" on="0"/>
        <pt x="57" y="159" on="0"/>
        <pt x="57" y="152" on="1"/>
        <pt x="57" y="144" on="0"/>
        <pt x="60" y="131" on="0"/>
      </contour>
    </TTGlyph>
    <TTGlyph name="aacute" xMin="-103" yMin="-14" xMax="683" yMax="1208">
      <component glyphName="a" x="0" y="0" flags="0x204"/>
      <component glyphName="acute" x="-112" y="0" flags="0x4"/>
    </TTGlyph>
    <TTGlyph name="abreve" xMin="-103" yMin="-14" xMax="734" yMax="1171">
      <component glyphName="a" x="0" y="0" flags="0x204"/>
      <component glyphName="breve" x="-149" y="0" flags="0x4"/>
    </TTGlyph>
    <TTGlyph name="acircumflex" xMin="-103" yMin="-14" xMax="656" yMax="1200">
      <component glyphName="a" x="0" y="0" flags="0x204"/>
      <component glyphName="circumflex" x="-163" y="0" flags="0x4"/>
    </TTGlyph>
    <TTGlyph name="acute" xMin="399" yMin="862" xMax="795" yMax="1208">
      <contour>
        <pt x="795" y="1098" on="1"/>
        <pt x="420" y="862" on="1"/>
        <pt x="399" y="889" on="1"/>
        <pt x="705" y="1208" on="1"/>
      </contour>
    </TTGlyph>
    <TTGlyph name="adieresis" xMin="-103" yMin="-14" xMax="654" yMax="1090">
      <component glyphName="a" x="0" y="0" flags="0x204"/>
      <component glyphName="dieresis" x="-161" y="0" flags="0x4"/>
    </TTGlyph>
    <TTGlyph name="ae" xMin="-103" yMin="-14" xMax="707" yMax="780">
      <contour>
        <pt x="297" y="-14" on="1"/>
        <pt x="276" y="-14" on="0"/>
        <pt x="236" y="15" on="0"/>
        <pt x="206" y="60" on="0"/>
        <pt x="188" y="114" on="0"/>
        <pt x="188" y="139" on="1"/>
        <pt x="188" y="170" on="1"/>
        <pt x="175" y="160" on="0"/>
        <pt x="166" y="147" on="1"/>
        <pt x="127" y="112" on="0"/>
        <pt x="54" y="53" on="0"/>
        <pt x="-7" y="10" on="0"/>
        <pt x="-54" y="-14" on="0"/>
        <pt x="-66" y="-14" on="1"/>
        <pt x="-74" y="-14" on="0"/>
        <pt x="-85" y="-2" on="0"/>
        <pt x="-94" y="18" on="0"/>
        <pt x="-99" y="40" on="0"/>
        <pt x="-100" y="51" on="1"/>
        <pt x="-103" y="86" on="0"/>
        <pt x="-92" y="169" on="0"/>
        <pt x="-72" y="255" on="0"/>
        <pt x="-47" y="338" on="0"/>
        <pt x="-23" y="407" on="0"/>
        <pt x="-5" y="455" on="0"/>
        <pt x="-2" y="463" on="1"/>
        <pt x="2" y="475" on="0"/>
        <pt x="21" y="508" on="0"/>
        <pt x="45" y="541" on="0"/>
        <pt x="70" y="572" on="0"/>
        <pt x="82" y="584" on="1"/>
        <pt x="124" y="624" on="0"/>
        <pt x="262" y="695" on="0"/>
        <pt x="417" y="749" on="0"/>
        <pt x="573" y="780" on="0"/>
        <pt x="635" y="780" on="1"/>
        <pt x="667" y="780" on="0"/>
        <pt x="707" y="710" on="0"/>
        <pt x="707" y="657" on="1"/>
        <pt x="707" y="630" on="0"/>
        <pt x="682" y="578" on="0"/>
        <pt x="643" y="532" on="0"/>
        <pt x="598" y="492" on="0"/>
        <pt x="578" y="477" on="1"/>
        <pt x="369" y="317" on="1"/>
        <pt x="350" y="249" on="0"/>
        <pt x="328" y="144" on="0"/>
        <pt x="328" y="125" on="1"/>
        <pt x="328" y="96" on="0"/>
        <pt x="344" y="66" on="0"/>
        <pt x="369" y="66" on="1"/>
        <pt x="421" y="66" on="0"/>
        <pt x="536" y="171" on="0"/>
        <pt x="590" y="287" on="1"/>
        <pt x="618" y="268" on="1"/>
        <pt x="591" y="205" on="0"/>
        <pt x="521" y="101" on="0"/>
        <pt x="438" y="27" on="0"/>
        <pt x="345" y="-14" on="0"/>
      </contour>
      <contour>
        <pt x="68" y="131" on="1"/>
        <pt x="76" y="131" on="0"/>
        <pt x="103" y="146" on="0"/>
        <pt x="136" y="173" on="0"/>
        <pt x="172" y="208" on="0"/>
        <pt x="190" y="229" on="1"/>
        <pt x="205" y="281" on="0"/>
        <pt x="242" y="411" on="0"/>
        <pt x="282" y="538" on="0"/>
        <pt x="321" y="648" on="0"/>
        <pt x="336" y="680" on="1"/>
        <pt x="320" y="675" on="0"/>
        <pt x="268" y="656" on="0"/>
        <pt x="236" y="631" on="1"/>
        <pt x="209" y="610" on="0"/>
        <pt x="162" y="528" on="0"/>
        <pt x="122" y="426" on="0"/>
        <pt x="91" y="318" on="0"/>
        <pt x="69" y="225" on="0"/>
        <pt x="57" y="159" on="0"/>
        <pt x="57" y="152" on="1"/>
        <pt x="57" y="144" on="0"/>
        <pt x="60" y="131" on="0"/>
      </contour>
      <contour>
        <pt x="561" y="735" on="1"/>
        <pt x="541" y="735" on="0"/>
        <pt x="496" y="669" on="0"/>
        <pt x="449" y="565" on="0"/>
        <pt x="405" y="437" on="0"/>
        <pt x="387" y="375" on="1"/>
        <pt x="557" y="510" on="1"/>
        <pt x="563" y="531" on="0"/>
        <pt x="575" y="579" on="0"/>
        <pt x="584" y="622" on="0"/>
        <pt x="590" y="659" on="0"/>
        <pt x="590" y="670" on="1"/>
        <pt x="590" y="680" on="0"/>
        <pt x="587" y="703" on="0"/>
        <pt x="581" y="723" on="0"/>
        <pt x="570" y="735" on="0"/>
      </contour>
    </TTGlyph>
    <TTGlyph name="aeacute" xMin="-103" yMin="-14" xMax="784" yMax="1208">
      <component glyphName="ae" x="0" y="0" flags="0x204"/>
      <component glyphName="acute" x="-11" y="0" flags="0x4"/>
    </TTGlyph>
    <TTGlyph name="agrave" xMin="-103" yMin="-14" xMax="559" yMax="1212">
      <component glyphName="a" x="0" y="0" flags="0x204"/>
      <component glyphName="grave" x="-110" y="0" flags="0x4"/>
    </TTGlyph>
    <TTGlyph name="amacron" xMin="-103" yMin="-14" xMax="671" yMax="1022">
      <component glyphName="a" x="0" y="0" flags="0x204"/>
      <component glyphName="macron" x="-169" y="0" flags="0x4"/>
    </TTGlyph>
    <TTGlyph name="ampersand" xMin="-68" yMin="-164" xMax="758" yMax="1372">
      <contour>
        <pt x="682" y="1212" on="1"/>
        <pt x="682" y="1141" on="0"/>
        <pt x="638" y="1030" on="0"/>
        <pt x="566" y="939" on="0"/>
        <pt x="472" y="862" on="0"/>
        <pt x="422" y="823" on="1"/>
        <pt x="426" y="763" on="0"/>
        <pt x="440" y="630" on="0"/>
        <pt x="459" y="492" on="0"/>
        <pt x="482" y="352" on="0"/>
        <pt x="496" y="285" on="1"/>
        <pt x="541" y="356" on="0"/>
        <pt x="595" y="518" on="0"/>
        <pt x="600" y="592" on="1"/>
        <pt x="600" y="600" on="0"/>
        <pt x="588" y="610" on="0"/>
        <pt x="580" y="610" on="1"/>
        <pt x="575" y="623" on="1"/>
        <pt x="593" y="628" on="0"/>
        <pt x="638" y="638" on="0"/>
        <pt x="687" y="646" on="0"/>
        <pt x="735" y="651" on="0"/>
        <pt x="756" y="653" on="1"/>
        <pt x="758" y="643" on="1"/>
        <pt x="716" y="529" on="0"/>
        <pt x="590" y="306" on="0"/>
        <pt x="512" y="213" on="1"/>
        <pt x="515" y="196" on="0"/>
        <pt x="523" y="163" on="0"/>
        <pt x="528" y="147" on="1"/>
        <pt x="550" y="62" on="0"/>
        <pt x="589" y="-41" on="0"/>
        <pt x="629" y="-101" on="0"/>
        <pt x="673" y="-130" on="0"/>
        <pt x="700" y="-141" on="1"/>
        <pt x="692" y="-164" on="1"/>
        <pt x="643" y="-163" on="0"/>
        <pt x="550" y="-138" on="0"/>
        <pt x="468" y="-81" on="0"/>
        <pt x="401" y="13" on="0"/>
        <pt x="377" y="84" on="1"/>
        <pt x="315" y="36" on="0"/>
        <pt x="184" y="-16" on="0"/>
        <pt x="115" y="-16" on="1"/>
        <pt x="86" y="-16" on="0"/>
        <pt x="21" y="19" on="0"/>
        <pt x="-33" y="80" on="0"/>
        <pt x="-68" y="164" on="0"/>
        <pt x="-68" y="213" on="1"/>
        <pt x="-68" y="294" on="0"/>
        <pt x="-11" y="444" on="0"/>
        <pt x="82" y="583" on="0"/>
        <pt x="202" y="710" on="0"/>
        <pt x="264" y="766" on="1"/>
        <pt x="261" y="819" on="0"/>
        <pt x="258" y="911" on="0"/>
        <pt x="258" y="948" on="1"/>
        <pt x="258" y="997" on="0"/>
        <pt x="291" y="1098" on="0"/>
        <pt x="346" y="1193" on="0"/>
        <pt x="417" y="1275" on="0"/>
        <pt x="494" y="1337" on="0"/>
        <pt x="570" y="1372" on="0"/>
        <pt x="602" y="1372" on="1"/>
        <pt x="612" y="1372" on="0"/>
        <pt x="640" y="1364" on="0"/>
        <pt x="665" y="1331" on="0"/>
        <pt x="682" y="1267" on="0"/>
      </contour>
      <contour>
        <pt x="360" y="141" on="1"/>
        <pt x="342" y="202" on="0"/>
        <pt x="314" y="339" on="0"/>
        <pt x="292" y="481" on="0"/>
        <pt x="276" y="623" on="0"/>
        <pt x="270" y="690" on="1"/>
        <pt x="195" y="602" on="0"/>
        <pt x="115" y="381" on="0"/>
        <pt x="115" y="260" on="1"/>
        <pt x="115" y="220" on="0"/>
        <pt x="136" y="159" on="0"/>
        <pt x="168" y="117" on="0"/>
        <pt x="206" y="96" on="0"/>
        <pt x="223" y="96" on="1"/>
        <pt x="260" y="96" on="0"/>
        <pt x="328" y="120" on="0"/>
      </contour>
      <contour>
        <pt x="412" y="1081" on="1"/>
        <pt x="412" y="1002" on="0"/>
        <pt x="418" y="885" on="1"/>
        <pt x="446" y="907" on="0"/>
        <pt x="495" y="956" on="0"/>
        <pt x="529" y="1017" on="0"/>
        <pt x="549" y="1094" on="0"/>
        <pt x="549" y="1145" on="1"/>
        <pt x="549" y="1196" on="0"/>
        <pt x="525" y="1260" on="0"/>
        <pt x="508" y="1260" on="1"/>
        <pt x="492" y="1260" on="0"/>
        <pt x="458" y="1226" on="0"/>
        <pt x="430" y="1173" on="0"/>
        <pt x="412" y="1110" on="0"/>
      </contour>
    </TTGlyph>
    <TTGlyph name="aogonek" xMin="-100" yMin="-346" xMax="559" yMax="795">
      <contour>
        <pt x="401" y="-276" on="1"/>
        <pt x="352" y="-305" on="0"/>
        <pt x="224" y="-346" on="0"/>
        <pt x="152" y="-346" on="1"/>
        <pt x="121" y="-346" on="0"/>
        <pt x="62" y="-334" on="0"/>
        <pt x="15" y="-306" on="0"/>
        <pt x="-14" y="-261" on="0"/>
        <pt x="-14" y="-229" on="1"/>
        <pt x="-14" y="-190" on="0"/>
        <pt x="21" y="-123" on="0"/>
        <pt x="78" y="-66" on="0"/>
        <pt x="149" y="-19" on="0"/>
        <pt x="184" y="0" on="1"/>
        <pt x="167" y="25" on="0"/>
        <pt x="158" y="88" on="0"/>
        <pt x="158" y="113" on="1"/>
        <pt x="158" y="121" on="0"/>
        <pt x="163" y="150" on="0"/>
        <pt x="166" y="166" on="1"/>
        <pt x="133" y="131" on="0"/>
        <pt x="62" y="66" on="0"/>
        <pt x="-3" y="16" on="0"/>
        <pt x="-54" y="-14" on="0"/>
        <pt x="-66" y="-14" on="1"/>
        <pt x="-74" y="-14" on="0"/>
        <pt x="-85" y="-2" on="0"/>
        <pt x="-94" y="18" on="0"/>
        <pt x="-99" y="40" on="0"/>
        <pt x="-100" y="51" on="1"/>
        <pt x="-100" y="72" on="1"/>
        <pt x="-100" y="107" on="0"/>
        <pt x="-87" y="188" on="0"/>
        <pt x="-67" y="270" on="0"/>
        <pt x="-44" y="347" on="0"/>
        <pt x="-22" y="411" on="0"/>
        <pt x="-5" y="455" on="0"/>
        <pt x="-2" y="463" on="1"/>
        <pt x="2" y="475" on="0"/>
        <pt x="21" y="508" on="0"/>
        <pt x="45" y="541" on="0"/>
        <pt x="70" y="572" on="0"/>
        <pt x="82" y="584" on="1"/>
        <pt x="104" y="605" on="0"/>
        <pt x="174" y="653" on="0"/>
        <pt x="257" y="699" on="0"/>
        <pt x="345" y="743" on="0"/>
        <pt x="424" y="775" on="0"/>
        <pt x="486" y="795" on="0"/>
        <pt x="502" y="795" on="1"/>
        <pt x="516" y="795" on="0"/>
        <pt x="537" y="793" on="0"/>
        <pt x="543" y="791" on="1"/>
        <pt x="545" y="786" on="1"/>
        <pt x="534" y="772" on="0"/>
        <pt x="502" y="704" on="0"/>
        <pt x="464" y="614" on="0"/>
        <pt x="424" y="506" on="0"/>
        <pt x="385" y="396" on="0"/>
        <pt x="351" y="291" on="0"/>
        <pt x="324" y="205" on="0"/>
        <pt x="309" y="146" on="0"/>
        <pt x="309" y="137" on="1"/>
        <pt x="309" y="119" on="0"/>
        <pt x="324" y="119" on="1"/>
        <pt x="334" y="120" on="0"/>
        <pt x="378" y="141" on="0"/>
        <pt x="436" y="183" on="0"/>
        <pt x="503" y="244" on="0"/>
        <pt x="537" y="285" on="1"/>
        <pt x="559" y="264" on="1"/>
        <pt x="500" y="194" on="0"/>
        <pt x="389" y="91" on="0"/>
        <pt x="292" y="11" on="0"/>
        <pt x="210" y="-51" on="0"/>
        <pt x="152" y="-109" on="0"/>
        <pt x="119" y="-170" on="0"/>
        <pt x="119" y="-207" on="1"/>
        <pt x="119" y="-245" on="0"/>
        <pt x="171" y="-287" on="0"/>
        <pt x="223" y="-287" on="1"/>
        <pt x="246" y="-287" on="0"/>
        <pt x="293" y="-277" on="0"/>
        <pt x="336" y="-263" on="0"/>
        <pt x="373" y="-246" on="0"/>
        <pt x="387" y="-238" on="1"/>
      </contour>
      <contour>
        <pt x="68" y="131" on="1"/>
        <pt x="76" y="131" on="0"/>
        <pt x="102" y="149" on="0"/>
        <pt x="132" y="177" on="0"/>
        <pt x="166" y="214" on="0"/>
        <pt x="182" y="233" on="1"/>
        <pt x="192" y="268" on="0"/>
        <pt x="217" y="352" on="0"/>
        <pt x="245" y="440" on="0"/>
        <pt x="275" y="528" on="0"/>
        <pt x="304" y="607" on="0"/>
        <pt x="330" y="672" on="0"/>
        <pt x="340" y="694" on="1"/>
        <pt x="324" y="689" on="0"/>
        <pt x="272" y="670" on="0"/>
        <pt x="240" y="645" on="1"/>
        <pt x="213" y="624" on="0"/>
        <pt x="165" y="540" on="0"/>
        <pt x="125" y="435" on="0"/>
        <pt x="92" y="323" on="0"/>
        <pt x="69" y="227" on="0"/>
        <pt x="57" y="159" on="0"/>
        <pt x="57" y="152" on="1"/>
        <pt x="57" y="144" on="0"/>
        <pt x="60" y="131" on="0"/>
      </contour>
    </TTGlyph>
    <TTGlyph name="approxequal" xMin="-51" yMin="238" xMax="684" yMax="602">
      <contour>
        <pt x="500" y="526" on="1"/>
        <pt x="524" y="526" on="0"/>
        <pt x="565" y="540" on="0"/>
        <pt x="600" y="563" on="0"/>
        <pt x="629" y="590" on="0"/>
        <pt x="641" y="602" on="1"/>
        <pt x="684" y="567" on="1"/>
        <pt x="633" y="510" on="0"/>
        <pt x="530" y="457" on="0"/>
        <pt x="473" y="457" on="1"/>
        <pt x="438" y="457" on="0"/>
        <pt x="365" y="482" on="0"/>
        <pt x="330" y="496" on="1"/>
        <pt x="296" y="510" on="0"/>
        <pt x="231" y="530" on="0"/>
        <pt x="203" y="530" on="1"/>
        <pt x="180" y="530" on="0"/>
        <pt x="138" y="516" on="0"/>
        <pt x="102" y="494" on="0"/>
        <pt x="73" y="468" on="0"/>
        <pt x="61" y="455" on="1"/>
        <pt x="18" y="489" on="1"/>
        <pt x="68" y="546" on="0"/>
        <pt x="172" y="600" on="0"/>
        <pt x="229" y="600" on="1"/>
        <pt x="264" y="600" on="0"/>
        <pt x="336" y="575" on="0"/>
        <pt x="373" y="561" on="1"/>
        <pt x="407" y="547" on="0"/>
        <pt x="472" y="526" on="0"/>
      </contour>
      <contour>
        <pt x="430" y="313" on="1"/>
        <pt x="475" y="313" on="0"/>
        <pt x="545" y="361" on="0"/>
        <pt x="569" y="389" on="1"/>
        <pt x="614" y="354" on="1"/>
        <pt x="566" y="297" on="0"/>
        <pt x="460" y="242" on="0"/>
        <pt x="403" y="242" on="1"/>
        <pt x="368" y="242" on="0"/>
        <pt x="295" y="267" on="0"/>
        <pt x="260" y="281" on="1"/>
        <pt x="226" y="295" on="0"/>
        <pt x="161" y="315" on="0"/>
        <pt x="133" y="315" on="1"/>
        <pt x="111" y="315" on="0"/>
        <pt x="71" y="301" on="0"/>
        <pt x="35" y="279" on="0"/>
        <pt x="4" y="251" on="0"/>
        <pt x="-8" y="238" on="1"/>
        <pt x="-51" y="276" on="1"/>
        <pt x="-3" y="332" on="0"/>
        <pt x="103" y="387" on="0"/>
        <pt x="160" y="387" on="1"/>
        <pt x="195" y="387" on="0"/>
        <pt x="268" y="362" on="0"/>
        <pt x="303" y="348" on="1"/>
        <pt x="337" y="334" on="0"/>
        <pt x="402" y="313" on="0"/>
      </contour>
    </TTGlyph>
    <TTGlyph name="aring" xMin="-103" yMin="-14" xMax="603" yMax="1262">
      <component glyphName="a" x="0" y="0" flags="0x204"/>
      <component glyphName="ring" x="-214" y="0" flags="0x4"/>
    </TTGlyph>
    <TTGlyph name="asciicircum" xMin="176" yMin="961" xMax="778" yMax="1372">
      <contour>
        <pt x="557" y="1231" on="1"/>
        <pt x="201" y="969" on="1"/>
        <pt x="176" y="993" on="1"/>
        <pt x="549" y="1372" on="1"/>
        <pt x="643" y="1372" on="1"/>
        <pt x="778" y="977" on="1"/>
        <pt x="748" y="961" on="1"/>
        <pt x="561" y="1231" on="1"/>
      </contour>
    </TTGlyph>
    <TTGlyph name="asciitilde" xMin="-23" yMin="350" xMax="643" yMax="498">
      <contour>
        <pt x="459" y="422" on="1"/>
        <pt x="483" y="422" on="0"/>
        <pt x="524" y="436" on="0"/>
        <pt x="559" y="459" on="0"/>
        <pt x="588" y="486" on="0"/>
        <pt x="600" y="498" on="1"/>
        <pt x="643" y="463" on="1"/>
        <pt x="592" y="406" on="0"/>
        <pt x="489" y="352" on="0"/>
        <pt x="432" y="352" on="1"/>
        <pt x="397" y="352" on="0"/>
        <pt x="324" y="377" on="0"/>
        <pt x="289" y="391" on="1"/>
        <pt x="255" y="405" on="0"/>
        <pt x="190" y="426" on="0"/>
        <pt x="162" y="426" on="1"/>
        <pt x="139" y="426" on="0"/>
        <pt x="97" y="412" on="0"/>
        <pt x="61" y="390" on="0"/>
        <pt x="32" y="363" on="0"/>
        <pt x="20" y="350" on="1"/>
        <pt x="-23" y="385" on="1"/>
        <pt x="27" y="442" on="0"/>
        <pt x="131" y="496" on="0"/>
        <pt x="188" y="496" on="1"/>
        <pt x="224" y="496" on="0"/>
        <pt x="295" y="471" on="0"/>
        <pt x="332" y="457" on="1"/>
        <pt x="366" y="443" on="0"/>
        <pt x="431" y="422" on="0"/>
      </contour>
    </TTGlyph>
    <TTGlyph name="asterisk" xMin="186" yMin="885" xMax="662" yMax="1384">
      <contour>
        <pt x="483" y="1135" on="1"/>
        <pt x="662" y="1044" on="1"/>
        <pt x="621" y="977" on="1"/>
        <pt x="457" y="1077" on="1"/>
        <pt x="465" y="885" on="1"/>
        <pt x="383" y="885" on="1"/>
        <pt x="391" y="1079" on="1"/>
        <pt x="227" y="977" on="1"/>
        <pt x="186" y="1044" on="1"/>
        <pt x="365" y="1135" on="1"/>
        <pt x="186" y="1225" on="1"/>
        <pt x="227" y="1292" on="1"/>
        <pt x="391" y="1190" on="1"/>
        <pt x="383" y="1384" on="1"/>
        <pt x="465" y="1384" on="1"/>
        <pt x="457" y="1190" on="1"/>
        <pt x="621" y="1292" on="1"/>
        <pt x="662" y="1225" on="1"/>
      </contour>
    </TTGlyph>
    <TTGlyph name="at" xMin="38" yMin="-137" xMax="1359" yMax="1395">
      <contour>
        <pt x="793" y="317" on="1"/>
        <pt x="857" y="317" on="0"/>
        <pt x="988" y="385" on="0"/>
        <pt x="1107" y="504" on="0"/>
        <pt x="1205" y="668" on="0"/>
        <pt x="1237" y="764" on="1"/>
        <pt x="1278" y="889" on="0"/>
        <pt x="1280" y="1097" on="0"/>
        <pt x="1211" y="1246" on="0"/>
        <pt x="1074" y="1329" on="0"/>
        <pt x="977" y="1329" on="1"/>
        <pt x="863" y="1329" on="0"/>
        <pt x="637" y="1220" on="0"/>
        <pt x="437" y="1025" on="0"/>
        <pt x="273" y="756" on="0"/>
        <pt x="221" y="596" on="1"/>
        <pt x="173" y="446" on="0"/>
        <pt x="168" y="199" on="0"/>
        <pt x="246" y="24" on="0"/>
        <pt x="400" y="-72" on="0"/>
        <pt x="510" y="-72" on="1"/>
        <pt x="557" y="-72" on="0"/>
        <pt x="657" y="-52" on="0"/>
        <pt x="764" y="-8" on="0"/>
        <pt x="878" y="63" on="0"/>
        <pt x="940" y="115" on="1"/>
        <pt x="967" y="63" on="1"/>
        <pt x="837" y="-37" on="0"/>
        <pt x="590" y="-137" on="0"/>
        <pt x="475" y="-137" on="1"/>
        <pt x="331" y="-137" on="0"/>
        <pt x="137" y="-23" on="0"/>
        <pt x="38" y="178" on="0"/>
        <pt x="39" y="453" on="0"/>
        <pt x="90" y="614" on="1"/>
        <pt x="124" y="719" on="0"/>
        <pt x="232" y="915" on="0"/>
        <pt x="370" y="1089" on="0"/>
        <pt x="532" y="1233" on="0"/>
        <pt x="710" y="1337" on="0"/>
        <pt x="896" y="1395" on="0"/>
        <pt x="989" y="1395" on="1"/>
        <pt x="1107" y="1395" on="0"/>
        <pt x="1273" y="1302" on="0"/>
        <pt x="1358" y="1133" on="0"/>
        <pt x="1359" y="898" on="0"/>
        <pt x="1313" y="756" on="1"/>
        <pt x="1280" y="655" on="0"/>
        <pt x="1161" y="472" on="0"/>
        <pt x="1012" y="332" on="0"/>
        <pt x="843" y="250" on="0"/>
        <pt x="760" y="250" on="1"/>
        <pt x="721" y="250" on="0"/>
        <pt x="676" y="276" on="0"/>
        <pt x="654" y="320" on="0"/>
        <pt x="652" y="378" on="0"/>
        <pt x="657" y="410" on="1"/>
        <pt x="628" y="378" on="0"/>
        <pt x="561" y="317" on="0"/>
        <pt x="498" y="269" on="0"/>
        <pt x="448" y="240" on="0"/>
        <pt x="436" y="240" on="1"/>
        <pt x="424" y="240" on="0"/>
        <pt x="408" y="279" on="0"/>
        <pt x="406" y="299" on="1"/>
        <pt x="404" y="330" on="0"/>
        <pt x="414" y="405" on="0"/>
        <pt x="432" y="482" on="0"/>
        <pt x="455" y="557" on="0"/>
        <pt x="477" y="619" on="0"/>
        <pt x="493" y="662" on="0"/>
        <pt x="496" y="670" on="1"/>
        <pt x="500" y="681" on="0"/>
        <pt x="517" y="710" on="0"/>
        <pt x="538" y="739" on="0"/>
        <pt x="560" y="766" on="0"/>
        <pt x="571" y="776" on="1"/>
        <pt x="591" y="795" on="0"/>
        <pt x="655" y="839" on="0"/>
        <pt x="729" y="881" on="0"/>
        <pt x="808" y="920" on="0"/>
        <pt x="879" y="950" on="0"/>
        <pt x="935" y="967" on="0"/>
        <pt x="950" y="967" on="1"/>
        <pt x="961" y="967" on="0"/>
        <pt x="980" y="965" on="0"/>
        <pt x="985" y="963" on="1"/>
        <pt x="987" y="961" on="1"/>
        <pt x="977" y="948" on="0"/>
        <pt x="947" y="885" on="0"/>
        <pt x="912" y="799" on="0"/>
        <pt x="875" y="697" on="0"/>
        <pt x="839" y="593" on="0"/>
        <pt x="807" y="494" on="0"/>
        <pt x="782" y="415" on="0"/>
        <pt x="768" y="362" on="0"/>
        <pt x="768" y="356" on="1"/>
        <pt x="768" y="342" on="0"/>
        <pt x="777" y="317" on="0"/>
      </contour>
      <contour>
        <pt x="559" y="369" on="1"/>
        <pt x="567" y="369" on="0"/>
        <pt x="590" y="386" on="0"/>
        <pt x="617" y="413" on="0"/>
        <pt x="648" y="446" on="0"/>
        <pt x="664" y="463" on="1"/>
        <pt x="676" y="510" on="0"/>
        <pt x="713" y="627" on="0"/>
        <pt x="753" y="742" on="0"/>
        <pt x="791" y="842" on="0"/>
        <pt x="805" y="872" on="1"/>
        <pt x="791" y="864" on="0"/>
        <pt x="738" y="847" on="0"/>
        <pt x="709" y="825" on="1"/>
        <pt x="685" y="807" on="0"/>
        <pt x="642" y="732" on="0"/>
        <pt x="607" y="640" on="0"/>
        <pt x="579" y="541" on="0"/>
        <pt x="559" y="457" on="0"/>
        <pt x="549" y="398" on="0"/>
        <pt x="549" y="391" on="1"/>
        <pt x="549" y="380" on="0"/>
        <pt x="551" y="369" on="0"/>
      </contour>
    </TTGlyph>
    <TTGlyph name="atilde" xMin="-103" yMin="-14" xMax="691" yMax="1061">
      <component glyphName="a" x="0" y="0" flags="0x204"/>
      <component glyphName="tilde" x="-134" y="0" flags="0x4"/>
    </TTGlyph>
    <TTGlyph name="b" xMin="-92" yMin="-14" xMax="485" yMax="1372">
      <contour>
        <pt x="53" y="-14" on="1"/>
        <pt x="21" y="-14" on="0"/>
        <pt x="-33" y="16" on="0"/>
        <pt x="-71" y="62" on="0"/>
        <pt x="-92" y="117" on="0"/>
        <pt x="-92" y="143" on="1"/>
        <pt x="-92" y="164" on="0"/>
        <pt x="-62" y="276" on="0"/>
        <pt x="-14" y="432" on="0"/>
        <pt x="48" y="618" on="0"/>
        <pt x="112" y="808" on="0"/>
        <pt x="174" y="988" on="0"/>
        <pt x="222" y="1133" on="0"/>
        <pt x="252" y="1229" on="0"/>
        <pt x="252" y="1239" on="1"/>
        <pt x="252" y="1261" on="0"/>
        <pt x="229" y="1278" on="0"/>
        <pt x="194" y="1276" on="0"/>
        <pt x="154" y="1263" on="0"/>
        <pt x="137" y="1255" on="1"/>
        <pt x="125" y="1282" on="1"/>
        <pt x="227" y="1332" on="0"/>
        <pt x="356" y="1372" on="0"/>
        <pt x="381" y="1372" on="1"/>
        <pt x="388" y="1372" on="0"/>
        <pt x="406" y="1361" on="0"/>
        <pt x="422" y="1341" on="0"/>
        <pt x="434" y="1316" on="0"/>
        <pt x="434" y="1303" on="1"/>
        <pt x="434" y="1295" on="0"/>
        <pt x="388" y="1178" on="0"/>
        <pt x="356" y="1083" on="1"/>
        <pt x="188" y="602" on="1"/>
        <pt x="216" y="641" on="0"/>
        <pt x="270" y="708" on="0"/>
        <pt x="318" y="759" on="0"/>
        <pt x="362" y="788" on="0"/>
        <pt x="381" y="788" on="1"/>
        <pt x="394" y="788" on="0"/>
        <pt x="430" y="767" on="0"/>
        <pt x="462" y="734" on="0"/>
        <pt x="485" y="694" on="0"/>
        <pt x="485" y="674" on="1"/>
        <pt x="485" y="638" on="0"/>
        <pt x="470" y="557" on="0"/>
        <pt x="446" y="474" on="0"/>
        <pt x="418" y="396" on="0"/>
        <pt x="392" y="333" on="0"/>
        <pt x="372" y="288" on="0"/>
        <pt x="369" y="281" on="1"/>
        <pt x="340" y="215" on="0"/>
        <pt x="257" y="107" on="0"/>
        <pt x="168" y="29" on="0"/>
        <pt x="83" y="-14" on="0"/>
      </contour>
      <contour>
        <pt x="317" y="684" on="1"/>
        <pt x="307" y="684" on="0"/>
        <pt x="274" y="649" on="0"/>
        <pt x="230" y="595" on="0"/>
        <pt x="179" y="527" on="0"/>
        <pt x="152" y="494" on="1"/>
        <pt x="132" y="432" on="0"/>
        <pt x="84" y="284" on="0"/>
        <pt x="53" y="182" on="1"/>
        <pt x="35" y="122" on="0"/>
        <pt x="42" y="41" on="0"/>
        <pt x="70" y="41" on="1"/>
        <pt x="89" y="41" on="0"/>
        <pt x="131" y="85" on="0"/>
        <pt x="175" y="158" on="0"/>
        <pt x="218" y="253" on="0"/>
        <pt x="257" y="357" on="0"/>
        <pt x="291" y="462" on="0"/>
        <pt x="316" y="553" on="0"/>
        <pt x="330" y="625" on="0"/>
        <pt x="330" y="643" on="1"/>
        <pt x="330" y="647" on="0"/>
        <pt x="329" y="660" on="0"/>
        <pt x="326" y="674" on="0"/>
        <pt x="321" y="684" on="0"/>
      </contour>
    </TTGlyph>
    <TTGlyph name="backslash" xMin="158" yMin="-18" xMax="330" yMax="1378">
      <contour>
        <pt x="158" y="1372" on="1"/>
        <pt x="231" y="1378" on="1"/>
        <pt x="330" y="-10" on="1"/>
        <pt x="258" y="-18" on="1"/>
      </contour>
    </TTGlyph>
    <TTGlyph name="bar" xMin="336" yMin="-483" xMax="422" yMax="1565">
      <contour>
        <pt x="336" y="1565" on="1"/>
        <pt x="422" y="1565" on="1"/>
        <pt x="422" y="-483" on="1"/>
        <pt x="336" y="-483" on="1"/>
      </contour>
    </TTGlyph>
    <TTGlyph name="braceleft" xMin="-115" yMin="-356" xMax="682" yMax="1393">
      <contour>
        <pt x="-115" y="-190" on="1"/>
        <pt x="-115" y="-143" on="0"/>
        <pt x="-83" y="-40" on="0"/>
        <pt x="-34" y="66" on="0"/>
        <pt x="23" y="173" on="0"/>
        <pt x="72" y="278" on="0"/>
        <pt x="104" y="379" on="0"/>
        <pt x="104" y="426" on="1"/>
        <pt x="104" y="469" on="0"/>
        <pt x="48" y="526" on="0"/>
        <pt x="-20" y="532" on="1"/>
        <pt x="-6" y="573" on="1"/>
        <pt x="42" y="577" on="0"/>
        <pt x="117" y="607" on="0"/>
        <pt x="172" y="655" on="0"/>
        <pt x="211" y="719" on="0"/>
        <pt x="223" y="756" on="1"/>
        <pt x="235" y="791" on="0"/>
        <pt x="254" y="879" on="0"/>
        <pt x="271" y="974" on="0"/>
        <pt x="291" y="1073" on="0"/>
        <pt x="305" y="1120" on="1"/>
        <pt x="328" y="1200" on="0"/>
        <pt x="400" y="1305" on="0"/>
        <pt x="495" y="1368" on="0"/>
        <pt x="613" y="1393" on="0"/>
        <pt x="682" y="1393" on="1"/>
        <pt x="670" y="1356" on="1"/>
        <pt x="637" y="1356" on="0"/>
        <pt x="581" y="1349" on="0"/>
        <pt x="532" y="1310" on="0"/>
        <pt x="487" y="1229" on="0"/>
        <pt x="465" y="1155" on="1"/>
        <pt x="453" y="1113" on="0"/>
        <pt x="433" y="1023" on="0"/>
        <pt x="414" y="927" on="0"/>
        <pt x="390" y="827" on="0"/>
        <pt x="373" y="776" on="1"/>
        <pt x="355" y="722" on="0"/>
        <pt x="299" y="646" on="0"/>
        <pt x="230" y="595" on="0"/>
        <pt x="151" y="563" on="0"/>
        <pt x="109" y="553" on="1"/>
        <pt x="136" y="545" on="0"/>
        <pt x="185" y="523" on="0"/>
        <pt x="222" y="490" on="0"/>
        <pt x="244" y="443" on="0"/>
        <pt x="244" y="412" on="1"/>
        <pt x="244" y="365" on="0"/>
        <pt x="211" y="259" on="0"/>
        <pt x="161" y="148" on="0"/>
        <pt x="103" y="34" on="0"/>
        <pt x="53" y="-79" on="0"/>
        <pt x="20" y="-187" on="0"/>
        <pt x="20" y="-236" on="1"/>
        <pt x="20" y="-267" on="0"/>
        <pt x="43" y="-301" on="0"/>
        <pt x="80" y="-316" on="0"/>
        <pt x="127" y="-319" on="0"/>
        <pt x="152" y="-319" on="1"/>
        <pt x="139" y="-356" on="1"/>
        <pt x="83" y="-356" on="0"/>
        <pt x="-10" y="-339" on="0"/>
        <pt x="-78" y="-300" on="0"/>
        <pt x="-115" y="-237" on="0"/>
      </contour>
    </TTGlyph>
</ttFont>
